<svg xmlns="http://www.w3.org/2000/svg" viewBox="0 0 677.07 412.9"><defs><style>.cls-1{fill:#f7f0e9;}.cls-2{fill:#fff;}.cls-3{fill:#00bcd6;}.cls-4{fill:#f06934;}</style></defs><title>alfianjau-Asset 1</title><g id="Layer_2" data-name="Layer 2"><g id="board"><rect class="cls-1" x="287.74" y="175.96" width="286.23" height="197.21" rx="10"/><rect class="cls-2" x="292.74" y="170.96" width="286.23" height="197.21" rx="10"/><path class="cls-3" d="M569,368.68H302.74a10.51,10.51,0,0,1-10.5-10.5V181a10.51,10.51,0,0,1,10.5-10.5H569a10.51,10.51,0,0,1,10.5,10.5V358.18A10.51,10.51,0,0,1,569,368.68ZM302.74,171.46a9.51,9.51,0,0,0-9.5,9.5V358.18a9.52,9.52,0,0,0,9.5,9.5H569a9.52,9.52,0,0,0,9.5-9.5V181a9.52,9.52,0,0,0-9.5-9.5Z"/><rect class="cls-2" x="292.74" y="170.96" width="286.23" height="197.21" rx="10"/><path class="cls-4" d="M318.83,344.07l-.57-20c21.41-.6,33.78-19.7,45.75-38.17,11-16.92,22.3-34.42,41.19-34.75h.71c16.64,0,27.18,10.42,35.68,18.81,7.64,7.55,12.66,12.17,19.34,11.83,5.43-.27,13.36-16.43,18.61-27.12,9.58-19.52,19.49-39.71,38.31-41.72,31.7-3.4,52.85,27.47,53.74,28.79L555,252.89l8.3-5.58-8.29,5.6c-.15-.22-15.39-22.19-35-20.09-7.86.84-16,17.37-22.49,30.65-9,18.4-18.37,37.42-35.56,38.28-15.78.8-26.11-9.39-34.4-17.57s-13.76-13.16-22-13-16.26,12.53-24.76,25.64C367.4,317.44,350.74,343.16,318.83,344.07Z"/><path class="cls-1" d="M487.4,368.18A61.62,61.62,0,0,1,579,315.8V293.73A81.6,81.6,0,0,0,467.4,368.18Z"/><path class="cls-1" d="M186.54,72.54V234.78a10,10,0,0,1-10,10H29.8a10,10,0,0,1-10-10V72.54a10,10,0,0,1,10-10H176.54A10,10,0,0,1,186.54,72.54Z"/><path class="cls-3" d="M176.54,245.28H29.8a10.51,10.51,0,0,1-10.5-10.5V72.54A10.51,10.51,0,0,1,29.8,62H176.54A10.51,10.51,0,0,1,187,72.54V234.78A10.51,10.51,0,0,1,176.54,245.28ZM29.8,63a9.51,9.51,0,0,0-9.5,9.5V234.78a9.51,9.51,0,0,0,9.5,9.5H176.54a9.51,9.51,0,0,0,9.5-9.5V72.54a9.51,9.51,0,0,0-9.5-9.5Z"/><path class="cls-3" d="M176.54,62.54H29.8a10,10,0,0,0-10,10v3a10,10,0,0,1,10-10H176.54a10,10,0,0,1,10,10v-3A10,10,0,0,0,176.54,62.54Z"/><rect class="cls-1" x="509.83" y="132.75" width="166.74" height="182.24" rx="10"/><path class="cls-3" d="M666.57,315.49H519.83a10.51,10.51,0,0,1-10.5-10.5V142.75a10.51,10.51,0,0,1,10.5-10.5H666.57a10.51,10.51,0,0,1,10.5,10.5V305A10.51,10.51,0,0,1,666.57,315.49ZM519.83,133.25a9.51,9.51,0,0,0-9.5,9.5V305a9.51,9.51,0,0,0,9.5,9.5H666.57a9.51,9.51,0,0,0,9.5-9.5V142.75a9.51,9.51,0,0,0-9.5-9.5Z"/><rect class="cls-1" x="509.83" y="132.75" width="166.74" height="182.24" rx="10"/><path class="cls-3" d="M666.57,315.49H519.83a10.51,10.51,0,0,1-10.5-10.5V142.75a10.51,10.51,0,0,1,10.5-10.5H666.57a10.51,10.51,0,0,1,10.5,10.5V305A10.51,10.51,0,0,1,666.57,315.49ZM519.83,133.25a9.51,9.51,0,0,0-9.5,9.5V305a9.51,9.51,0,0,0,9.5,9.5H666.57a9.51,9.51,0,0,0,9.5-9.5V142.75a9.51,9.51,0,0,0-9.5-9.5Z"/><path class="cls-3" d="M666.57,132.75H519.83a10,10,0,0,0-10,10v2a10,10,0,0,1,10-10H666.57a10,10,0,0,1,10,10v-2A10,10,0,0,0,666.57,132.75Z"/><rect class="cls-1" x="208.48" y="12.5" width="284.61" height="218.24" rx="10"/><rect class="cls-2" x="213.48" y="7.5" width="284.61" height="218.24" rx="10"/><path class="cls-3" d="M488.09,226.24H223.48a10.51,10.51,0,0,1-10.5-10.5V17.5A10.51,10.51,0,0,1,223.48,7H488.09a10.51,10.51,0,0,1,10.5,10.5V215.74A10.51,10.51,0,0,1,488.09,226.24ZM223.48,8a9.52,9.52,0,0,0-9.5,9.5V215.74a9.52,9.52,0,0,0,9.5,9.5H488.09a9.51,9.51,0,0,0,9.5-9.5V17.5a9.51,9.51,0,0,0-9.5-9.5Z"/><path class="cls-3" d="M488.09,7.5H223.48a10,10,0,0,0-10,10V41.05H498.09V17.5A10,10,0,0,0,488.09,7.5Z"/><path class="cls-2" d="M255,24.27a6.37,6.37,0,1,1-6.36-6.36A6.37,6.37,0,0,1,255,24.27Z"/><path class="cls-3" d="M248.63,31.14a6.87,6.87,0,1,1,6.86-6.87A6.88,6.88,0,0,1,248.63,31.14Zm0-12.73a5.87,5.87,0,1,0,5.86,5.86A5.87,5.87,0,0,0,248.63,18.41Z"/><path class="cls-2" d="M235.43,24.27a6.37,6.37,0,1,1-6.37-6.36A6.37,6.37,0,0,1,235.43,24.27Z"/><path class="cls-3" d="M229.06,31.14a6.87,6.87,0,1,1,6.87-6.87A6.87,6.87,0,0,1,229.06,31.14Zm0-12.73a5.87,5.87,0,1,0,5.87,5.86A5.87,5.87,0,0,0,229.06,18.41Z"/><path class="cls-2" d="M274.08,24.27a6.37,6.37,0,1,1-6.36-6.36A6.37,6.37,0,0,1,274.08,24.27Z"/><path class="cls-3" d="M267.72,31.14a6.87,6.87,0,1,1,6.86-6.87A6.88,6.88,0,0,1,267.72,31.14Zm0-12.73a5.87,5.87,0,1,0,5.86,5.86A5.87,5.87,0,0,0,267.72,18.41Z"/><rect class="cls-2" x="226.31" y="127.19" width="120.12" height="86.48" rx="5"/><path class="cls-4" d="M286.33,204.71a47.18,47.18,0,0,0,.87,9h20.69A26.47,26.47,0,0,1,346.43,182V160.28a46.48,46.48,0,0,0-60.1,44.43Z"/><path class="cls-3" d="M341.43,214.17H231.31a5.5,5.5,0,0,1-4.22-2,.51.51,0,0,1,.06-.71.52.52,0,0,1,.71.07,4.51,4.51,0,0,0,3.45,1.61H341.43a4.5,4.5,0,0,0,4.5-4.5V132.19a4.5,4.5,0,0,0-1.37-3.24.49.49,0,0,1,0-.7.5.5,0,0,1,.71,0,5.47,5.47,0,0,1,1.68,4v76.48A5.5,5.5,0,0,1,341.43,214.17Z"/><path class="cls-3" d="M227.47,212.38a.49.49,0,0,1-.38-.18,6.34,6.34,0,0,1-.62-.91.5.5,0,0,1,.88-.48,4.94,4.94,0,0,0,.51.75.5.5,0,0,1-.07.7A.47.47,0,0,1,227.47,212.38Z"/><path class="cls-3" d="M226.31,207.69a.5.5,0,0,1-.5-.5v-2a.5.5,0,0,1,.5-.5.5.5,0,0,1,.5.5v2A.5.5,0,0,1,226.31,207.69Zm0-5.93a.5.5,0,0,1-.5-.5v-2a.51.51,0,0,1,.5-.5.5.5,0,0,1,.5.5v2A.5.5,0,0,1,226.31,201.76Zm0-5.93a.51.51,0,0,1-.5-.5v-2a.5.5,0,0,1,.5-.5.5.5,0,0,1,.5.5v2A.5.5,0,0,1,226.31,195.83Zm0-5.94a.5.5,0,0,1-.5-.5v-2a.5.5,0,0,1,.5-.5.5.5,0,0,1,.5.5v2A.5.5,0,0,1,226.31,189.89Zm0-5.93a.5.5,0,0,1-.5-.5v-2a.51.51,0,0,1,.5-.5.5.5,0,0,1,.5.5v2A.5.5,0,0,1,226.31,184Zm0-5.93a.51.51,0,0,1-.5-.5v-2a.5.5,0,0,1,.5-.5.5.5,0,0,1,.5.5v2A.5.5,0,0,1,226.31,178Zm0-5.93a.51.51,0,0,1-.5-.5v-2a.5.5,0,0,1,.5-.5.5.5,0,0,1,.5.5v2A.5.5,0,0,1,226.31,172.1Zm0-5.94a.5.5,0,0,1-.5-.5v-2a.51.51,0,0,1,.5-.5.5.5,0,0,1,.5.5v2A.5.5,0,0,1,226.31,166.16Zm0-5.93a.5.5,0,0,1-.5-.5v-2a.5.5,0,0,1,.5-.5.5.5,0,0,1,.5.5v2A.5.5,0,0,1,226.31,160.23Zm0-5.93a.51.51,0,0,1-.5-.5v-2a.5.5,0,0,1,.5-.5.5.5,0,0,1,.5.5v2A.5.5,0,0,1,226.31,154.3Zm0-5.94a.5.5,0,0,1-.5-.5v-2a.51.51,0,0,1,.5-.5.5.5,0,0,1,.5.5v2A.5.5,0,0,1,226.31,148.36Zm0-5.93a.5.5,0,0,1-.5-.5v-2a.51.51,0,0,1,.5-.5.5.5,0,0,1,.5.5v2A.5.5,0,0,1,226.31,142.43Zm0-5.93a.51.51,0,0,1-.5-.5v-2a.5.5,0,0,1,.5-.5.5.5,0,0,1,.5.5v2A.5.5,0,0,1,226.31,136.5Zm.45-5.87a.54.54,0,0,1-.21,0,.5.5,0,0,1-.25-.66,5.59,5.59,0,0,1,1.26-1.75.5.5,0,1,1,.69.73,4.57,4.57,0,0,0-1,1.43A.49.49,0,0,1,226.76,130.63Zm113.53-2.94h-2a.5.5,0,0,1,0-1h2a.5.5,0,0,1,0,1Zm-5.93,0h-2a.5.5,0,0,1,0-1h2a.5.5,0,0,1,0,1Zm-5.93,0h-2a.5.5,0,0,1,0-1h2a.5.5,0,0,1,0,1Zm-5.94,0h-2a.5.5,0,0,1,0-1h2a.5.5,0,0,1,0,1Zm-5.93,0h-2a.5.5,0,0,1,0-1h2a.5.5,0,0,1,0,1Zm-5.93,0h-2a.5.5,0,0,1,0-1h2a.5.5,0,0,1,0,1Zm-5.94,0h-2a.5.5,0,0,1,0-1h2a.5.5,0,0,1,0,1Zm-5.93,0h-2a.5.5,0,0,1,0-1h2a.5.5,0,0,1,0,1Zm-5.93,0h-2a.5.5,0,0,1,0-1h2a.5.5,0,0,1,0,1Zm-5.94,0h-2a.5.5,0,0,1,0-1h2a.5.5,0,0,1,0,1Zm-5.93,0h-2a.5.5,0,0,1,0-1h2a.5.5,0,0,1,0,1Zm-5.93,0h-2a.5.5,0,0,1,0-1h2a.5.5,0,0,1,0,1Zm-5.94,0h-2a.5.5,0,0,1,0-1h2a.5.5,0,0,1,0,1Zm-5.93,0h-2a.5.5,0,0,1,0-1h2a.5.5,0,0,1,0,1Zm-5.93,0h-2a.5.5,0,0,1,0-1h2a.5.5,0,0,1,0,1Zm-5.94,0h-2a.5.5,0,0,1,0-1h2a.5.5,0,1,1,0,1Zm-5.93,0h-2a.5.5,0,0,1,0-1h2a.5.5,0,0,1,0,1Zm-5.93,0h-2a.5.5,0,0,1,0-1h2a.5.5,0,0,1,0,1Zm-5.93,0h-2a.5.5,0,0,1,0-1h2a.5.5,0,0,1,0,1Z"/><path class="cls-3" d="M344.9,129.09a.45.45,0,0,1-.34-.14,6.48,6.48,0,0,0-.71-.56.5.5,0,1,1,.54-.84,5.72,5.72,0,0,1,.86.68.5.5,0,0,1-.35.86Z"/><rect class="cls-2" x="342.23" y="122.99" width="8.4" height="8.4"/><path class="cls-3" d="M350.63,131.89h-8.4a.5.5,0,0,1-.5-.5V123a.5.5,0,0,1,.5-.5h8.4a.5.5,0,0,1,.5.5v8.4A.5.5,0,0,1,350.63,131.89Zm-7.9-1h7.4v-7.4h-7.4Z"/><rect class="cls-3" x="222.11" y="209.47" width="8.4" height="8.4"/><rect class="cls-2" x="231.32" y="91.14" width="97.38" height="27.35" rx="13.54"/><path class="cls-3" d="M315.15,119H244.86a14.05,14.05,0,0,1-14-14v-.27a14.05,14.05,0,0,1,14-14h70.29a14.06,14.06,0,0,1,14,14V105A14.06,14.06,0,0,1,315.15,119ZM244.86,91.64a13.06,13.06,0,0,0-13,13V105a13.06,13.06,0,0,0,13,13h70.29a13.06,13.06,0,0,0,13-13v-.27a13.06,13.06,0,0,0-13-13Z"/><rect class="cls-1" x="360.33" y="110.04" width="124.93" height="103.74" rx="5"/><rect class="cls-1" x="231.32" y="48.86" width="97.38" height="27.35" rx="13.54"/><circle class="cls-1" cx="312.67" cy="62.54" r="14.54" transform="translate(179.54 352.28) rotate(-76.63)"/><path class="cls-3" d="M312.67,77.58a15,15,0,1,1,15-15A15.05,15.05,0,0,1,312.67,77.58Zm0-29.07a14,14,0,1,0,14,14A14,14,0,0,0,312.67,48.51Z"/><circle class="cls-4" cx="314.67" cy="62.54" r="14.54" transform="translate(181.08 354.23) rotate(-76.63)"/><path class="cls-3" d="M314.67,77.58a15,15,0,1,1,15-15A15.05,15.05,0,0,1,314.67,77.58Zm0-29.07a14,14,0,1,0,14,14A14,14,0,0,0,314.67,48.51Z"/><path class="cls-4" d="M412,116.55a40.41,40.41,0,0,1-51.63,38.83v20.53A60.37,60.37,0,0,0,432,116.55a60.87,60.87,0,0,0-.36-6.51H411.42A40,40,0,0,1,412,116.55Z"/><path class="cls-3" d="M480.26,214.29H365.33a5.5,5.5,0,0,1-5.5-5.5V115a5.5,5.5,0,0,1,5.5-5.5H480.26a5.51,5.51,0,0,1,5.5,5.5v93.75A5.51,5.51,0,0,1,480.26,214.29ZM365.33,110.54a4.51,4.51,0,0,0-4.5,4.5v93.75a4.51,4.51,0,0,0,4.5,4.5H480.26a4.51,4.51,0,0,0,4.5-4.5V115a4.51,4.51,0,0,0-4.5-4.5Z"/></g><g id="man"><path class="cls-3" d="M186.54,156.38V125.81l-32.51-19a11.53,11.53,0,0,0-4.41-1.82l-.25,0a52.31,52.31,0,0,0-9.45-.55c-1.87,0-3.79,0-5.86-.08a.42.42,0,0,0-.41.19.4.4,0,0,0-.09.21s.84-3.24.84-3.24a12.16,12.16,0,0,0,1.49.1,12.72,12.72,0,0,0,1.62-.11c1.78-.25,4.39-1.69,6.39-5a20.7,20.7,0,0,0,2.64-10.66l.45,0h.38a6.1,6.1,0,1,0-2.53-11.64c-.37-1.33-.79-2.71-1.31-4.17-.16-.47-.35-.93-.54-1.38,2-.64,3.2-3.5,2.56-6.16H119.5c-2.23.65-7.59,2.46-9.16,5.37-1,1.86-.62,4.28.29,6.63a7.86,7.86,0,0,0,.39.94c.29.66.62,1.3,1,1.91,1.39,2.77,2.69,5.35,3.81,7.55a4.15,4.15,0,0,0-.1,1.37,6,6,0,0,0,1.67,3.55,6.43,6.43,0,0,0,1.53,1.2l.09.18-2.63,9.58a2.7,2.7,0,0,0-1.07,1l-.89,1.46a2.68,2.68,0,0,0-.4,1.33l-.11,0-13.7-.12a18.78,18.78,0,0,0-13.11,6.45.36.36,0,0,0-.14.11c-8.28,9.61-13,15-17.56,20.2s-9.27,10.59-17.54,20.2a13,13,0,0,0-2.17,3.49l-.07.12L26,202.34c-.07.14-5.28,12,2.89,22.64l-9.1,2.71v7.09a10,10,0,0,0,10,10h74.39l1.08-4.73c.71-3.16,1.42-6.28,2.15-9.49-.09,4.8-.17,9.41-.26,14.21h40.73c.16-8.37.3-16.2.48-25.65l.2-10.85a13.22,13.22,0,0,0,4.85-5c.39-1,2.27-22.21,3.59-41.78.47-7,.93-14.55,1.25-21.66l26.16,15.28A14,14,0,0,0,186.54,156.38ZM66.87,225.18l-.5-1.7a5.53,5.53,0,0,0-3.2-3.51,5.51,5.51,0,0,0-5.07-3.43,5.57,5.57,0,0,0-1.57.23l-3.81,1.13c-.84-1.32-1.82-2.81-2.84-4.35,1.12-2.18,3.65-7.26,7.14-14.27a8.7,8.7,0,0,0,1.08,1.46c2.53,2.81,7.24,5.31,12.67,7.33Z"/><path class="cls-3" d="M146.28,67.54c-1.11,1.2-2.4,1.44-2.39,1.71s2.88.84,4.24-.79.81-3.47,0-3.54S147.38,66.34,146.28,67.54Z"/><path class="cls-2" d="M158.33,193.85c-.43,23.16-.66,36.2-.94,50.93H117.66c.19-10.28.36-19.64.58-32.06.11-5.77.23-12.17.36-19.6a19.87,19.87,0,0,1,39.73.73Z"/><path class="cls-3" d="M157.39,245.28H117.66a.5.5,0,0,1-.5-.51c.19-10.27.36-19.62.58-32v-.09c.11-5.74.23-12.13.36-19.54a20.37,20.37,0,0,1,20.37-20h.37a20.37,20.37,0,0,1,20,20.74l-.46,25.26c-.18,9.46-.32,17.29-.48,25.67A.5.5,0,0,1,157.39,245.28Zm-39.22-1H156.9c.16-8.19.3-15.9.47-25.18l.46-25.26a19.36,19.36,0,0,0-19-19.72h-.35a19.38,19.38,0,0,0-19.37,19c-.13,7.43-.25,13.83-.36,19.57C118.52,224.94,118.36,234.2,118.17,244.28Z"/><path class="cls-3" d="M127.15,230.36c0-.17,0-.32,0-.48a14.5,14.5,0,0,0-9-13.41c-.18,10.61-.34,19.09-.51,28.31h10.27C126.75,240,126.92,237.4,127.15,230.36Z"/><path class="cls-2" d="M210.49,154.36c20.08-12.81,21.31-13.06,42.22-26.39L240,105.43l-37.94,24.2-38.86-22.69a12.68,12.68,0,0,0-12.79,21.89l44.27,25.86a12.92,12.92,0,0,0,15.77-.33Z"/><path class="cls-3" d="M202.46,157.72h-.41a13.12,13.12,0,0,1-7.63-2.62L150.2,129.26a13.18,13.18,0,1,1,13.29-22.76l38.59,22.55,37.69-24a.49.49,0,0,1,.39-.06.51.51,0,0,1,.32.24l12.66,22.53a.51.51,0,0,1-.16.67c-10.57,6.74-16.18,10.17-21.6,13.5-5.25,3.22-10.69,6.55-20.63,12.89A13.17,13.17,0,0,1,202.46,157.72Zm-45.6-52a12.18,12.18,0,0,0-6.16,22.7L195,154.26a12.13,12.13,0,0,0,7.11,2.45h.38a12.26,12.26,0,0,0,7.71-2.75c10-6.38,15.43-9.71,20.69-12.94s10.88-6.66,21.18-13.23l-12.18-21.66-37.5,23.92a.51.51,0,0,1-.52,0L163,107.37A12.2,12.2,0,0,0,156.86,105.7Z"/><path class="cls-3" d="M252.51,128.1c-1.2.7-3.14-.15-5.22-2.08l-.6-.58a31.15,31.15,0,0,1-4.76-6.34c-2.26-3.92-3.55-7.79-3.65-10.45a6.17,6.17,0,0,1,0-1,4.26,4.26,0,0,1,.23-1.15,2,2,0,0,1,.87-1.09,1.56,1.56,0,0,1,.67-.22c2.42-.32,6.62,3.54,9.91,9.22a31.9,31.9,0,0,1,2.92,6.56c.06.2.12.4.17.59C254,124.83,253.85,127.33,252.51,128.1Z"/><path class="cls-3" d="M251.55,128.84c-1.28,0-2.87-.85-4.6-2.45-.21-.2-.41-.39-.61-.6a31,31,0,0,1-4.84-6.44c-2.22-3.85-3.61-7.84-3.72-10.68a6,6,0,0,1,.05-1.07,4.42,4.42,0,0,1,.22-1.16l0-.11a2.5,2.5,0,0,1,1.1-1.33,2,2,0,0,1,.87-.29l.33,0c2.68,0,6.82,3.9,10.05,9.49a32.42,32.42,0,0,1,3,6.67c.06.2.12.41.17.6,1,3.69.72,6.2-.81,7.08A2.32,2.32,0,0,1,251.55,128.84ZM239,106.64l0,0a4.19,4.19,0,0,0-.2,1,5.45,5.45,0,0,0,0,.93c.1,2.67,1.44,6.49,3.58,10.21a30.46,30.46,0,0,0,4.68,6.23l.6.58c1.92,1.78,3.67,2.56,4.62,2s1.19-2.89.35-6c-.05-.19-.11-.38-.17-.58a31.28,31.28,0,0,0-2.87-6.45c-3.07-5.3-7.18-9.26-9.41-9a1,1,0,0,0-.48.15A1.53,1.53,0,0,0,239,106.64Z"/><path class="cls-2" d="M125.39,193.25l-4.53,19.93c-2.82,12.38-4.92,21.65-7.29,32.09H72.82c4.51-19.82,7.42-32.63,13.83-60.82a19.86,19.86,0,1,1,38.74,8.8Z"/><path class="cls-3" d="M113.57,245.77H72.82a.51.51,0,0,1-.49-.61l13.83-60.82a20.36,20.36,0,0,1,39.14-2,.55.55,0,0,1,0,.13,20.36,20.36,0,0,1,.53,10.92l-4.52,19.88s0,0,0,.08c-2.33,10.21-4.17,18.31-6.08,26.71l-1.21,5.35A.5.5,0,0,1,113.57,245.77Zm-40.12-1h39.72l1.13-5c1.9-8.39,3.73-16.47,6.06-26.66a.17.17,0,0,1,0-.07s4.53-19.94,4.53-19.94a19.33,19.33,0,0,0-.52-10.45.14.14,0,0,1,0-.06,19.36,19.36,0,0,0-37.22,1.93Z"/><path class="cls-2" d="M83.94,195.26l12-77.19a13.92,13.92,0,0,1,13.67-12.25l39.59.2c12.62,1,20.16,9.12,18.57,19.25,0,0-10,65.34-11.86,75.9-2.39,13.32-60.66,7.6-60.66,7.6C90.66,209,85.71,205,84.23,200l-.06-.19A9.12,9.12,0,0,1,83.94,195.26Z"/><path class="cls-3" d="M121.34,210.49c-13.49,0-26-1.21-26.1-1.22H95c-4.78,0-9.7-4-11.21-9.15l-.06-.19a9.71,9.71,0,0,1-.23-4.79l.08,0c.19-1.78,1.81-12.22,11.95-77.17a14.47,14.47,0,0,1,14.14-12.68l39.62.2c6.93.55,12.59,3.22,16,7.52a15.5,15.5,0,0,1,3.07,12.31c-.1.65-10,65.47-11.86,75.91C155.34,207.38,143.53,210.49,121.34,210.49Zm-26.07-2.22c.19,0,12.64,1.22,26.07,1.22,21.33,0,33.13-2.91,34.11-8.41,1.87-10.43,11.76-75.23,11.86-75.88a14.49,14.49,0,0,0-2.87-11.54c-3.21-4.08-8.62-6.61-15.24-7.14l-39.55-.2c-7,.29-12.07,4.82-13.17,11.83-.12.77-12,76.57-12,77.18a8.79,8.79,0,0,0,.21,4.33l.06.18C86.13,204.68,90.82,208.49,95.27,208.27Z"/><path class="cls-1" d="M156.11,123.1H109a.5.5,0,0,1-.5-.5.5.5,0,0,1,.5-.5h47.07a.5.5,0,0,1,.5.5A.5.5,0,0,1,156.11,123.1Z"/><path class="cls-1" d="M156.11,131H109a.5.5,0,0,1-.5-.5.5.5,0,0,1,.5-.5h47.07a.5.5,0,0,1,.5.5A.5.5,0,0,1,156.11,131Z"/><path class="cls-1" d="M156.11,138.83H109a.5.5,0,0,1-.5-.5.5.5,0,0,1,.5-.5h47.07a.5.5,0,0,1,.5.5A.5.5,0,0,1,156.11,138.83Z"/><path class="cls-1" d="M156.11,146.69H109a.5.5,0,0,1,0-1h47.07a.5.5,0,0,1,0,1Z"/><path class="cls-1" d="M156.11,154.55H109a.5.5,0,0,1,0-1h47.07a.5.5,0,0,1,0,1Z"/><path class="cls-1" d="M156.11,162.41H109a.5.5,0,0,1-.5-.5.5.5,0,0,1,.5-.5h47.07a.5.5,0,0,1,.5.5A.5.5,0,0,1,156.11,162.41Z"/><path class="cls-1" d="M156.11,170.28H109a.5.5,0,0,1-.5-.5.5.5,0,0,1,.5-.5h47.07a.5.5,0,0,1,.5.5A.5.5,0,0,1,156.11,170.28Z"/><path class="cls-1" d="M156.11,178.14H109a.5.5,0,0,1-.5-.5.5.5,0,0,1,.5-.5h47.07a.5.5,0,0,1,.5.5A.5.5,0,0,1,156.11,178.14Z"/><path class="cls-1" d="M156.11,186H109a.5.5,0,0,1,0-1h47.07a.5.5,0,0,1,0,1Z"/><path class="cls-1" d="M156.11,193.86H109a.5.5,0,0,1-.5-.5.5.5,0,0,1,.5-.5h47.07a.5.5,0,0,1,.5.5A.5.5,0,0,1,156.11,193.86Z"/><path class="cls-1" d="M156.11,201.72H109a.5.5,0,0,1-.5-.5.5.5,0,0,1,.5-.5h47.07a.5.5,0,0,1,.5.5A.5.5,0,0,1,156.11,201.72Z"/><path class="cls-2" d="M144,104.82s9.08,28.89-5.36,107.75c0,0,19.35.05,24.28-9.51.62-1.57,7.3-79.54,4.62-89.67S156.54,105.25,144,104.82Z"/><path class="cls-3" d="M138.68,213.07a.49.49,0,0,1-.49-.59c14.25-77.84,5.47-107.23,5.38-107.51a.5.5,0,0,1,.08-.46.44.44,0,0,1,.41-.19c2.07.07,4,.07,5.86.08,9.18,0,15.81,0,18.15,8.86,1.44,5.46.22,29.23-1.06,48.21-1.32,19.57-3.2,40.8-3.59,41.78C158.42,213,139.49,213.07,138.68,213.07Zm6-107.73c1.2,4.78,7.57,35.45-5.42,106.72,3.27-.1,19-1,23.23-9.23.3-1,2.1-20.54,3.52-41.7,1.79-26.56,2.17-43.47,1.07-47.61-2.14-8.08-8.12-8.1-17.19-8.12C148.25,105.39,146.53,105.39,144.7,105.34Z"/><path class="cls-2" d="M141.36,79.35a8.28,8.28,0,0,0-10.19,5.8l-5.77,21L137.65,110l4.08-.66c2.55-9.3,2.66-9.72,5.43-19.81A8.28,8.28,0,0,0,141.36,79.35Z"/><path class="cls-3" d="M137.65,110.51l-.15,0-12.25-3.83a.5.5,0,0,1-.34-.61l5.78-21a8.81,8.81,0,0,1,8.47-6.47,9.15,9.15,0,0,1,2.33.31,8.8,8.8,0,0,1,6.15,10.81l-5.43,19.81a.49.49,0,0,1-.4.36l-4.08.66ZM126,105.85l11.67,3.65,3.65-.59,5.35-19.5a7.8,7.8,0,0,0-5.45-9.58,7.65,7.65,0,0,0-2.07-.28,7.82,7.82,0,0,0-7.51,5.73Z"/><path class="cls-2" d="M147.44,101c4.4-.62,13.27-9,5.62-30.72-3.22-9.12-11.08-12.73-19.68-6.08C123.62,71.73,131.8,103.17,147.44,101Z"/><path class="cls-3" d="M145.89,101.58c-7.59,0-12.89-7.6-15.32-14.71-2.84-8.31-2.89-18.91,2.51-23.09a14.73,14.73,0,0,1,9-3.52c5,0,9.32,3.67,11.49,9.82C158.78,85,156,93,153.9,96.49c-2,3.29-4.61,4.73-6.39,5A12.72,12.72,0,0,1,145.89,101.58ZM142,61.26a13.78,13.78,0,0,0-8.35,3.31c-5,3.89-4.9,14-2.17,22,2.32,6.78,7.31,14,14.37,14a10.72,10.72,0,0,0,1.48-.1c1.48-.21,3.85-1.52,5.67-4.51,2-3.33,4.66-11.08-.45-25.55C150.54,64.6,146.69,61.26,142,61.26Z"/><path class="cls-3" d="M129.37,92s4.5-6,4.68-9.51a6,6,0,0,0-2.38-4.76,8.35,8.35,0,0,0,.5-7.71c-1.54-3.4-15.1-2.41-11.14,5.47C125.49,84.4,129.37,92,129.37,92Z"/><path class="cls-3" d="M125.63,82.77s-8.12-9.63-5.29-14.86c2-3.7,10.16-5.64,10.16-5.64s14.88-8.78,22.7-3.21c4.6,3.27,2.33,10.85-1.95,9.67-6.13-1.69-11.83,6.8-19.06,1.47Z"/><path class="cls-3" d="M149.72,89.86a.5.5,0,0,1-.49-.46.49.49,0,0,1,.45-.54s2.46-.24,2.45-1.6c0-.81-.86-2.2-1.63-3.43a9.7,9.7,0,0,1-1.7-3.65,4.43,4.43,0,0,1,1.11-3.52,5.4,5.4,0,0,1,3.71-1.42.5.5,0,0,1,.49.51.51.51,0,0,1-.51.49,4.48,4.48,0,0,0-3,1.11,3.5,3.5,0,0,0-.83,2.77,9.55,9.55,0,0,0,1.55,3.19c.92,1.47,1.78,2.86,1.78,4,0,2.27-3.22,2.58-3.36,2.6Z"/><path class="cls-3" d="M146.37,77.38c-.18-.8-2-1.32-3.55-.86a4.18,4.18,0,0,0-2.73,2.58c0,.13,1.74-.51,3.43-.91C145,77.84,146.46,77.75,146.37,77.38Z"/><path class="cls-2" d="M123.87,105.09c10,9.68-5.69,104.79-13.06,107-9.1,2.78-45.23-5.92-44.15-16.22s18.1-28,26.92-76.68A17.76,17.76,0,0,1,110.2,105Z"/><path class="cls-3" d="M106.12,213.15c-10.8,0-31.53-5.21-38-12.41a6.31,6.31,0,0,1-1.94-4.88c.37-3.58,2.6-8,5.69-14.11,6.14-12.14,15.42-30.5,21.23-62.61a18.17,18.17,0,0,1,17.1-14.67l13.7.12a.48.48,0,0,1,.34.14c7.84,7.57.64,62.1-5.89,89.28-2.81,11.71-5.29,18-7.37,18.6A17.41,17.41,0,0,1,106.12,213.15Zm4.08-107.68a17.36,17.36,0,0,0-16.13,13.85C88.23,151.57,78.91,170,72.74,182.2c-3,6-5.23,10.36-5.59,13.76a5.42,5.42,0,0,0,1.69,4.11c6.22,6.9,26.9,12.08,37.28,12.08a16,16,0,0,0,4.54-.5c.61-.18,2.89-2,6.7-17.88,7.19-29.9,13.06-80.91,6.3-88.19Z"/><path class="cls-3" d="M148.25,88.89a.51.51,0,0,1-.5-.43.52.52,0,0,1,.43-.57l1.31-.18a.5.5,0,0,1,.57.42.51.51,0,0,1-.43.57l-1.31.18Z"/><path class="cls-2" d="M129.24,101.65l7.35,7.31a2.28,2.28,0,0,1,.52,2.43l-.6,1.54a2.26,2.26,0,0,1-3.68.8l-7.65-7.38a2.27,2.27,0,0,1-.36-2.81l.88-1.46A2.28,2.28,0,0,1,129.24,101.65Z"/><path class="cls-3" d="M134.39,114.87a2.75,2.75,0,0,1-1.91-.78l-7.65-7.39a2.73,2.73,0,0,1-.44-3.42l.89-1.46a2.76,2.76,0,0,1,4.31-.52l7.36,7.31a2.77,2.77,0,0,1,.62,3l-.59,1.53A2.77,2.77,0,0,1,134.39,114.87Zm-6.75-13.38a1.76,1.76,0,0,0-1.51.85l-.89,1.46a1.76,1.76,0,0,0,.29,2.19l7.64,7.38a1.76,1.76,0,0,0,2.87-.63l.6-1.53a1.75,1.75,0,0,0-.4-1.89L128.88,102A1.71,1.71,0,0,0,127.64,101.49Z"/><path class="cls-2" d="M138.13,111.29l.32.84a2.27,2.27,0,0,0,3.92.57l2.66-3.46a2.27,2.27,0,0,0,.15-2.55l-.28-.45a2.27,2.27,0,0,0-3.64-.33L138.55,109A2.29,2.29,0,0,0,138.13,111.29Z"/><path class="cls-3" d="M140.58,114.08a2.74,2.74,0,0,1-2.59-1.77l-.32-.84a2.77,2.77,0,0,1,.51-2.82l2.71-3.07a2.76,2.76,0,0,1,4.44.4l.27.45a2.74,2.74,0,0,1-.17,3.12L142.76,113A2.74,2.74,0,0,1,140.58,114.08Zm2.38-8.44a1.73,1.73,0,0,0-1.32.6l-2.71,3.07a1.77,1.77,0,0,0-.33,1.8l.32.84a1.76,1.76,0,0,0,1.66,1.13,1.73,1.73,0,0,0,1.39-.68l2.67-3.46a1.77,1.77,0,0,0,.11-2l-.28-.46A1.75,1.75,0,0,0,143,105.64Z"/><path class="cls-3" d="M153.89,69.25c0-.27,1.28-.51,2.39-1.71s.88-2.69,1.82-2.62,1.42,1.88,0,3.54S153.9,69.51,153.89,69.25Z"/><path class="cls-2" d="M133.8,90.46c-1.52,1.43-4.24,1-6.07-.94s-2.09-4.69-.57-6.12,4.24-1,6.07.94a6,6,0,0,1,1.29,2.11Z"/><path class="cls-3" d="M131.54,91.81a4.71,4.71,0,0,1-.74-.06,6,6,0,0,1-3.44-1.89c-2-2.15-2.26-5.21-.54-6.82a3.87,3.87,0,0,1,3.33-.93A6.17,6.17,0,0,1,133.6,84,6.33,6.33,0,0,1,135,86.29a.49.49,0,0,1-.31.63.5.5,0,0,1-.63-.31,5.43,5.43,0,0,0-1.18-1.92A5,5,0,0,0,130,83.1a2.9,2.9,0,0,0-2.5.67c-1.31,1.23-1,3.66.59,5.41A5.07,5.07,0,0,0,131,90.76a2.9,2.9,0,0,0,2.5-.66.49.49,0,0,1,.7,0,.5.5,0,0,1,0,.71A3.73,3.73,0,0,1,131.54,91.81Z"/><path class="cls-3" d="M132.57,88.33c-1.68-.13-2-1.4-2.25-2.24a1.84,1.84,0,0,0-.28-.73.65.65,0,0,0-.75-.07.51.51,0,0,1-.69-.14.5.5,0,0,1,.13-.69,1.62,1.62,0,0,1,1.91.1,2.19,2.19,0,0,1,.65,1.27c.24.89.43,1.43,1.32,1.5a.5.5,0,0,1,0,1Z"/><path class="cls-2" d="M162.94,80.13a5.59,5.59,0,1,1-5.24-5.92A5.58,5.58,0,0,1,162.94,80.13Z"/><path class="cls-3" d="M157.37,85.89H157a6.11,6.11,0,1,1,.38,0Zm0-11.19a5.11,5.11,0,0,0-5.08,4.79,5.09,5.09,0,1,0,5.4-4.78Z"/><path class="cls-3" d="M153.52,80.06a.5.5,0,0,1-.5-.53,4.35,4.35,0,0,1,4.6-4.07.5.5,0,1,1-.06,1,3.37,3.37,0,0,0-2.42.84,3.3,3.3,0,0,0-1.12,2.3A.5.5,0,0,1,153.52,80.06Z"/><path class="cls-2" d="M148.19,80.13A5.59,5.59,0,1,1,143,74.21,5.58,5.58,0,0,1,148.19,80.13Z"/><path class="cls-3" d="M142.62,85.89h-.38a6.11,6.11,0,1,1,.38,0Zm0-11.19a5.1,5.1,0,0,0-5.07,4.79,5.1,5.1,0,0,0,4.77,5.39,5.09,5.09,0,1,0,.62-10.17Z"/><path class="cls-3" d="M138.77,80.06a.5.5,0,0,1-.5-.53,4.34,4.34,0,0,1,4.6-4.07.5.5,0,1,1-.06,1,3.35,3.35,0,0,0-3.54,3.14A.5.5,0,0,1,138.77,80.06Z"/><path class="cls-2" d="M248.17,126.78c-.2-.2-15.39-10-9.42-35l-3.43-9.59A3.31,3.31,0,0,1,239.53,78a6.83,6.83,0,0,1,1.3.72c3.47,2.55,3.36,11.92,7.18,13s14.89-17.12,26.18-19.53a1.55,1.55,0,0,1,1.38.44,1.57,1.57,0,0,1,.05,2.23c-2.8,2.94-10.28,10.91-12.64,15.39.4-.25,8.49-5.19,8.31,2.87,0,0,6.79.44,4.4,7.23a6.32,6.32,0,0,1,1.46,3.5C277.42,106.17,248.17,126.78,248.17,126.78Z"/><path class="cls-3" d="M248.17,127.28a.51.51,0,0,1-.32-.12c-2.62-1.9-15.07-12.28-9.62-35.32l-3.38-9.46a3.81,3.81,0,0,1,.49-3.53,3.72,3.72,0,0,1,4.37-1.36,6.22,6.22,0,0,1,1.41.78c1.76,1.28,2.63,4.06,3.47,6.75s1.78,5.68,3.55,6.19a.71.71,0,0,0,.21,0c1.42,0,4.36-3,7.46-6.21,5.17-5.32,11.61-11.93,18.27-13.36a2,2,0,0,1,1.84.57,2.09,2.09,0,0,1,.06,2.94c-3.34,3.49-8.93,9.57-11.66,13.77A9.55,9.55,0,0,1,268,88a3.44,3.44,0,0,1,2.57,1,5.23,5.23,0,0,1,1.19,3.68A6.17,6.17,0,0,1,276,95c.89,1.33,1,3.07.3,5.18a7.06,7.06,0,0,1,1.4,3.55c.27,2.38-20.32,17.17-29.19,23.42A.52.52,0,0,1,248.17,127.28Zm-9.79-49a2.75,2.75,0,0,0-2.22,1.2,2.85,2.85,0,0,0-.37,2.62l3.43,9.6a.45.45,0,0,1,0,.28c-5.25,22,6.1,32.09,9,34.23,13.63-9.61,28.16-20.65,28.48-22.32a5.88,5.88,0,0,0-1.33-3.17.51.51,0,0,1-.11-.51c.67-1.92.64-3.45-.1-4.57-1.19-1.81-3.83-2-3.86-2a.5.5,0,0,1-.47-.51,4.65,4.65,0,0,0-.91-3.41A2.42,2.42,0,0,0,268,89a11.09,11.09,0,0,0-4.79,1.65.5.5,0,0,1-.7-.65c2.22-4.22,8.92-11.53,12.72-15.5a1.1,1.1,0,0,0-1-1.84c-6.37,1.36-12.69,7.86-17.76,13.08-4,4.12-6.84,7-8.66,6.44-2.3-.66-3.24-3.67-4.23-6.85-.8-2.53-1.62-5.15-3.11-6.24a5.53,5.53,0,0,0-1.19-.67A2.68,2.68,0,0,0,238.38,78.23Z"/><path class="cls-2" d="M248.67,94.53s8.82,8.62,1.24,20.18Z"/><path class="cls-3" d="M249.91,115.21a.53.53,0,0,1-.27-.08.51.51,0,0,1-.15-.7c7.26-11.06-.82-19.2-1.17-19.54a.5.5,0,0,1,0-.71.49.49,0,0,1,.7,0c.09.08,9,9,1.31,20.8A.51.51,0,0,1,249.91,115.21Z"/><path class="cls-2" d="M263.48,91.6l-5.28,6.88a2.2,2.2,0,0,0,3,3.15l8.73-6.07-6.38,8.69a1.88,1.88,0,0,0,2.58,2.66l9.58-6.59Z"/><path class="cls-3" d="M265.07,107.74a2.39,2.39,0,0,1-1.93-3.78l4.6-6.28L261.48,102a2.7,2.7,0,0,1-3.68-3.86l5.28-6.88a.5.5,0,1,1,.79.61l-5.28,6.88a1.68,1.68,0,0,0,0,2.07,1.7,1.7,0,0,0,2.3.36l8.72-6.07a.5.5,0,0,1,.65.06.49.49,0,0,1,0,.64l-6.38,8.7a1.38,1.38,0,0,0,1.9,2l9.57-6.59a.5.5,0,1,1,.57.82l-9.58,6.59A2.33,2.33,0,0,1,265.07,107.74Z"/><path class="cls-2" d="M274.71,100.79S266.2,106.37,267,108s7.16-1.13,9-2.74S276.83,100.21,274.71,100.79Z"/><path class="cls-3" d="M268.15,109c-1,0-1.47-.43-1.64-.8-.85-1.85,5.26-6.12,7.92-7.87l.15-.07a2.29,2.29,0,0,1,2.76,1.58,3.45,3.45,0,0,1-1,3.79C274.81,107,270.44,109,268.15,109Zm6.76-7.79c-4.61,3-7.76,6-7.49,6.57.06.14.33.22.73.22,2,0,6.15-2,7.53-3.13a2.43,2.43,0,0,0,.72-2.68A1.29,1.29,0,0,0,274.91,101.25Z"/><rect class="cls-3" x="28.97" y="222.01" width="49" height="38.55" rx="5" transform="translate(-66.52 25.23) rotate(-16.55)"/><rect class="cls-2" x="31.97" y="225.01" width="49" height="38.55" rx="5" transform="translate(-67.25 26.21) rotate(-16.55)"/><path class="cls-3" d="M41.84,269a5.54,5.54,0,0,1-5.27-3.94l-8.13-27.36a5.51,5.51,0,0,1,3.7-6.84l37.39-11.11a5.49,5.49,0,0,1,6.84,3.71l8.13,27.36a5.5,5.5,0,0,1-3.71,6.84L43.41,268.79A5.57,5.57,0,0,1,41.84,269ZM71.1,220.54a4.74,4.74,0,0,0-1.29.19L32.43,231.84a4.48,4.48,0,0,0-3,5.59l8.13,27.37A4.53,4.53,0,0,0,41.84,268a4.27,4.27,0,0,0,1.28-.19l37.39-11.11a4.5,4.5,0,0,0,3-5.59l-8.13-27.37A4.53,4.53,0,0,0,71.1,220.54Z"/><path class="cls-2" d="M36.46,202.56s-6.17,13.6,5.09,24.66c0,0-2.7,7.71-1,13.05a2,2,0,0,0,1,1.18,2.06,2.06,0,0,0,2.87-1.19l4-12s1.83,1.51,1.41,5-2.46,13.06.14,14.83c1.18.8,2.64-.39,2.64-.39s-.46,2.59,1.25,3.3,6-6.76,6-6.76.54,1.4,1.5,1.22c.67-.13,3.51-3.77,5.11-5.89a4.51,4.51,0,0,0,.88-3.31c-.45-3.52-1.5-11.13-2.46-13.57C63.68,219.51,50,200,50,200Z"/><path class="cls-3" d="M54.15,251.59a1.08,1.08,0,0,1-.44-.09,3,3,0,0,1-1.62-2.86,2.56,2.56,0,0,1-2.36-.09c-2.24-1.53-1.56-7.33-.67-13.15.13-.84.24-1.58.31-2.16a5.87,5.87,0,0,0-.71-3.93L45,240.42a2.55,2.55,0,0,1-2.43,1.75,2.61,2.61,0,0,1-2.44-1.75c-1.6-4.9.37-11.56.86-13.07-11.07-11.13-5-24.86-5-25a.5.5,0,0,1,.36-.29l13.55-2.56a.5.5,0,0,1,.5.21c.56.8,13.73,19.59,15,22.83,1,2.42,2,9.62,2.5,13.69a5,5,0,0,1-1,3.67c-4.46,5.9-5.11,6-5.42,6.08a1.64,1.64,0,0,1-1.59-.72C58.73,247.24,55.9,251.59,54.15,251.59Zm-1.5-4.35a.47.47,0,0,1,.25.07.5.5,0,0,1,.24.52s-.37,2.2,1,2.75h.06c1,0,3.52-3.41,5.34-6.56a.5.5,0,0,1,.9.07c.12.3.48.91.86.91s1.88-1.73,4.88-5.7a4,4,0,0,0,.79-2.95c-.42-3.24-1.48-11-2.44-13.45-1.15-2.92-13.07-20-14.7-22.36l-13,2.45c-.73,1.83-5,14,5.08,23.86a.48.48,0,0,1,.12.52c0,.08-2.62,7.62-1,12.73a1.5,1.5,0,0,0,.79.89,1.53,1.53,0,0,0,.7.17A1.56,1.56,0,0,0,44,240.1l4-12a.49.49,0,0,1,.79-.23c.08.07,2,1.72,1.58,5.46-.07.58-.18,1.33-.31,2.19-.58,3.79-1.67,10.86.24,12.16a1.09,1.09,0,0,0,.63.19,2.59,2.59,0,0,0,1.41-.56A.54.54,0,0,1,52.65,247.24Z"/><path class="cls-2" d="M56.47,228.62A92.88,92.88,0,0,1,55.78,239a34.8,34.8,0,0,1-3.13,8.71Z"/><path class="cls-3" d="M52.65,248.24a.46.46,0,0,1-.23-.06.49.49,0,0,1-.21-.67A35.31,35.31,0,0,0,55.29,239,91.65,91.65,0,0,0,56,228.61a.5.5,0,0,1,1,0,88.92,88.92,0,0,1-.7,10.49A35.28,35.28,0,0,1,53.09,248,.5.5,0,0,1,52.65,248.24Z"/><path class="cls-2" d="M61.35,229.26s1,5.49.46,9.21a16.51,16.51,0,0,1-1.89,5.81Z"/><path class="cls-3" d="M59.92,244.78a.42.42,0,0,1-.26-.08.49.49,0,0,1-.16-.68,16.53,16.53,0,0,0,1.82-5.62c.55-3.6-.45-9-.46-9a.51.51,0,0,1,.4-.59.5.5,0,0,1,.58.4c0,.23,1,5.61.46,9.38a16.94,16.94,0,0,1-1.95,6A.51.51,0,0,1,59.92,244.78Z"/><path class="cls-2" d="M97.31,111.36c-16.55,19.21-18.56,21.18-35.11,40.39a12.76,12.76,0,0,0-2.07,3.35l-.09.16c-11.31,22.7-20,40.11-23.58,47.3l22.69,11.32c2-3.74,12.13-24.33,23.35-46.84,15.52-18,17.23-20,33.41-38.79Z"/><path class="cls-3" d="M59.15,214.38a.43.43,0,0,1-.22-.06L36.23,203a.5.5,0,0,1-.22-.67l23.65-47.42a13,13,0,0,1,2.17-3.49c8.27-9.61,13-15,17.54-20.2s9.28-10.59,17.56-20.2a.5.5,0,1,1,.75.65c-8.27,9.61-13,15-17.56,20.21s-9.27,10.59-17.54,20.19a12.5,12.5,0,0,0-2,3.21l-.07.14L37.13,202.34l21.8,10.87c1.47-2.87,5.68-11.33,11.38-22.8l11.74-23.59a.36.36,0,0,1,.07-.1l33.41-38.8a.49.49,0,0,1,.7,0,.51.51,0,0,1,0,.71L82.92,167.32,71.21,190.85c-6,12.14-10.39,20.91-11.62,23.26A.5.5,0,0,1,59.15,214.38Z"/><path class="cls-3" d="M115.91,136.49h-.1l-5.68-1.14a.5.5,0,0,1,.19-1L116,135.5a.5.5,0,0,1,.4.59A.51.51,0,0,1,115.91,136.49Z"/><path class="cls-2" d="M202.1,129.63l-6.32,3.86Z"/><path class="cls-3" d="M195.78,134a.52.52,0,0,1-.43-.24.5.5,0,0,1,.17-.69l6.31-3.85a.5.5,0,0,1,.53.85L196,133.91A.5.5,0,0,1,195.78,134Z"/></g><g id="woman"><rect class="cls-2" x="242.28" y="392.97" width="127.4" height="19.02"/><path class="cls-3" d="M369.68,412.49H242.28a.5.5,0,0,1-.5-.5V393a.5.5,0,0,1,.5-.5h127.4a.5.5,0,0,1,.5.5v19A.5.5,0,0,1,369.68,412.49Zm-126.9-1h126.4v-18H242.78Z"/><path class="cls-2" d="M361.53,317.4l-42.87-27.09a12.16,12.16,0,0,1,13-20.57l42.88,27.09a12.17,12.17,0,0,1-13,20.57Z"/><path class="cls-3" d="M368,319.78a12.58,12.58,0,0,1-6.76-2l-42.87-27.08a12.67,12.67,0,1,1,13.53-21.42l42.87,27.09A12.66,12.66,0,0,1,368,319.78Zm-42.86-51.42a11.67,11.67,0,0,0-6.24,21.53L361.8,317a11.67,11.67,0,0,0,12.46-19.73l-42.88-27.08A11.65,11.65,0,0,0,325.16,268.36Z"/><path class="cls-2" d="M270.93,286.86a13.36,13.36,0,0,1,11.73-13.15l37.5-5.79c9.66-1.49,20.47,8.28,20,18.12l-3.47,78.33.12.27-68.61,15.13Z"/><path class="cls-3" d="M268.24,380.27a.49.49,0,0,1-.32-.12.5.5,0,0,1-.18-.4l2.69-92.9a13.92,13.92,0,0,1,12.15-13.63l37.5-5.79c5.12-.8,11.08,1.56,15.35,6,3.54,3.7,5.46,8.29,5.26,12.6l-3.46,78.22.08.17a.51.51,0,0,1,0,.42.5.5,0,0,1-.34.26l-68.6,15.12Zm53.92-112a13.7,13.7,0,0,0-1.93.14l-37.5,5.79c-6.67,1-11,5.89-11.3,12.68l-2.67,92.26,67.47-14.87L339.7,286a16.59,16.59,0,0,0-5-11.86C331.18,270.47,326.49,268.27,322.16,268.27Z"/><path class="cls-3" d="M302.44,394.63a19.07,19.07,0,0,1-4.6-26.56L347.27,298a19.06,19.06,0,1,1,31.16,22L329,390A19.06,19.06,0,0,1,302.44,394.63Z"/><rect class="cls-3" x="288.24" y="369.98" width="25.13" height="28.03"/><path class="cls-2" d="M276.3,394.42a19.06,19.06,0,0,1-4.6-26.57l49.42-70.12a19.06,19.06,0,1,1,31.16,22l-49.42,70.13A19.07,19.07,0,0,1,276.3,394.42Z"/><path class="cls-3" d="M287.26,398.4a19.56,19.56,0,0,1-16-30.83l49.42-70.13A19.54,19.54,0,0,1,348,292.72,19.55,19.55,0,0,1,352.69,320L303.27,390.1A19.6,19.6,0,0,1,287.26,398.4Zm49.46-108.26A18.6,18.6,0,0,0,321.53,298l-49.42,70.12a18.56,18.56,0,1,0,30.34,21.39l49.42-70.13a18.57,18.57,0,0,0-15.15-29.26Z"/><path class="cls-1" d="M285,273.54a12.15,12.15,0,0,0-15.33,7.8c-7.49,23-33,102.48-33,102.48s-19.93,8.72-29,17.74c-.38.38.21,2,.18,2a3.59,3.59,0,0,0,0,5.24l.06.05a3.57,3.57,0,0,0,3.79.69c9.32-3.85,26.37-7,26.37-7l2.45.76a22.31,22.31,0,0,0-8.1,4.12,2.77,2.77,0,0,0-.52,3.8l0,.05a2.79,2.79,0,0,0,3.75.71c4-2.6,11.65-5.73,16.47-7.59a9.37,9.37,0,0,0,5.64-6.19s27.52-86.17,35-109.31A12.17,12.17,0,0,0,285,273.54Z"/><path class="cls-3" d="M234.18,412.9a3.32,3.32,0,0,1-2.07-5.9,23.23,23.23,0,0,1,6.71-3.72L238,403c-1.55.3-17.39,3.38-26.15,7a4.16,4.16,0,0,1-5.69-3.81,4.08,4.08,0,0,1,1.07-2.78c-.3-1.07-.4-1.81,0-2.22,8.57-8.5,26.83-16.79,29-17.75,1.47-4.59,25.74-80.1,33-102.27a12.62,12.62,0,0,1,12-8.75,12.75,12.75,0,0,1,3.92.62,12.67,12.67,0,0,1,8.13,16c-7.44,22.87-34.76,108.45-35,109.32a9.91,9.91,0,0,1-5.94,6.49c-4.36,1.69-12.3,4.92-16.38,7.55A3.27,3.27,0,0,1,234.18,412.9ZM238.07,402l.15,0,2.45.77a.5.5,0,0,1,.35.49.51.51,0,0,1-.38.47,21.75,21.75,0,0,0-7.91,4,2.32,2.32,0,0,0,1.45,4.11,2.32,2.32,0,0,0,1.23-.36c4-2.54,11.19-5.56,16.56-7.64a8.9,8.9,0,0,0,5.34-5.85c.28-.88,27.61-86.46,35.05-109.34a11.67,11.67,0,0,0-22.19-7.21c-7.4,22.75-32.76,101.68-33,102.48a.5.5,0,0,1-.27.3c-.2.09-19.95,8.78-28.89,17.64a4.59,4.59,0,0,0,.26,1.32c.07.25.14.49-.09.71a3.13,3.13,0,0,0,3.35,5.14c9.26-3.81,26.29-7,26.47-7.06Z"/><path class="cls-3" d="M415.58,239.06l-3.4-10.33-4,2.08,1.14,2.48L408,234l-.22-3.07L401,229.17l-1.59,2-9.36,11.55,8.52,23.46,3.89-6.61,4-13.54,2.1-3.39,1.42,3.1a1.65,1.65,0,0,0,3.07-1.2l-.07-.22a1.63,1.63,0,0,0,1.21.06,1.65,1.65,0,0,0,1.05-2.07l-.43-1.31A1.62,1.62,0,0,0,415.58,239.06ZM408,234.34l.27.57-.22.11Z"/><path class="cls-1" d="M413.28,228.34a2.84,2.84,0,0,0-1.67-1.8l-10.39-4.14a5.07,5.07,0,0,0-5.32,1.07l-9,8.84a5,5,0,0,0-1.41,2.6l-7.61,26c-11.63,21.38-10.84,19.91-22.47,41.28a12.16,12.16,0,1,0,21.37,11.63l21.45-39.4s4.6-14.25,4.79-14.54a.31.31,0,0,0,.06-.13l4-13.47,2.06-3.32a.59.59,0,0,0,0-.55l-3.69-8.4a.55.55,0,0,0-.25-.27L400.3,231l.95-1.12,8.57,2.18a2.9,2.9,0,0,0,3.13-1.24A2.86,2.86,0,0,0,413.28,228.34Z"/><path class="cls-3" d="M366.06,320.64a12.71,12.71,0,0,1-6-1.55A12.66,12.66,0,0,1,355,301.92l22.44-41.24,7.6-25.91a5.37,5.37,0,0,1,1.54-2.81l9-8.85a5.66,5.66,0,0,1,5.85-1.17l10.38,4.13a3.37,3.37,0,0,1,1.58,5,3.41,3.41,0,0,1-2.86,1.56,3.23,3.23,0,0,1-.82-.1l-8.26-2.11-.35.42,4.37,2.45a1,1,0,0,1,.46.51l3.7,8.4a1.07,1.07,0,0,1-.07,1l-2,3.26-4,13.41a1,1,0,0,1-.11.25c-.21.46-3,8.89-4.75,14.43l-1.19,2.21L377.2,314A12.68,12.68,0,0,1,366.06,320.64Zm33.36-98.08a4.55,4.55,0,0,0-3.17,1.27l-9,8.84A4.5,4.5,0,0,0,386,235l-7.62,26,0,.09-22.47,41.28a11.67,11.67,0,1,0,20.49,11.16l21.45-39.41c3-9.42,4.67-14.35,4.82-14.58l4-13.46a.31.31,0,0,1,.06-.13l2.05-3.32L405,234.17l-4.94-2.78a.51.51,0,0,1-.25-.35.47.47,0,0,1,.11-.41l.95-1.13a.51.51,0,0,1,.51-.16l8.56,2.19a2.43,2.43,0,0,0,2.59-1,2.37,2.37,0,0,0-1.1-3.5L401,222.87A4.44,4.44,0,0,0,399.42,222.56Z"/><path class="cls-2" d="M369.56,274l-15.05,27.65a13.16,13.16,0,1,0,23.13,12.58l16.52-30.38C394.13,284,369.56,274,369.56,274Z"/><path class="cls-3" d="M366.06,321.64a13.69,13.69,0,0,1-6.52-1.67,13.69,13.69,0,0,1-5.47-18.53l15.05-27.65a.49.49,0,0,1,.62-.22c6.56,2.65,23.67,9.55,24.53,9.82a.5.5,0,0,1,.33.72L378.08,314.5A13.68,13.68,0,0,1,366.06,321.64Zm3.72-47L355,301.92A12.66,12.66,0,1,0,377.2,314l16.25-29.88C391.9,283.56,386.84,281.56,369.78,274.66Z"/><path class="cls-2" d="M423.64,241a2.92,2.92,0,0,1-1.54-.14l-44.43-16.66a2.92,2.92,0,0,1,2.05-5.46l44.42,16.66a2.91,2.91,0,0,1-.5,5.6Z"/><path class="cls-3" d="M423.12,241.5a3.31,3.31,0,0,1-1.2-.22L377.5,224.62a3.42,3.42,0,0,1,1.2-6.62,3.48,3.48,0,0,1,1.19.22l44.43,16.67a3.41,3.41,0,0,1-.59,6.55A3.15,3.15,0,0,1,423.12,241.5ZM378.7,219a2.42,2.42,0,0,0-.85,4.68l44.42,16.67a2.42,2.42,0,0,0,1.7-4.53l-44.43-16.66A2.45,2.45,0,0,0,378.7,219Z"/><path class="cls-1" d="M388.11,243.61l6.27-2.91,11.84-10.24a2.72,2.72,0,0,1,3.86,3.8L400,246.31l-.29,12.12-1.05,7.72Z"/><path class="cls-3" d="M398.62,266.65h-.07a.5.5,0,0,1-.43-.57l1-7.71.29-12.08a.59.59,0,0,1,.12-.31l10.13-12a2.23,2.23,0,0,0-.23-3.06,2.2,2.2,0,0,0-2.92,0l-11.84,10.24a.36.36,0,0,1-.12.08l-6.27,2.9a.49.49,0,0,1-.66-.24.5.5,0,0,1,.24-.67l6.21-2.87,11.78-10.2a3.22,3.22,0,0,1,4.57,4.5l-10,11.91-.29,11.95-1.05,7.78A.5.5,0,0,1,398.62,266.65Z"/><path class="cls-1" d="M383.88,349l3,19.92s30,16.68,37.41,21,12.37,6.74,12.37,12.06V409H353.84l-1.34-57.09Z"/><path class="cls-3" d="M436.63,409.45H353.85a.49.49,0,0,1-.5-.49L352,351.88a.5.5,0,0,1,.46-.51l31.38-2.84a.51.51,0,0,1,.54.43l2.93,19.68c2.73,1.51,30.24,16.8,37.21,20.89l1.79,1.05c6.51,3.78,10.82,6.28,10.82,11.44V409A.51.51,0,0,1,436.63,409.45Zm-82.3-1h81.8V402c0-4.59-4.11-7-10.32-10.58l-1.8-1.05c-7.28-4.27-37.1-20.83-37.4-21a.47.47,0,0,1-.25-.36l-2.9-19.46L353,352.32Z"/><path class="cls-2" d="M384.19,373.7a2.67,2.67,0,1,1,2.66,2.66A2.66,2.66,0,0,1,384.19,373.7Z"/><path class="cls-3" d="M386.85,376.86A3.16,3.16,0,1,1,390,373.7,3.17,3.17,0,0,1,386.85,376.86Zm0-5.32A2.16,2.16,0,1,0,389,373.7,2.16,2.16,0,0,0,386.85,371.54Z"/><path class="cls-2" d="M394.89,380.66a2.67,2.67,0,1,1,2.67,2.66A2.68,2.68,0,0,1,394.89,380.66Z"/><path class="cls-3" d="M397.56,383.82a3.17,3.17,0,1,1,3.16-3.16A3.17,3.17,0,0,1,397.56,383.82Zm0-5.33a2.17,2.17,0,1,0,2.16,2.17A2.17,2.17,0,0,0,397.56,378.49Z"/><path class="cls-2" d="M406,388.33a2.66,2.66,0,1,1,2.66,2.66A2.67,2.67,0,0,1,406,388.33Z"/><path class="cls-3" d="M408.65,391.49a3.17,3.17,0,1,1,3.16-3.16A3.16,3.16,0,0,1,408.65,391.49Zm0-5.33a2.17,2.17,0,1,0,2.16,2.17A2.17,2.17,0,0,0,408.65,386.16Z"/><path class="cls-2" d="M409,388.89c1,0,2.18-1.11,3.52-2.37.79-.74,2.25-2.12,2.69-2a.6.6,0,0,0,.84-.17.61.61,0,0,0-.17-.85c-1.1-.75-2.53.6-4.19,2.16-.79.74-2.29,2.12-2.7,2-.2-.35.54-2.23.93-3.24.83-2.12,1.55-3.95.45-4.7s-2.52.61-4.19,2.17c-.79.74-2.23,2.1-2.69,2-.2-.35.53-2.23.93-3.24.83-2.12,1.54-3.95.45-4.69s-2.53.6-4.2,2.16c-.79.74-2.23,2.1-2.69,2-.2-.35.53-2.22.92-3.23.83-2.13,1.55-4,.46-4.7s-2.54.61-4.2,2.16c-.79.74-2.21,2.13-2.69,2-.21-.35.52-2.23.92-3.24.83-2.12,1.54-4,.45-4.7s-2.53.61-4.2,2.16c-.79.74-2.25,2.12-2.7,2a.6.6,0,0,0-.84.16.63.63,0,0,0,.18.86c1.09.74,2.53-.61,4.19-2.16.79-.74,2.25-2.13,2.7-2,.2.35-.53,2.23-.92,3.24-.83,2.12-1.54,4-.45,4.7s2.53-.61,4.2-2.16c.76-.72,2.18-2,2.65-2,.24.35-.49,2.23-.88,3.23-.83,2.13-1.55,4-.46,4.7s2.53-.6,4.2-2.16c.79-.74,2.2-2.12,2.69-2,.2.35-.53,2.22-.92,3.23-.83,2.12-1.55,4-.46,4.7s2.53-.61,4.2-2.17c.79-.74,2.24-2.13,2.69-2,.2.34-.54,2.22-.93,3.23-.83,2.12-1.55,3.95-.45,4.7A1.19,1.19,0,0,0,409,388.89Z"/><path class="cls-3" d="M409,389.39a1.64,1.64,0,0,1-.95-.29c-1.43-1-.6-3.07.27-5.29.17-.44.58-1.51.79-2.24-.51.42-1.26,1.12-1.61,1.45l-.14.14c-1.44,1.34-2.68,2.5-3.86,2.5a1.64,1.64,0,0,1-1-.29c-1.42-1-.6-3.07.27-5.29.17-.44.59-1.51.8-2.24-.51.41-1.23,1.08-1.56,1.4l-.2.19c-1.45,1.35-2.68,2.5-3.86,2.5a1.74,1.74,0,0,1-1-.29c-1.42-1-.6-3.07.27-5.29.17-.44.57-1.48.78-2.2-.59.46-1.41,1.23-1.74,1.54-1.44,1.35-2.68,2.51-3.87,2.51a1.65,1.65,0,0,1-.95-.3c-1.43-1-.6-3.07.26-5.29.18-.45.59-1.52.8-2.24-.53.42-1.31,1.15-1.67,1.49l-.1.09c-1.44,1.35-2.68,2.51-3.86,2.51a1.68,1.68,0,0,1-1-.3,1.15,1.15,0,0,1-.47-.72,1.1,1.1,0,0,1,.17-.83,1.13,1.13,0,0,1,1.38-.39,17.64,17.64,0,0,0,2.14-1.81l.09-.08c1.44-1.35,2.68-2.51,3.86-2.51a1.68,1.68,0,0,1,1,.3c1.42,1,.6,3.07-.27,5.29-.17.44-.59,1.52-.8,2.25.5-.4,1.21-1.07,1.54-1.38l.23-.21c1.43-1.35,2.68-2.51,3.86-2.51a1.65,1.65,0,0,1,1,.3c1.42,1,.6,3.06-.27,5.29-.17.44-.58,1.49-.79,2.21.57-.45,1.4-1.22,1.73-1.54,1.46-1.36,2.7-2.52,3.88-2.52a1.72,1.72,0,0,1,1,.29c1.42,1,.6,3.07-.27,5.3-.17.43-.58,1.48-.79,2.21.56-.45,1.36-1.2,1.69-1.51,1.5-1.4,2.74-2.56,3.92-2.56a1.66,1.66,0,0,1,.95.29c1.43,1,.6,3.07-.27,5.3-.16.42-.56,1.44-.78,2.17a21.21,21.21,0,0,0,1.74-1.53c1.46-1.36,2.69-2.5,3.86-2.5a1.72,1.72,0,0,1,1,.29,1.13,1.13,0,0,1,.31,1.55,1.14,1.14,0,0,1-1.39.39,17.59,17.59,0,0,0-2.11,1.8l-.11.1C411.45,388.23,410.21,389.39,409,389.39Zm.66-9.14.16,0a.48.48,0,0,1,.32.24c.25.43,0,1.25-.89,3.66-.72,1.84-1.4,3.59-.64,4.1s2.18-.81,3.57-2.11l.1-.1c1.59-1.49,2.43-2.19,3-2.06a.48.48,0,0,1,.18.07c.1,0,.13,0,.15,0a.13.13,0,0,0,0-.16c-.79-.53-2.1.74-3.54,2.09-2,1.84-2.6,2.2-3,2.2h-.14a.51.51,0,0,1-.33-.24c-.25-.44-.05-1.26.89-3.66.72-1.85,1.41-3.59.64-4.11s-2.18.81-3.57,2.11c-1.62,1.53-2.48,2.26-3.1,2.17a.47.47,0,0,1-.36-.24c-.25-.44-.05-1.26.89-3.67.72-1.84,1.4-3.58.64-4.1s-2.18.81-3.57,2.11c-1.61,1.51-2.52,2.24-3.11,2.17a.49.49,0,0,1-.36-.25c-.25-.43-.05-1.25.89-3.66.72-1.85,1.4-3.59.64-4.11s-2.19.82-3.58,2.12l-.22.21c-1.41,1.33-2.19,2-2.76,2h-.15a.51.51,0,0,1-.33-.24c-.26-.43-.06-1.25.88-3.67.72-1.84,1.4-3.58.64-4.1s-2.12.74-3.57,2.1l-.1.09c-1.6,1.5-2.46,2.19-3,2.08a.64.64,0,0,1-.19-.08c-.07,0-.11,0-.14,0l0,.16c.79.54,2.11-.74,3.56-2.09l.11-.11c1.6-1.5,2.45-2.19,3-2.07a.51.51,0,0,1,.33.24c.26.43.07,1.22-.88,3.65-.72,1.86-1.4,3.61-.64,4.12s2.18-.81,3.57-2.11c1.76-1.64,2.49-2.17,3-2.17a.51.51,0,0,1,.41.21c.31.44.12,1.27-.82,3.7-.73,1.86-1.41,3.59-.65,4.11s2.11-.74,3.56-2.1l.22-.2c1.5-1.41,2.31-2.08,2.92-2a.47.47,0,0,1,.34.24c.25.43.06,1.25-.88,3.65-.73,1.85-1.41,3.6-.65,4.11s2.18-.81,3.57-2.11l.15-.14C408.31,380.91,409.12,380.25,409.68,380.25Z"/><path class="cls-3" d="M384.82,409a31.67,31.67,0,0,0-31-38.25v20A11.66,11.66,0,0,1,363.47,409Z"/><rect class="cls-2" x="353.84" y="404.06" width="82.78" height="8.14"/><path class="cls-3" d="M436.63,412.69H353.85a.5.5,0,0,1-.5-.5v-8.13a.5.5,0,0,1,.5-.5h82.78a.5.5,0,0,1,.5.5v8.13A.5.5,0,0,1,436.63,412.69Zm-82.28-1h81.78v-7.13H354.35Z"/><path class="cls-1" d="M360.58,289.77a19.08,19.08,0,0,1,21.11,16.77c2.19,18.58,6.93,56.49,6.93,56.49l-36.9,8s-6.31-46.55-7.9-60.16A19,19,0,0,1,360.58,289.77Z"/><path class="cls-3" d="M351.72,371.54a.48.48,0,0,1-.29-.1.48.48,0,0,1-.21-.34c-.06-.46-6.33-46.71-7.9-60.16a19.56,19.56,0,0,1,17.21-21.67,21,21,0,0,1,2.24-.13,19.61,19.61,0,0,1,19.42,17.34c2.17,18.36,6.87,56.11,6.92,56.49a.49.49,0,0,1-.39.55l-36.9,8Zm11-81.4a19.17,19.17,0,0,0-2.13.13,18.55,18.55,0,0,0-16.33,20.55c1.48,12.66,7.12,54.38,7.83,59.61l35.92-7.79c-.54-4.35-4.83-38.77-6.87-56A18.59,18.59,0,0,0,362.77,290.14Z"/><path class="cls-3" d="M207.14,408.41a.51.51,0,0,1-.42-.23.5.5,0,0,1,.15-.69c.6-.39,14.92-9.66,25.4-10.49a.51.51,0,0,1,.54.46.5.5,0,0,1-.46.54c-10.23.8-24.79,10.23-24.93,10.33A.57.57,0,0,1,207.14,408.41Z"/><path class="cls-3" d="M207.82,404.08a.49.49,0,0,1-.41-.21.5.5,0,0,1,.13-.7c.59-.41,14.54-10,20.61-10.7a.5.5,0,0,1,.11,1c-5.82.63-20,10.42-20.15,10.52A.52.52,0,0,1,207.82,404.08Z"/><path class="cls-3" d="M234,412.49a.48.48,0,0,1-.4-.2l-2.1-2.81a.5.5,0,0,1,.07-.68c.23-.19,2.25-1.87,3.87-1.87a1.75,1.75,0,0,1,1.45.67,1.81,1.81,0,0,1,.36,1.5c-.31,1.67-2.72,3.16-3,3.32A.47.47,0,0,1,234,412.49Zm-1.41-3.22,1.53,2.05c.76-.52,2-1.53,2.15-2.41a.79.79,0,0,0-.17-.69.73.73,0,0,0-.66-.29A6.09,6.09,0,0,0,232.61,409.27Z"/><path class="cls-2" d="M266.08,388.45a31.37,31.37,0,0,0-3.76-4.46c-.36,1.14-.71,2.23-1,3.25a27.26,27.26,0,0,1,2.32,2.9c1.84,2.71,2,4.38,1.55,5a2.48,2.48,0,0,1-2,.61,14,14,0,0,1-4.32-.87,38.84,38.84,0,0,1-9.65-5.22,36.67,36.67,0,0,1-8.64-8.46,8.59,8.59,0,0,1-1.74-4.05,1.44,1.44,0,0,1,.19-.93.91.91,0,0,1,.17-.17c.33-1,.7-2.18,1.09-3.41a4.74,4.74,0,0,0-3.69,1.83c-.9,1.25-1.44,3.49.77,7.26.21.37.46.76.73,1.16a39.47,39.47,0,0,0,9.37,9.2,41,41,0,0,0,10.49,5.63,16.55,16.55,0,0,0,5.23,1c2.54,0,3.8-1,4.41-1.86C268.57,395.5,269.12,392.93,266.08,388.45Z"/><path class="cls-3" d="M263.17,399.23a16.65,16.65,0,0,1-5.39-1.06,41.58,41.58,0,0,1-10.62-5.69,39.75,39.75,0,0,1-9.49-9.33c-.28-.41-.54-.81-.75-1.19-2.36-4-1.71-6.46-.75-7.8a5.26,5.26,0,0,1,4.06-2,.5.5,0,0,1,.43.19.48.48,0,0,1,.09.46l-.53,1.64c-.2.62-.39,1.21-.56,1.77a.51.51,0,0,1-.19.26.3.3,0,0,0-.07.08,1,1,0,0,0-.08.58,7.86,7.86,0,0,0,1.65,3.8,36.42,36.42,0,0,0,8.52,8.34,38.67,38.67,0,0,0,9.52,5.15,13.39,13.39,0,0,0,4.16.84c.95,0,1.44-.21,1.58-.4s.33-1.63-1.56-4.41a27.79,27.79,0,0,0-2.28-2.84.49.49,0,0,1-.1-.49c.32-1,.67-2.11,1-3.25a.5.5,0,0,1,.36-.33.46.46,0,0,1,.47.13,31.38,31.38,0,0,1,3.82,4.53c3.2,4.71,2.58,7.49,1.5,9C267.31,398.11,265.92,399.23,263.17,399.23Zm-23.62-26a4,4,0,0,0-2.56,1.52c-1.14,1.58-.86,3.9.79,6.72.21.36.45.74.72,1.13a39,39,0,0,0,9.24,9.08,41.19,41.19,0,0,0,10.36,5.56,16.32,16.32,0,0,0,5.07,1c2.33,0,3.46-.9,4-1.65,1.29-1.78.77-4.5-1.5-7.85a29.14,29.14,0,0,0-3.12-3.79c-.24.75-.48,1.48-.7,2.18a28.26,28.26,0,0,1,2.16,2.74c1.69,2.49,2.27,4.57,1.54,5.56s-3.46,1.08-6.86-.09a39.19,39.19,0,0,1-9.78-5.28,37,37,0,0,1-8.76-8.59,9.11,9.11,0,0,1-1.83-4.31,2,2,0,0,1,.28-1.24l.15-.16c.16-.53.34-1.07.52-1.64Z"/><path class="cls-1" d="M357.86,349l3,19.92s30,16.68,37.41,21,12.37,6.74,12.37,12.06V409H327.83l-1.35-57.09Z"/><path class="cls-3" d="M410.61,409.45H327.83a.49.49,0,0,1-.5-.49L326,351.88a.5.5,0,0,1,.46-.51l31.38-2.84a.52.52,0,0,1,.54.43l2.93,19.68c2.73,1.51,30.24,16.8,37.21,20.89l1.79,1c6.52,3.79,10.82,6.29,10.82,11.45V409A.5.5,0,0,1,410.61,409.45Zm-82.3-1h81.8V402c0-4.59-4.11-7-10.32-10.58l-1.8-1.05c-7.28-4.27-37.1-20.83-37.4-21a.5.5,0,0,1-.25-.36l-2.9-19.46L327,352.32Z"/><path class="cls-2" d="M358.17,373.7a2.67,2.67,0,1,1,2.66,2.66A2.67,2.67,0,0,1,358.17,373.7Z"/><path class="cls-3" d="M360.83,376.86A3.16,3.16,0,1,1,364,373.7,3.17,3.17,0,0,1,360.83,376.86Zm0-5.32A2.16,2.16,0,1,0,363,373.7,2.16,2.16,0,0,0,360.83,371.54Z"/><path class="cls-2" d="M368.88,380.66a2.66,2.66,0,1,1,2.66,2.66A2.67,2.67,0,0,1,368.88,380.66Z"/><path class="cls-3" d="M371.54,383.82a3.17,3.17,0,1,1,3.16-3.16A3.16,3.16,0,0,1,371.54,383.82Zm0-5.33a2.17,2.17,0,1,0,2.16,2.17A2.17,2.17,0,0,0,371.54,378.49Z"/><path class="cls-2" d="M380,388.33a2.66,2.66,0,1,1,2.66,2.66A2.67,2.67,0,0,1,380,388.33Z"/><path class="cls-3" d="M382.63,391.49a3.17,3.17,0,1,1,3.16-3.16A3.17,3.17,0,0,1,382.63,391.49Zm0-5.33a2.17,2.17,0,1,0,2.16,2.17A2.17,2.17,0,0,0,382.63,386.16Z"/><path class="cls-2" d="M383,388.89c1,0,2.18-1.11,3.52-2.37.79-.74,2.25-2.12,2.69-2a.6.6,0,0,0,.84-.17.61.61,0,0,0-.17-.85c-1.1-.75-2.53.6-4.19,2.16-.79.74-2.29,2.12-2.69,2-.21-.35.53-2.23.92-3.24.83-2.12,1.55-3.95.45-4.7s-2.52.61-4.19,2.17c-.79.74-2.23,2.1-2.69,2-.2-.35.53-2.23.93-3.24.83-2.12,1.54-3.95.45-4.69s-2.53.6-4.2,2.16c-.79.74-2.23,2.1-2.69,2-.2-.35.53-2.22.93-3.23.83-2.13,1.54-4,.45-4.7s-2.54.61-4.2,2.16c-.79.74-2.21,2.13-2.69,2-.21-.35.53-2.23.92-3.24.83-2.12,1.54-4,.45-4.7s-2.53.61-4.2,2.16c-.79.74-2.25,2.12-2.69,2a.61.61,0,0,0-.85.16.63.63,0,0,0,.18.86c1.09.74,2.53-.61,4.19-2.16.8-.74,2.26-2.13,2.7-2,.21.35-.53,2.23-.92,3.24-.83,2.12-1.54,4-.45,4.7s2.53-.61,4.2-2.16c.77-.72,2.18-2,2.65-2,.24.35-.49,2.23-.88,3.23-.83,2.13-1.55,4-.45,4.7s2.53-.6,4.19-2.16c.79-.74,2.2-2.12,2.69-2,.21.35-.53,2.22-.92,3.23-.83,2.12-1.55,4-.46,4.7s2.53-.61,4.2-2.17c.79-.74,2.24-2.13,2.69-2,.2.34-.53,2.22-.93,3.23-.83,2.12-1.54,3.95-.45,4.7A1.19,1.19,0,0,0,383,388.89Z"/><path class="cls-3" d="M383,389.39a1.64,1.64,0,0,1-.95-.29c-1.42-1-.6-3.07.26-5.29.39-1,.66-1.74.81-2.24-.52.42-1.27,1.13-1.62,1.45l-.14.14c-1.44,1.34-2.68,2.5-3.86,2.5a1.59,1.59,0,0,1-.95-.29c-1.43-1-.61-3.07.26-5.29.17-.44.59-1.51.8-2.24-.51.41-1.22,1.08-1.56,1.4l-.2.19c-1.44,1.35-2.68,2.5-3.86,2.5a1.74,1.74,0,0,1-1-.29c-1.42-1-.6-3.07.27-5.3.17-.43.58-1.47.78-2.19-.59.46-1.41,1.23-1.74,1.54-1.44,1.35-2.68,2.51-3.86,2.51a1.65,1.65,0,0,1-1-.3c-1.43-1-.6-3.07.26-5.29.18-.45.59-1.52.8-2.24-.54.44-1.34,1.19-1.67,1.49l-.09.09c-1.45,1.35-2.68,2.51-3.86,2.51a1.65,1.65,0,0,1-1-.3,1.11,1.11,0,0,1-.31-1.55,1.13,1.13,0,0,1,1.38-.39,17.79,17.79,0,0,0,2.14-1.81l.09-.08c1.44-1.35,2.68-2.51,3.86-2.51a1.65,1.65,0,0,1,1,.3c1.42,1,.6,3.07-.27,5.29-.17.44-.59,1.52-.8,2.25.51-.4,1.22-1.07,1.55-1.39l.22-.2c1.44-1.35,2.68-2.51,3.86-2.51a1.65,1.65,0,0,1,1,.3c1.42,1,.6,3.06-.27,5.29-.17.44-.58,1.49-.79,2.21.57-.45,1.39-1.21,1.72-1.53,1.47-1.37,2.71-2.53,3.89-2.53a1.72,1.72,0,0,1,1,.29c1.42,1,.6,3.07-.27,5.3-.17.43-.58,1.48-.79,2.21.56-.45,1.35-1.19,1.68-1.5l.07-.07c1.44-1.34,2.68-2.5,3.86-2.5a1.66,1.66,0,0,1,.95.29c1.43,1,.61,3.07-.26,5.3-.17.43-.57,1.45-.79,2.17.36-.28.91-.74,1.75-1.53,1.45-1.36,2.68-2.5,3.85-2.5a1.72,1.72,0,0,1,1,.29,1.11,1.11,0,0,1-1.07,1.94,16.86,16.86,0,0,0-2.12,1.8l-.11.1C385.43,388.23,384.19,389.39,383,389.39Zm.66-9.14.16,0a.48.48,0,0,1,.32.24c.25.43.05,1.25-.89,3.66-.72,1.85-1.4,3.59-.64,4.1s2.18-.81,3.57-2.11l.1-.1c1.59-1.49,2.43-2.19,3-2.06a.62.62,0,0,1,.19.07c.09,0,.12,0,.14,0a.13.13,0,0,0,0-.16c-.79-.53-2.1.74-3.54,2.08-2,1.85-2.6,2.21-3,2.21h-.14a.56.56,0,0,1-.33-.24c-.25-.44-.06-1.22.89-3.65.73-1.86,1.41-3.6.64-4.12s-2.18.81-3.57,2.11l-.07.07c-1.59,1.49-2.41,2.2-3,2.1a.47.47,0,0,1-.36-.25c-.25-.43-.05-1.25.89-3.66.72-1.84,1.4-3.58.64-4.1s-2.18.81-3.57,2.11c-1.62,1.51-2.51,2.24-3.11,2.17a.49.49,0,0,1-.36-.25c-.25-.43-.05-1.25.89-3.66.72-1.85,1.4-3.59.64-4.11s-2.19.82-3.58,2.12l-.21.2c-1.5,1.41-2.31,2.09-2.92,2a.51.51,0,0,1-.33-.24c-.26-.43-.06-1.25.88-3.67.72-1.84,1.4-3.59.64-4.1s-2.12.74-3.57,2.1l-.1.09c-1.6,1.49-2.45,2.19-3,2.08a.64.64,0,0,1-.19-.08c-.07,0-.11,0-.14,0l0,.16c.79.54,2.11-.74,3.56-2.09l.11-.1c1.59-1.5,2.43-2.2,3-2.08a.51.51,0,0,1,.33.24c.26.43.07,1.22-.88,3.65-.72,1.86-1.4,3.61-.64,4.12s2.18-.81,3.57-2.11c1.76-1.64,2.49-2.17,3-2.17a.49.49,0,0,1,.41.21c.31.44.12,1.27-.82,3.7-.73,1.85-1.41,3.59-.64,4.11s2.1-.74,3.55-2.1l.22-.2c1.5-1.41,2.31-2.08,2.92-2a.49.49,0,0,1,.35.24c.25.43.05,1.25-.89,3.65-.73,1.85-1.41,3.6-.65,4.11s2.12-.75,3.58-2.11l.14-.14C382.29,380.91,383.1,380.25,383.66,380.25Z"/><rect class="cls-2" x="327.83" y="404.06" width="82.78" height="8.14"/><path class="cls-3" d="M410.61,412.69H327.83a.5.5,0,0,1-.5-.5v-8.13a.5.5,0,0,1,.5-.5h82.78a.5.5,0,0,1,.5.5v8.13A.5.5,0,0,1,410.61,412.69Zm-82.28-1h81.78v-7.13H328.33Z"/><path class="cls-2" d="M334.56,289.77a19.08,19.08,0,0,1,21.11,16.77c2.2,18.58,6.93,56.49,6.93,56.49l-36.9,8s-6.31-46.55-7.9-60.16A19,19,0,0,1,334.56,289.77Z"/><path class="cls-3" d="M325.7,371.54a.53.53,0,0,1-.29-.1.51.51,0,0,1-.21-.34c-.06-.46-6.32-46.71-7.9-60.16a19.56,19.56,0,0,1,17.21-21.67,21.06,21.06,0,0,1,2.25-.13,19.6,19.6,0,0,1,19.41,17.34c2.17,18.36,6.88,56.11,6.92,56.49a.48.48,0,0,1-.39.55l-36.9,8Zm11.06-81.4a19.2,19.2,0,0,0-2.14.13,18.55,18.55,0,0,0-16.33,20.55c1.49,12.66,7.12,54.38,7.83,59.61L362,362.64c-.54-4.35-4.82-38.77-6.86-56A18.6,18.6,0,0,0,336.76,290.14Z"/><path class="cls-2" d="M427.52,237.24l-3.87-1.45a2.33,2.33,0,0,0-1.62,4.37l4,1.51a2.37,2.37,0,0,0,1.23.11,2.33,2.33,0,0,0,1.83-1.65A2.45,2.45,0,0,0,427.52,237.24Z"/><path class="cls-3" d="M426.86,242.32a2.8,2.8,0,0,1-1-.18l-4-1.51a2.83,2.83,0,1,1,2-5.31l3.87,1.46a2.93,2.93,0,0,1,1.88,3.49,2.81,2.81,0,0,1-2.22,2A2.73,2.73,0,0,1,426.86,242.32Zm-4-6.18A1.82,1.82,0,0,0,421,238a1.85,1.85,0,0,0,1.17,1.75l4,1.5a1.75,1.75,0,0,0,1,.09,1.83,1.83,0,0,0,1.44-1.3,2,2,0,0,0-1.27-2.28l-3.88-1.45A1.72,1.72,0,0,0,422.84,236.14Z"/><path class="cls-2" d="M293.79,289.18a13.17,13.17,0,0,0-25-8.15l-24.91,80.51L267.45,370l18.71-57.41Z"/><path class="cls-3" d="M267.45,370.47a.47.47,0,0,1-.17,0L243.67,362a.5.5,0,0,1-.31-.62l24.91-80.5a13.66,13.66,0,1,1,26,8.44.49.49,0,0,1-.63.32.5.5,0,0,1-.32-.63,12.67,12.67,0,0,0-24.09-7.83l-24.76,80,22.67,8.1,18.55-56.91a.5.5,0,0,1,1,.31l-18.72,57.4a.48.48,0,0,1-.25.29A.44.44,0,0,1,267.45,370.47Z"/><path class="cls-3" d="M448,412.9H232.31a.5.5,0,0,1-.5-.5.5.5,0,0,1,.5-.5H448a.5.5,0,0,1,.5.5A.5.5,0,0,1,448,412.9Z"/><path class="cls-3" d="M463,412.9h-9.5a.5.5,0,0,1-.5-.5.5.5,0,0,1,.5-.5H463a.5.5,0,0,1,.5.5A.5.5,0,0,1,463,412.9Z"/><path class="cls-3" d="M250.17,211.85s.62,12.62,16.37,14.7c9.35,1.24,21.27-.79,26.56-11.7,6-12.44-5.39-36.08-21.32-33.45-11,1.83-10.6,17.08-10.6,17.08S249.83,204.05,250.17,211.85Z"/><circle class="cls-2" cx="293.28" cy="217.05" r="7.72"/><path class="cls-3" d="M293.28,225.27a8.22,8.22,0,1,1,8.22-8.22A8.23,8.23,0,0,1,293.28,225.27Zm0-15.44a7.22,7.22,0,1,0,7.22,7.22A7.23,7.23,0,0,0,293.28,209.83Z"/><path class="cls-1" d="M318.43,273.26c.62-13,.62-13,1.25-26a9.91,9.91,0,1,0-19.8-1l-1.26,26.05Z"/><path class="cls-3" d="M318.43,273.76a.51.51,0,0,1-.5-.53l1.25-26.05a9.4,9.4,0,0,0-8.95-9.85,9.45,9.45,0,0,0-9.86,8.95l-1.25,26a.47.47,0,0,1-.52.48.51.51,0,0,1-.48-.53l1.26-26a10.41,10.41,0,0,1,20.8,1l-1.25,26A.51.51,0,0,1,318.43,273.76Z"/><path class="cls-3" d="M311.68,267.1a13.17,13.17,0,0,0,7.24-4.17c.22-4.43.36-7.46.76-15.72a9.2,9.2,0,0,0,0-1.05,13.22,13.22,0,0,0-19.47-2,9.32,9.32,0,0,0-.32,2.07c-.43,8.8-.57,11.66-.8,16.61A13.24,13.24,0,0,0,311.68,267.1Z"/><path class="cls-1" d="M301,250.47a53.4,53.4,0,0,1-4.5-4.91l-.29-.37c-.49-.62-.95-1.25-1.38-1.87-7.87-11.38-10.39-24.09,2.16-31.78l.22-.13.25-.15a8.27,8.27,0,0,1,2.28-.85,10,10,0,0,1,3.86,0c6.9,1.17,16.78,7.69,22,17.25,5,9.16,5.35,22.27,1.74,29.51-2.75,5.55-10.48,5.19-18.15,0Z"/><path class="cls-3" d="M320.25,261.68c-3.41,0-7.45-1.47-11.37-4.13l-8.2-6.69a54.2,54.2,0,0,1-4.58-5l-.3-.38c-.53-.68-1-1.3-1.39-1.89-3.77-5.45-7.93-13.56-6.31-21.22,1-4.57,3.86-8.36,8.62-11.28l.42-.26a9.17,9.17,0,0,1,2.49-.93,10.39,10.39,0,0,1,4.05,0c6.83,1.15,17,7.68,22.33,17.5,4.8,8.81,5.59,22.26,1.75,30C326.38,260.15,323.72,261.68,320.25,261.68Zm-18.58-51a8.57,8.57,0,0,0-1.84.19,7.55,7.55,0,0,0-2.14.8l-.45.27c-4.51,2.76-7.26,6.34-8.16,10.62-1.55,7.32,2.49,15.16,6.15,20.45.4.58.85,1.18,1.36,1.85l.29.35a53.41,53.41,0,0,0,4.46,4.87l8.14,6.64c3.72,2.52,7.56,3.93,10.77,3.93s5.4-1.3,6.62-3.75c3.7-7.46,2.92-20.49-1.74-29.05-5.19-9.54-15-15.88-21.62-17A10.77,10.77,0,0,0,301.67,210.71Z"/><path class="cls-3" d="M295.63,246.9s-.12-.13-.32-.39c-.53-.68-1-1.35-1.48-2-10.06-14.69-8.52-25.34-4.21-30.33A15.7,15.7,0,0,1,307,209.33C308.42,210,332.58,218.53,295.63,246.9Z"/><path class="cls-1" d="M304.35,244.44a8.15,8.15,0,0,0-.72-.72c-2.51-2.22-5.86-2.51-7.49-.67s-.93,5.14,1.57,7.36a6.76,6.76,0,0,0,5.19,1.83Z"/><path class="cls-3" d="M302.25,252.78a7.56,7.56,0,0,1-4.87-2c-2.71-2.39-3.43-6-1.62-8.06s5.49-1.77,8.2.62a9.32,9.32,0,0,1,.77.77.5.5,0,0,1-.76.66,7.15,7.15,0,0,0-.67-.68c-2.3-2-5.34-2.34-6.79-.71S295.75,248,298,250a6.25,6.25,0,0,0,4.79,1.72.49.49,0,0,1,.56.43.5.5,0,0,1-.43.56A5.53,5.53,0,0,1,302.25,252.78Z"/><path class="cls-3" d="M319.65,237.62a.88.88,0,1,1-1-.76A.87.87,0,0,1,319.65,237.62Z"/><path class="cls-3" d="M327.31,236.49a.88.88,0,1,1-1-.76A.88.88,0,0,1,327.31,236.49Z"/><path class="cls-3" d="M301.67,230.22l29.25-3.16s-5.55-15.88-20.52-13.7C297.91,215.17,301.67,230.22,301.67,230.22Z"/><path class="cls-3" d="M303.19,248.84h-.08c-1.57-.26-2.11-1.55-2.55-2.58-.27-.65-.51-1.21-.89-1.31a1,1,0,0,0-1.3.52.51.51,0,0,1-.66.27.51.51,0,0,1-.27-.65,2,2,0,0,1,2.49-1.1c.85.22,1.21,1.07,1.55,1.88s.77,1.81,1.79,2a.5.5,0,0,1,.41.58A.49.49,0,0,1,303.19,248.84Z"/><path class="cls-2" d="M305.88,254a3.14,3.14,0,1,1-3.14-3.14A3.13,3.13,0,0,1,305.88,254Z"/><path class="cls-3" d="M302.74,257.65a3.64,3.64,0,1,1,3.64-3.64A3.64,3.64,0,0,1,302.74,257.65Zm0-6.28a2.64,2.64,0,1,0,2.64,2.64A2.64,2.64,0,0,0,302.74,251.37Z"/><path class="cls-3" d="M316.32,236.85a.52.52,0,0,1-.35-.14.49.49,0,0,1,0-.7,3.6,3.6,0,0,1,4.26-.76.5.5,0,1,1-.47.88,2.66,2.66,0,0,0-3.06.56A.48.48,0,0,1,316.32,236.85Z"/><path class="cls-3" d="M324.88,246.87a.5.5,0,0,1-.48-.36.51.51,0,0,1,.34-.62c.46-.13,1.71-.67,2-1.55.21-.72-1.17-3.75-2-5.56-.52-1.16-1-2.17-1.17-2.78-.54-1.74,1-2.86,1.88-3.21a.5.5,0,1,1,.37.93c-.07,0-1.7.7-1.3,2,.18.56.64,1.58,1.13,2.66,1.38,3,2.34,5.26,2.05,6.26-.45,1.59-2.55,2.2-2.64,2.23Z"/><path class="cls-3" d="M282.91,226a7.68,7.68,0,0,1-5,2.25c-3.19.19-4.59-.06-4.59,1.14s3.48,2.59,6.59,1.34A4.52,4.52,0,0,0,282.91,226Z"/><path class="cls-3" d="M322.87,252.17a2.19,2.19,0,0,1-.36,0c-1.5-.31-2.88-2.18-2.94-2.26a.5.5,0,0,1,.81-.59,5.2,5.2,0,0,0,2.34,1.87c.79.16,1.7-1.1,2-1.56a.5.5,0,0,1,.68-.2.51.51,0,0,1,.19.69C325.42,250.31,324.33,252.17,322.87,252.17Z"/></g><g id="man-2" data-name="man"><path class="cls-3" d="M670.88,222.35,668.6,269.9a5,5,0,0,1-5.23,4.76L629.16,273c.12,2.23.22,4,.29,5.21.09,1.64-1,3-3.09,4.12l7,32.64H565.75c-2.58-11.92-4.74-21.88-7.72-35.7-4.08-1.89-6.54-4.13-6.44-6.69.55-14,1.5-91.58,1.54-95.15L520,157.17a12.49,12.49,0,0,1-1.76-1.09,13,13,0,0,1-2.09-1.71l-39-32.77,2.33-2.77-1.24-1.11s-13.27-1.46-15.44-4.37c0,0-7.07-1.39-9.21-3.3S446,103.7,446,103.7l-5.18-.87a1.81,1.81,0,0,1,0-3.55l1.39-.25-1.27-1.17a1.88,1.88,0,0,1,2-3.11,34.44,34.44,0,0,1,6.22,3.35,75.6,75.6,0,0,1,9.32-.4c9.6.24,14.68,1.15,16.85-1.46s-.11-11.28,4.55-14.42a2.25,2.25,0,0,1,1-.37,2.78,2.78,0,0,1,3.24,3c-.28,2.3-.38,5.11.46,6.61,1.56,2.83,5.19,4.77,8.35,10.46l4.72,4.12,35.33,29.69,36.37,22.23a20.26,20.26,0,0,1,6.1-.38l2.53.22,1.38-1.82a4.58,4.58,0,0,1,1.82-1.42c-.18-2.48-.3-4.17-.42-6a13.73,13.73,0,0,1-5.91-1.26c-4.26-1.91-4.42-7.47-2.75-14.67-1.44-1-3-2.33-3.09-3.09,0-.32,4.5-5.08,5.95-6.61l.67-1.92a23.57,23.57,0,0,1,2.08-4.46,1,1,0,0,0-.39.22c-1.29,1.34-6-7,1.6-11,8.53-4.51,21.73,7.62,21.73,7.62s7.06,2.84,8.3,6.87a8.05,8.05,0,0,1-.92,5.75,6.38,6.38,0,0,1-.36,2.29c-2,5.71-4.61,14.74-8.14,18.53a5.74,5.74,0,0,1-3.36,1.67c.11,1.51.22,3.08.37,5.23a4.57,4.57,0,0,1,4.12,4l.25,2,4.48.39a20.47,20.47,0,0,1,17.2,12.68l22.6,37.34a12.52,12.52,0,0,1,2.58,4.35,12.69,12.69,0,0,1,.88,2.09l17.53.84A5,5,0,0,1,670.88,222.35Z"/><path class="cls-2" d="M565.36,122.15s-6.43,6.71-6.41,7.09c.07,1.37,5.28,4.55,5.28,4.55Z"/><path class="cls-3" d="M564.23,134.29a.48.48,0,0,1-.26-.07c-1.28-.78-5.44-3.44-5.52-5,0-.26,0-.59,6.55-7.45a.5.5,0,0,1,.86.39l-1.13,11.64a.53.53,0,0,1-.28.4A.59.59,0,0,1,564.23,134.29Zm-4.76-5c.24.67,2.26,2.28,4.34,3.62l.91-9.39C562.3,126.1,559.91,128.69,559.47,129.32Z"/><path class="cls-2" d="M586.8,157.84l-1.44-20.17A7.69,7.69,0,0,0,570,138.76l1.44,20.18a7.69,7.69,0,0,0,15.34-1.1Z"/><path class="cls-3" d="M579.12,166.58A8.21,8.21,0,0,1,571,159l-1.44-20.17a8.19,8.19,0,0,1,16.34-1.17l1.43,20.18a8.2,8.2,0,0,1-7.58,8.75ZM577.7,131h-.52a7.19,7.19,0,0,0-6.66,7.68L572,158.9a7.2,7.2,0,0,0,7.16,6.68l.52,0a7.2,7.2,0,0,0,6.66-7.68l-1.44-20.18A7.21,7.21,0,0,0,577.7,131Z"/><path class="cls-2" d="M572.49,148.1a13.35,13.35,0,0,1-7.7-1.1c-6.37-2.85-3.6-13.84.78-26.29s15.48-15.64,23-5.3c4,5.48,1.59,16.72-4.21,24.52Z"/><path class="cls-3" d="M570.45,148.76a14.15,14.15,0,0,1-5.86-1.3c-7.13-3.2-3.48-15.57.51-26.92,2.31-6.6,6.68-11,11.67-11.71,4.45-.66,8.8,1.57,12.24,6.29,4,5.41,2.07,16.67-4.21,25.1a.5.5,0,0,1-.7.11.51.51,0,0,1-.1-.7c5.93-8,7.86-18.93,4.21-23.92-3.22-4.4-7.23-6.5-11.3-5.89-4.61.68-8.68,4.81-10.87,11.05-4.12,11.73-7.1,23-1,25.68a12.82,12.82,0,0,0,7.41,1,.52.52,0,0,1,.58.42.51.51,0,0,1-.42.57A13.77,13.77,0,0,1,570.45,148.76Z"/><path class="cls-3" d="M575.07,143c-1.73-3.87-3.4-8.22-3-10.6.84-4.78,2.8-11.83,4.77-14.77s24.27.28,20.75,10.38c-2,5.71-4.61,14.74-8.14,18.53S577.14,147.61,575.07,143Z"/><path class="cls-3" d="M591.36,134.22s9.29-8.57,7.53-14.28c-1.24-4-8.3-6.87-8.3-6.87s-13.2-12.13-21.73-7.62c-7.64,4-2.89,12.36-1.6,11C570.13,113.48,591.36,134.22,591.36,134.22Z"/><path class="cls-3" d="M569.46,124.51a.5.5,0,0,1-.41-.22c-.06-.09-1.61-2.25-3.84-1.37a.5.5,0,0,1-.64-.28.49.49,0,0,1,.28-.65,4.33,4.33,0,0,1,5,1.73.51.51,0,0,1-.12.7A.52.52,0,0,1,569.46,124.51Z"/><path class="cls-2" d="M573.64,130.76c-2.19,1.56-3,4.21-1.76,5.91s4,1.83,6.17.27,3-4.21,1.76-5.92S575.83,129.2,573.64,130.76Z"/><path class="cls-3" d="M574.79,138.54a4,4,0,0,1-3.32-1.58,3.91,3.91,0,0,1-.47-3.44,6.41,6.41,0,0,1,5.89-4.36,4,4,0,0,1,3.32,1.57c1.38,1.93.54,4.9-1.87,6.62A6.27,6.27,0,0,1,574.79,138.54Zm2.1-8.38a5.18,5.18,0,0,0-3,1,5.07,5.07,0,0,0-2,2.63,2.9,2.9,0,0,0,.33,2.58,2.94,2.94,0,0,0,2.5,1.16,5.18,5.18,0,0,0,3-1c2-1.4,2.69-3.74,1.64-5.22A3,3,0,0,0,576.89,130.16Z"/><path class="cls-2" d="M566.56,159.23l2.74-3.6a4.6,4.6,0,0,1,3.49-1.81l13.1-.45a4.6,4.6,0,0,1,4.71,4l.91,7.34Z"/><path class="cls-3" d="M591.51,165.23h-.11l-24.95-5.5a.51.51,0,0,1-.36-.32.49.49,0,0,1,.07-.47l2.74-3.61a5.09,5.09,0,0,1,3.87-2l13.28-.45a5.1,5.1,0,0,1,5.05,4.46l.89,7.2a.65.65,0,0,1,0,.2.5.5,0,0,1-.5.5Zm-24.08-6.32,23.5,5.18-.83-6.64a4.08,4.08,0,0,0-4.05-3.58h-.14l-13.1.45a4.07,4.07,0,0,0-3.11,1.61Z"/><path class="cls-1" d="M595.12,263.26l39.14-35.51a12.68,12.68,0,1,0-17-18.78l-39.14,35.52a12.68,12.68,0,1,0,17,18.77Z"/><path class="cls-3" d="M586.6,267.05a13.17,13.17,0,0,1-8.86-22.93l39.14-35.52a13.18,13.18,0,1,1,17.71,19.52l-39.13,35.52A13.18,13.18,0,0,1,586.6,267.05Zm39.13-60.87a12.15,12.15,0,0,0-8.18,3.16l-39.13,35.52a12.17,12.17,0,1,0,16.36,18l39.14-35.51a12.18,12.18,0,0,0-8.19-21.2Z"/><path class="cls-2" d="M637.35,213.52,610,168.3a12.68,12.68,0,0,0-21.7,13.13c13.13,21.69,14.24,23.52,27.36,45.22a12.68,12.68,0,1,0,21.69-13.13Z"/><path class="cls-3" d="M626.52,233.26a13.09,13.09,0,0,1-11.29-6.35l-27.35-45.22A13.18,13.18,0,0,1,610.43,168l27.35,45.22a13.17,13.17,0,0,1-11.26,20Zm-27.38-70.57a12.18,12.18,0,0,0-10.41,18.48l27.36,45.22a12.18,12.18,0,0,0,20.84-12.61l-27.36-45.22A12.1,12.1,0,0,0,599.14,162.69Z"/><rect class="cls-2" x="581.93" y="194.72" width="57.61" height="98.12" rx="5" transform="translate(338.02 842.15) rotate(-87.26)"/><path class="cls-3" d="M653.61,275.16h-.27l-88-4.22a5.51,5.51,0,0,1-5.23-5.76l2.28-47.55a5.45,5.45,0,0,1,5.75-5.23l88,4.22a5.49,5.49,0,0,1,5.23,5.75l-2.28,47.56A5.49,5.49,0,0,1,653.61,275.16Zm-85.75-61.77a4.5,4.5,0,0,0-4.49,4.29l-2.27,47.55a4.5,4.5,0,0,0,4.27,4.71l88,4.22a4.52,4.52,0,0,0,4.71-4.28l2.28-47.55a4.51,4.51,0,0,0-1.16-3.25,4.44,4.44,0,0,0-3.12-1.46l-88-4.22Z"/><path class="cls-1" d="M623.41,315H582.77c-.22-1-.44-2-.65-3l-2.76-12.74c-.13-.6-.26-1.19-.38-1.78l-8.47-39.15a19.86,19.86,0,1,1,38.83-8.4C615.87,280.06,618.59,292.67,623.41,315Z"/><path class="cls-3" d="M623.43,315.49H582.77a.5.5,0,0,1-.49-.39l-.1-.48c-.19-.86-.37-1.71-.55-2.55l-2.75-12.68s0-.05,0-.08l-.37-1.76L570,258.41a20.37,20.37,0,1,1,39.81-8.61c5.55,25.65,8.35,38.61,12,55.64l2,9.31a.48.48,0,0,1,.06.24A.5.5,0,0,1,623.43,315.49Zm-40.26-1h39.62l-1.91-8.84c-3.68-17-6.47-30-12-55.64A19.36,19.36,0,1,0,571,258.2l8.83,40.86,0,.07,2.76,12.73c.18.84.36,1.69.55,2.55Z"/><path class="cls-3" d="M607.78,315h-25c-.22-1-.44-2-.65-3a19,19,0,0,0,.11-2.06c0-3.52-1.05-5.83-2.68-10.12-.06-.18-.13-.37-.19-.56s-.12-.39-.17-.58a8.38,8.38,0,0,1-.21-1.2,9.67,9.67,0,0,1,19-3.38c.09.39.15.79.2,1.18C599.13,303.34,598.81,305.05,607.78,315Z"/><path class="cls-2" d="M596.39,315H555.75c-3.65-16.86-6.45-29.81-12-55.29a19.86,19.86,0,0,1,38.83-8.4C589,280.83,591.75,293.53,596.39,315Z"/><path class="cls-3" d="M596.41,315.49H555.75a.5.5,0,0,1-.49-.39c-3.65-16.86-6.45-29.81-12-55.29a20.35,20.35,0,0,1,15.6-24.21,20.37,20.37,0,0,1,24.21,15.59c4,18.6,6.6,30.53,9.12,42.17l4.62,21.39a.48.48,0,0,1,.06.24A.5.5,0,0,1,596.41,315.49Zm-40.26-1h39.62l-4.52-20.92c-2.52-11.64-5.09-23.56-9.12-42.16a19.06,19.06,0,0,0-6.66-10.88,19.46,19.46,0,0,0-16.35-3.95,19.35,19.35,0,0,0-14.84,23C549.75,284.88,552.55,297.82,556.15,314.49Z"/><path class="cls-2" d="M595.33,159.82l-29.94-2.59a20.49,20.49,0,0,0-22.26,20.08s-1,81-1.54,95.29,78.59,18.93,77.86,5.63-5.39-97.89-5.39-97.89A20.5,20.5,0,0,0,595.33,159.82Z"/><path class="cls-3" d="M591.12,286.62c-18.69,0-42-3.57-48.34-10.17a5.28,5.28,0,0,1-1.69-3.87c.56-14.12,1.53-94.47,1.54-95.27a21.08,21.08,0,0,1,21-20.66c.61,0,1.23,0,1.84.08l30,2.59a21.12,21.12,0,0,1,19.18,21L620,278.2a4,4,0,0,1-1.21,3C614.13,286.09,597.9,286.62,591.12,286.62Zm-27.53-129a20.07,20.07,0,0,0-20,19.67c0,.81-1,81.16-1.54,95.3a4.29,4.29,0,0,0,1.41,3.13c5.94,6.18,28.87,9.86,47.62,9.87,13.83,0,23.88-1.91,26.9-5.09a3,3,0,0,0,.93-2.27l-5.39-97.89a20.11,20.11,0,0,0-18.27-20.05l-29.94-2.6C564.76,157.67,564.17,157.65,563.59,157.65Z"/><rect class="cls-1" x="393.12" y="28.42" width="51.47" height="61.75" rx="5"/><path class="cls-3" d="M439.59,90.67H398.12a5.51,5.51,0,0,1-5.5-5.5V33.42a5.51,5.51,0,0,1,5.5-5.5h41.47a5.51,5.51,0,0,1,5.5,5.5V85.17A5.51,5.51,0,0,1,439.59,90.67ZM398.12,28.92a4.51,4.51,0,0,0-4.5,4.5V85.17a4.51,4.51,0,0,0,4.5,4.5h41.47a4.51,4.51,0,0,0,4.5-4.5V33.42a4.51,4.51,0,0,0-4.5-4.5Z"/><rect class="cls-2" x="396.12" y="28.42" width="51.47" height="61.75" rx="5"/><path class="cls-3" d="M442.59,90.67H401.12a5.51,5.51,0,0,1-5.5-5.5V33.42a5.51,5.51,0,0,1,5.5-5.5h41.47a5.51,5.51,0,0,1,5.5,5.5V85.17A5.51,5.51,0,0,1,442.59,90.67ZM401.12,28.92a4.51,4.51,0,0,0-4.5,4.5V85.17a4.51,4.51,0,0,0,4.5,4.5h41.47a4.51,4.51,0,0,0,4.5-4.5V33.42a4.51,4.51,0,0,0-4.5-4.5Z"/><path class="cls-2" d="M435.92,102.5l-5-4.64a1.88,1.88,0,0,1,2-3.11,30.42,30.42,0,0,1,8,4.77Z"/><path class="cls-3" d="M435.92,103a.47.47,0,0,1-.34-.13l-5-4.65a2.35,2.35,0,0,1,0-3.46,2.36,2.36,0,0,1,2.52-.47,30.46,30.46,0,0,1,8.18,4.85.51.51,0,0,1-.08.81l-5,3A.45.45,0,0,1,435.92,103Zm-3.75-7.89a1.35,1.35,0,0,0-.92.37,1.36,1.36,0,0,0-.46,1,1.38,1.38,0,0,0,.44,1l4.75,4.39,4.08-2.43a30.41,30.41,0,0,0-7.37-4.24A1.55,1.55,0,0,0,432.17,95.11Z"/><path class="cls-2" d="M480.66,128.82l-12.46-11.1s-13.27-1.46-15.44-4.37c0,0-7.07-1.39-9.21-3.3S436,103.7,436,103.7l-5.18-.87a1.81,1.81,0,0,1,0-3.55,91.46,91.46,0,0,1,17.65-1.58c9.6.24,14.68,1.15,16.85-1.46s-.11-11.28,4.55-14.42a2.25,2.25,0,0,1,1-.37,2.78,2.78,0,0,1,3.24,3c-.28,2.3-.38,5.11.46,6.61,1.56,2.83,5.19,4.77,8.35,10.46l14,12.21Z"/><path class="cls-3" d="M480.66,129.32a.55.55,0,0,1-.33-.13L468,118.2c-1.93-.22-13-1.6-15.49-4.4-1.15-.23-7.22-1.55-9.28-3.38s-6.68-5.63-7.44-6.25l-5-.84a2.3,2.3,0,0,1-.05-4.54,90.44,90.44,0,0,1,17.75-1.59c1.95,0,3.7.13,5.29.2,1.92.08,3.57.15,5,.15,3.46,0,5.19-.46,6.16-1.63.73-.87.89-2.84,1.05-4.92.27-3.37.6-7.56,3.6-9.6a3.16,3.16,0,0,1,1.22-.45,4,4,0,0,1,.56,0,3.27,3.27,0,0,1,3.24,3.65c-.36,3-.22,5.19.4,6.31a16.67,16.67,0,0,0,2.75,3.28,31.41,31.41,0,0,1,5.57,7.1l13.9,12.15a.48.48,0,0,1,.17.37.45.45,0,0,1-.16.37l-16.17,15A.52.52,0,0,1,480.66,129.32ZM446.91,98.18a93.18,93.18,0,0,0-16.05,1.59,1.3,1.3,0,0,0-.84.55,1.28,1.28,0,0,0-.18,1,1.3,1.3,0,0,0,1.05,1l5.18.87a.44.44,0,0,1,.23.1c.06,0,5.45,4.47,7.58,6.37s8.91,3.16,9,3.18a.51.51,0,0,1,.31.19c1.67,2.24,11.45,3.77,15.08,4.17a.52.52,0,0,1,.28.13l12.13,10.79,15.44-14.35L482.54,102a.45.45,0,0,1-.1-.14,31,31,0,0,0-5.45-7,17,17,0,0,1-2.91-3.5c-.73-1.32-.91-3.65-.52-6.91a2.24,2.24,0,0,0-.55-1.77,2.28,2.28,0,0,0-2.06-.74,2.1,2.1,0,0,0-.86.3c-2.6,1.76-2.9,5.53-3.16,8.85-.18,2.34-.34,4.36-1.28,5.48-1.37,1.65-3.76,2-6.93,2-1.45,0-3.11-.07-5-.15-1.58-.07-3.34-.15-5.27-.2Z"/><path class="cls-2" d="M436,103.7l16.73,2.4Z"/><path class="cls-3" d="M452.72,106.6h-.07l-16.73-2.4a.5.5,0,0,1-.43-.56.51.51,0,0,1,.57-.43l16.73,2.4a.5.5,0,0,1-.07,1Z"/><path class="cls-2" d="M452.87,107.88l.34-3.62Z"/><path class="cls-3" d="M452.88,108.38a.5.5,0,0,1-.5-.55l.33-3.62a.51.51,0,0,1,.54-.45.5.5,0,0,1,.46.54l-.34,3.63A.5.5,0,0,1,452.88,108.38Z"/><path class="cls-2" d="M566.82,162.22l-43.9-26.84-39.5-33.19L467.11,121.6l39,32.77a13,13,0,0,0,2.09,1.71,12.49,12.49,0,0,0,1.76,1.09l43.64,26.68Z"/><path class="cls-3" d="M553.6,184.35a.54.54,0,0,1-.27-.07L509.7,157.6a13.12,13.12,0,0,1-1.79-1.12,12.89,12.89,0,0,1-2.16-1.76l-39-32.74a.49.49,0,0,1-.06-.7L483,101.86a.51.51,0,0,1,.7-.06l39.5,33.2,43.84,26.79a.5.5,0,1,1-.52.85l-43.9-26.83-39.18-32.92-15.67,18.65L506.43,154a12,12,0,0,0,2.05,1.68,12.32,12.32,0,0,0,1.71,1.07l43.67,26.69a.5.5,0,0,1-.26.93Z"/><path class="cls-3" d="M549,190.73a.5.5,0,0,1-.5-.46l-.68-9.59a.49.49,0,0,1,.47-.53.5.5,0,0,1,.53.46l.68,9.59a.5.5,0,0,1-.46.53Z"/><path class="cls-3" d="M426.49,71.77A3.79,3.79,0,1,1,422.7,68,3.79,3.79,0,0,1,426.49,71.77Z"/><path class="cls-2" d="M422.7,71.77a7.61,7.61,0,0,1-3.74-.9,3.09,3.09,0,0,1-1.66-2.11.39.39,0,0,1,0-.14l0-.58c-.08-2.77-.1-3.34-3.27-8.47a10.26,10.26,0,1,1,17.44,0c-3.18,5.13-3.19,5.71-3.28,8.46v.4a.57.57,0,0,1,0,.18,3,3,0,0,1-1.66,2.26A7.61,7.61,0,0,1,422.7,71.77Z"/><path class="cls-3" d="M422.7,72.27a8.15,8.15,0,0,1-4-1,3.58,3.58,0,0,1-1.91-2.47.49.49,0,0,1,0-.2l0-.57c-.08-2.72-.09-3.21-3.2-8.22a10.76,10.76,0,1,1,18.3,0c-3.11,5-3.13,5.5-3.21,8.2v.41a.75.75,0,0,1,0,.24,3.41,3.41,0,0,1-1.9,2.61A8.15,8.15,0,0,1,422.7,72.27Zm0-27.86a9.76,9.76,0,0,0-8.3,14.9c3.15,5.08,3.27,5.79,3.35,8.72l0,.57a2.65,2.65,0,0,0,1.44,1.83,7.92,7.92,0,0,0,7,0,2.45,2.45,0,0,0,1.41-1.85.5.5,0,0,1,0-.12l0-.45c.09-2.91.21-3.62,3.36-8.7a9.76,9.76,0,0,0-8.3-14.9Z"/><path class="cls-3" d="M422.79,42.2a.31.31,0,0,1-.31-.31V39.18a.32.32,0,1,1,.63,0v2.71A.31.31,0,0,1,422.79,42.2Z"/><path class="cls-3" d="M416.7,43.83a.3.3,0,0,1-.27-.16l-1.36-2.34a.33.33,0,0,1,0-.24.32.32,0,0,1,.15-.19.28.28,0,0,1,.15,0,.32.32,0,0,1,.28.16L417,43.36a.33.33,0,0,1,0,.24.3.3,0,0,1-.14.19A.32.32,0,0,1,416.7,43.83Z"/><path class="cls-3" d="M412.24,48.29a.29.29,0,0,1-.16,0l-2.35-1.35a.3.3,0,0,1-.14-.19.33.33,0,0,1,0-.24.32.32,0,0,1,.27-.16.42.42,0,0,1,.16,0l2.34,1.36a.29.29,0,0,1,.15.19.34.34,0,0,1,0,.24A.33.33,0,0,1,412.24,48.29Z"/><path class="cls-3" d="M407.89,54.39a.32.32,0,0,1,0-.63h2.71a.32.32,0,1,1,0,.63Z"/><path class="cls-3" d="M409.89,61.84a.32.32,0,0,1-.27-.16.32.32,0,0,1,.11-.43l2.35-1.35a.29.29,0,0,1,.16,0,.33.33,0,0,1,.27.15.31.31,0,0,1-.12.43l-2.34,1.36A.42.42,0,0,1,409.89,61.84Z"/><path class="cls-3" d="M435.7,61.84a.42.42,0,0,1-.16,0l-2.35-1.36a.31.31,0,0,1-.11-.43.33.33,0,0,1,.27-.15.29.29,0,0,1,.16,0l2.34,1.35a.31.31,0,0,1,.15.19.33.33,0,0,1,0,.24A.32.32,0,0,1,435.7,61.84Z"/><path class="cls-3" d="M435,54.39a.32.32,0,0,1,0-.63h2.71a.32.32,0,1,1,0,.63Z"/><path class="cls-3" d="M433.35,48.29a.33.33,0,0,1-.27-.15.31.31,0,0,1,.11-.43l2.35-1.36a.42.42,0,0,1,.16,0,.32.32,0,0,1,.27.16.33.33,0,0,1,0,.24.29.29,0,0,1-.15.19l-2.34,1.35A.29.29,0,0,1,433.35,48.29Z"/><path class="cls-3" d="M428.89,43.83a.29.29,0,0,1-.16,0,.3.3,0,0,1-.14-.19.33.33,0,0,1,0-.24L430,41a.32.32,0,0,1,.27-.16.29.29,0,0,1,.16,0,.32.32,0,0,1,.12.43l-1.36,2.34A.3.3,0,0,1,428.89,43.83Z"/><rect class="cls-2" x="417.27" y="68.62" width="10.87" height="3.59"/><path class="cls-3" d="M428.14,72.71H417.27a.5.5,0,0,1-.5-.5V68.62a.5.5,0,0,1,.5-.5h10.87a.5.5,0,0,1,.5.5v3.59A.5.5,0,0,1,428.14,72.71Zm-10.37-1h9.87V69.12h-9.87Z"/><path class="cls-3" d="M423.64,67.71v-9H422v9h-.44v-9h-1.2A1.65,1.65,0,1,1,422,57.05v1.2h1.69v-1.2a1.65,1.65,0,1,1,1.64,1.64h-1.2v9Zm1.64-11.87a1.21,1.21,0,1,0,1.21,1.21A1.21,1.21,0,0,0,425.28,55.84Zm-5,0a1.21,1.21,0,1,0,1.2,1.21A1.21,1.21,0,0,0,420.31,55.84Z"/></g><g id="laptop"><rect class="cls-1" x="170.75" y="405.1" width="81.08" height="7.3" rx="3.61"/><path class="cls-3" d="M248.22,412.9H174.36a4.15,4.15,0,0,1,0-8.3h73.86a4.15,4.15,0,0,1,0,8.3Zm-73.86-7.3a3.15,3.15,0,0,0,0,6.3h73.86a3.15,3.15,0,0,0,0-6.3Z"/><path class="cls-2" d="M113.41,350.83h71.2a11,11,0,0,1,10.49,7.75l16.59,53.82H128.27a3.62,3.62,0,0,1-3.45-2.55l-16.19-52.54A5,5,0,0,1,113.41,350.83Z"/><path class="cls-3" d="M211.71,412.9H128.27a4.11,4.11,0,0,1-3.93-2.9l-16.19-52.55a5.5,5.5,0,0,1,5.26-7.12h71.2a11.42,11.42,0,0,1,11,8.1l16.55,53.7a.48.48,0,0,1,.08.27A.51.51,0,0,1,211.71,412.9Zm-98.3-61.57a4.5,4.5,0,0,0-4.3,5.83L125.3,409.7a3.09,3.09,0,0,0,3,2.2H211l-16.38-53.17a10.45,10.45,0,0,0-10-7.4Z"/><path class="cls-1" d="M110.41,350.83h71.2a11,11,0,0,1,10.49,7.75l16.59,53.82H125.27a3.62,3.62,0,0,1-3.45-2.55l-16.19-52.54A5,5,0,0,1,110.41,350.83Z"/><path class="cls-3" d="M208.71,412.9H125.27a4.11,4.11,0,0,1-3.93-2.9l-16.19-52.55a5.5,5.5,0,0,1,5.26-7.12h71.2a11.42,11.42,0,0,1,11,8.1l16.55,53.7a.48.48,0,0,1,.08.27A.51.51,0,0,1,208.71,412.9Zm-98.3-61.57a4.5,4.5,0,0,0-4.3,5.83L122.3,409.7a3.09,3.09,0,0,0,3,2.2H208l-16.38-53.17a10.45,10.45,0,0,0-10-7.4Z"/></g><g id="icon"><path class="cls-2" d="M135.24,24A11.31,11.31,0,0,0,123.78,11.5,11.52,11.52,0,0,0,113.36,18a5,5,0,0,0-6.12,4.81c0,.11,0,.22,0,.33a7.06,7.06,0,0,0-5.18,6.75V30a7.1,7.1,0,0,0,7.16,7h7.66V33.42h-3l6.45-7.73,6.45,7.73h-3.05v3.63h7.66a7.09,7.09,0,0,0,7.16-7v-.15A7,7,0,0,0,135.24,24Z"/><path class="cls-3" d="M131.37,37.55h-7.66a.5.5,0,0,1-.5-.5V33.42a.51.51,0,0,1,.5-.5h2l-5.38-6.45-5.38,6.45h2a.5.5,0,0,1,.5.5v3.63a.5.5,0,0,1-.5.5h-7.66A7.61,7.61,0,0,1,101.58,30v-.15a7.58,7.58,0,0,1,5.16-7.11,5.51,5.51,0,0,1,6.34-5.34A12.09,12.09,0,0,1,123.78,11a11.92,11.92,0,0,1,12,11.8c0,.31,0,.62,0,.92A7.43,7.43,0,0,1,139,29.88V30A7.61,7.61,0,0,1,131.37,37.55Zm-7.16-1h7.16A6.6,6.6,0,0,0,138,30v-.15A6.46,6.46,0,0,0,135,24.4a.51.51,0,0,1-.23-.48,10.37,10.37,0,0,0,.06-1.12,10.92,10.92,0,0,0-11-10.8,11.07,11.07,0,0,0-10,6.21.5.5,0,0,1-.56.27,4.51,4.51,0,0,0-5.51,4.32c0,.08,0,.16,0,.24a.58.58,0,0,1-.35.58,6.55,6.55,0,0,0-4.82,6.26V30a6.6,6.6,0,0,0,6.66,6.52h7.16V33.92h-2.54a.49.49,0,0,1-.45-.28.5.5,0,0,1,.06-.54l6.45-7.73a.52.52,0,0,1,.77,0l6.45,7.73a.53.53,0,0,1,.07.54.5.5,0,0,1-.45.28h-2.55Z"/><path class="cls-3" d="M121.35,51.38a.5.5,0,0,1,0-1c.66,0,1.33-.08,2-.16a.49.49,0,0,1,.56.43.5.5,0,0,1-.44.56c-.68.08-1.37.14-2.06.17Zm-4-.16h-.06c-.68-.08-1.37-.2-2-.33a.51.51,0,0,1-.39-.59.5.5,0,0,1,.59-.39c.65.13,1.31.24,2,.31a.5.5,0,0,1-.06,1Zm10-.82a.5.5,0,0,1-.14-1q1-.27,1.89-.63a.5.5,0,0,1,.65.29.52.52,0,0,1-.29.65c-.64.24-1.31.46-2,.65A.32.32,0,0,1,127.34,50.4Zm-16-.62a.38.38,0,0,1-.17,0c-.65-.24-1.29-.51-1.91-.81a.5.5,0,0,1-.24-.66.5.5,0,0,1,.67-.24c.6.28,1.21.55,1.83.78a.5.5,0,0,1-.18,1ZM132.93,48a.5.5,0,0,1-.43-.25.51.51,0,0,1,.18-.69c.57-.33,1.13-.69,1.68-1.06a.5.5,0,1,1,.56.82c-.56.39-1.15.76-1.74,1.11A.59.59,0,0,1,132.93,48ZM106,47a.47.47,0,0,1-.28-.09c-.56-.39-1.12-.81-1.66-1.24a.52.52,0,0,1-.07-.71.5.5,0,0,1,.7-.07c.52.42,1.06.82,1.6,1.19a.51.51,0,0,1,.12.7A.49.49,0,0,1,106,47Zm31.77-2.6a.5.5,0,0,1-.35-.86c.48-.46.94-.94,1.38-1.43a.51.51,0,0,1,.71,0,.51.51,0,0,1,0,.71c-.46.51-.94,1-1.43,1.49A.54.54,0,0,1,137.78,44.36Zm-36.32-1.43a.5.5,0,0,1-.37-.17c-.46-.51-.9-1-1.32-1.6a.5.5,0,0,1,.8-.6c.4.53.82,1,1.26,1.54a.49.49,0,0,1-.37.83Zm40.16-3.27a.56.56,0,0,1-.27-.08.5.5,0,0,1-.15-.69c.35-.56.69-1.14,1-1.72a.5.5,0,0,1,.68-.21.5.5,0,0,1,.21.67c-.32.61-.67,1.21-1,1.79A.49.49,0,0,1,141.62,39.66ZM98,37.94a.49.49,0,0,1-.44-.26c-.32-.61-.62-1.24-.89-1.87a.5.5,0,1,1,.91-.4c.26.61.55,1.21.86,1.8a.49.49,0,0,1-.21.67A.46.46,0,0,1,98,37.94Zm46.23-3.77a.45.45,0,0,1-.16,0,.51.51,0,0,1-.32-.63c.21-.63.4-1.27.56-1.91a.49.49,0,0,1,.6-.37.51.51,0,0,1,.37.61c-.17.67-.36,1.34-.58,2A.5.5,0,0,1,144.23,34.17Zm-48.4-1.9a.5.5,0,0,1-.48-.38c-.17-.67-.31-1.35-.42-2a.5.5,0,0,1,.42-.57.49.49,0,0,1,.57.41c.11.65.24,1.31.4,1.95a.49.49,0,0,1-.37.6Zm49.61-4.06a.5.5,0,0,1-.5-.54c.05-.65.08-1.32.08-2v-.11a.5.5,0,0,1,.5-.5.51.51,0,0,1,.5.5v.11c0,.68,0,1.38-.08,2.06A.5.5,0,0,1,145.44,28.21Zm-50.34-2a.48.48,0,0,1-.5-.47v0c0-.67,0-1.35.07-2a.5.5,0,0,1,1,.08c0,.64-.07,1.29-.07,1.94A.53.53,0,0,1,95.1,26.21ZM145.18,22a.49.49,0,0,1-.49-.42c-.11-.65-.25-1.3-.41-1.94a.5.5,0,0,1,.37-.61.5.5,0,0,1,.6.37c.17.66.31,1.34.42,2a.51.51,0,0,1-.41.58ZM95.81,20.21l-.12,0a.5.5,0,0,1-.37-.6c.17-.67.36-1.34.57-2a.52.52,0,0,1,.64-.32.5.5,0,0,1,.31.63c-.2.63-.39,1.27-.54,1.92A.51.51,0,0,1,95.81,20.21Zm47.66-4a.5.5,0,0,1-.46-.31c-.26-.6-.55-1.21-.86-1.79a.5.5,0,0,1,.21-.68.51.51,0,0,1,.67.21c.32.61.62,1.24.9,1.87a.5.5,0,0,1-.26.65A.53.53,0,0,1,143.47,16.22ZM98,14.52a.46.46,0,0,1-.23-.06.5.5,0,0,1-.21-.67c.32-.61.67-1.21,1-1.79a.5.5,0,0,1,.85.53c-.35.56-.69,1.14-1,1.72A.49.49,0,0,1,98,14.52ZM140.41,11a.51.51,0,0,1-.4-.2c-.4-.52-.82-1-1.26-1.53a.5.5,0,1,1,.74-.67c.46.51.9,1,1.32,1.6a.51.51,0,0,1-.1.7A.49.49,0,0,1,140.41,11Zm-39-1.45a.55.55,0,0,1-.34-.13.51.51,0,0,1,0-.71c.46-.51.94-1,1.43-1.49a.5.5,0,1,1,.69.72c-.47.46-.93.94-1.37,1.44A.51.51,0,0,1,101.4,9.52ZM136.18,6.6a.45.45,0,0,1-.31-.11c-.51-.41-1.05-.81-1.59-1.19a.5.5,0,0,1,.56-.82c.57.39,1.13.8,1.66,1.24a.5.5,0,0,1-.32.88ZM105.93,5.47a.49.49,0,0,1-.41-.21.5.5,0,0,1,.13-.7q.84-.58,1.74-1.11a.49.49,0,0,1,.68.18.51.51,0,0,1-.18.69c-.57.33-1.13.69-1.67,1.06A.45.45,0,0,1,105.93,5.47ZM131,3.37a.54.54,0,0,1-.21-.05c-.6-.28-1.21-.54-1.83-.77a.5.5,0,1,1,.35-.94c.64.24,1.29.51,1.9.81a.5.5,0,0,1-.21,1ZM111.3,2.63a.51.51,0,0,1-.47-.32.5.5,0,0,1,.29-.64c.64-.25,1.3-.47,2-.66a.5.5,0,0,1,.28,1c-.63.18-1.27.4-1.88.63A.57.57,0,0,1,111.3,2.63Zm14-1.17h-.1c-.65-.12-1.31-.23-2-.31a.5.5,0,1,1,.11-1c.69.08,1.37.19,2.05.32a.51.51,0,0,1,.39.59A.5.5,0,0,1,125.27,1.46Zm-8.08-.29a.51.51,0,0,1-.5-.44.51.51,0,0,1,.44-.56c.68-.08,1.37-.14,2.06-.17a.5.5,0,0,1,.52.48.5.5,0,0,1-.48.52c-.66,0-1.32.08-2,.16Z"/><path class="cls-2" d="M620.7,73.34V70.21l-2.93-.66a14.26,14.26,0,0,0-.58-2.18l2.2-2-1.56-2.71-2.88.89a13.27,13.27,0,0,0-1.59-1.59l.9-2.87-2.72-1.57-2,2.21a12.17,12.17,0,0,0-2.17-.58l-.67-2.94h-3.13l-.67,2.94a12.4,12.4,0,0,0-2.17.58l-2-2.21-2.71,1.57.89,2.87a13.27,13.27,0,0,0-1.59,1.59l-2.88-.89-1.56,2.71,2.2,2a13.17,13.17,0,0,0-.57,2.18l-2.94.66v3.13l2.94.67a12.8,12.8,0,0,0,.57,2.17l-2.2,2,1.56,2.71,2.88-.89a12.49,12.49,0,0,0,1.59,1.58l-.89,2.88,2.71,1.57,2-2.21a13.34,13.34,0,0,0,2.17.58l.67,2.94h3.13l.67-2.94a13.08,13.08,0,0,0,2.17-.58l2,2.21,2.72-1.57-.9-2.88A12.49,12.49,0,0,0,615,80.05l2.88.89,1.56-2.71-2.2-2a13.83,13.83,0,0,0,.58-2.17ZM605.1,79a7.22,7.22,0,1,1,7.22-7.22A7.22,7.22,0,0,1,605.1,79Z"/><path class="cls-3" d="M606.66,87.89h-3.13a.52.52,0,0,1-.49-.39l-.59-2.62a14.1,14.1,0,0,1-1.61-.43l-1.82,2a.5.5,0,0,1-.62.09L595.69,85a.51.51,0,0,1-.23-.59l.79-2.56a13,13,0,0,1-1.17-1.18l-2.57.79a.49.49,0,0,1-.58-.22l-1.56-2.71a.5.5,0,0,1,.09-.62l2-1.82a14.07,14.07,0,0,1-.42-1.61l-2.62-.6a.49.49,0,0,1-.39-.49V70.21a.49.49,0,0,1,.39-.48l2.62-.6a14.07,14.07,0,0,1,.42-1.61l-2-1.82a.5.5,0,0,1-.09-.62l1.56-2.71a.5.5,0,0,1,.58-.23l2.57.8a13,13,0,0,1,1.17-1.18l-.79-2.57a.5.5,0,0,1,.23-.58l2.71-1.56a.5.5,0,0,1,.62.09l1.82,2a12.3,12.3,0,0,1,1.61-.43l.59-2.62a.51.51,0,0,1,.49-.39h3.13a.5.5,0,0,1,.49.39l.59,2.62a12,12,0,0,1,1.62.43l1.82-2a.49.49,0,0,1,.61-.09l2.72,1.56a.5.5,0,0,1,.22.58l-.79,2.57a14.6,14.6,0,0,1,1.18,1.18l2.56-.8a.49.49,0,0,1,.58.23l1.57,2.71a.5.5,0,0,1-.1.62l-2,1.82a14.1,14.1,0,0,1,.43,1.61l2.61.6a.49.49,0,0,1,.39.48v3.13a.49.49,0,0,1-.39.49l-2.61.6a14.1,14.1,0,0,1-.43,1.61l2,1.82a.5.5,0,0,1,.1.62l-1.57,2.71a.49.49,0,0,1-.58.22l-2.56-.79a14.6,14.6,0,0,1-1.18,1.18l.79,2.56a.51.51,0,0,1-.22.59l-2.72,1.56a.49.49,0,0,1-.61-.09l-1.82-2a13.73,13.73,0,0,1-1.62.43l-.59,2.62A.51.51,0,0,1,606.66,87.89Zm-2.73-1h2.33l.58-2.55a.52.52,0,0,1,.4-.39,11.65,11.65,0,0,0,2.09-.55.5.5,0,0,1,.54.13l1.77,1.91,2-1.16-.77-2.5a.5.5,0,0,1,.15-.53,12.29,12.29,0,0,0,1.53-1.53.5.5,0,0,1,.53-.15l2.5.77,1.16-2-1.91-1.77a.5.5,0,0,1-.13-.54,11.77,11.77,0,0,0,.55-2.08.53.53,0,0,1,.38-.41L620.2,73V70.61L617.65,70a.5.5,0,0,1-.38-.4,11.77,11.77,0,0,0-.55-2.08.49.49,0,0,1,.13-.54l1.91-1.77-1.16-2-2.5.77a.49.49,0,0,1-.53-.16A12.21,12.21,0,0,0,613,62.31a.5.5,0,0,1-.15-.53l.77-2.5-2-1.17L609.87,60a.52.52,0,0,1-.54.13,12.57,12.57,0,0,0-2.09-.56.49.49,0,0,1-.4-.38l-.58-2.55h-2.33l-.58,2.55a.48.48,0,0,1-.4.38,12.84,12.84,0,0,0-2.09.56.5.5,0,0,1-.54-.13l-1.77-1.92-2,1.17.78,2.5a.51.51,0,0,1-.16.53,12.92,12.92,0,0,0-1.53,1.52.49.49,0,0,1-.53.16l-2.49-.77-1.17,2L593.34,67a.49.49,0,0,1,.13.54,12.7,12.7,0,0,0-.55,2.08.49.49,0,0,1-.38.4l-2.55.58V73l2.55.57a.52.52,0,0,1,.38.41,12.7,12.7,0,0,0,.55,2.08.5.5,0,0,1-.13.54l-1.91,1.77,1.17,2,2.49-.77a.49.49,0,0,1,.53.16,13.73,13.73,0,0,0,1.53,1.52.51.51,0,0,1,.16.53l-.78,2.5,2,1.16,1.77-1.91a.5.5,0,0,1,.54-.13A11.88,11.88,0,0,0,603,84a.5.5,0,0,1,.4.39Zm1.17-7.39a7.72,7.72,0,1,1,7.72-7.72A7.72,7.72,0,0,1,605.1,79.5Zm0-14.44a6.72,6.72,0,1,0,6.72,6.72A6.72,6.72,0,0,0,605.1,65.06Z"/><path class="cls-2" d="M631.15,93.28V91.37L629.36,91a7.35,7.35,0,0,0-.36-1.32l1.35-1.25-1-1.65-1.75.54a7.33,7.33,0,0,0-1-1l.55-1.76-1.66-1L624.32,85A8.38,8.38,0,0,0,623,84.6l-.4-1.79h-1.91l-.41,1.79A8.26,8.26,0,0,0,619,85l-1.25-1.34-1.65,1,.54,1.76a7.26,7.26,0,0,0-1,1l-1.76-.54-1,1.65,1.34,1.25a8.26,8.26,0,0,0-.35,1.32l-1.79.41v1.91l1.79.4a8.38,8.38,0,0,0,.35,1.33l-1.34,1.24,1,1.66,1.76-.55a7.33,7.33,0,0,0,1,1l-.54,1.75,1.65,1L619,99.69a6.58,6.58,0,0,0,1.32.35l.41,1.8h1.91l.4-1.8a6.68,6.68,0,0,0,1.33-.35l1.24,1.35,1.66-1-.55-1.75a7.41,7.41,0,0,0,1-1l1.75.55,1-1.66L629,95a7.46,7.46,0,0,0,.36-1.33Zm-9.52,3.44a4.4,4.4,0,1,1,4.4-4.4A4.4,4.4,0,0,1,621.63,96.72Z"/><path class="cls-3" d="M622.59,102.34h-1.91a.51.51,0,0,1-.49-.39l-.33-1.48a6,6,0,0,1-.76-.2l-1,1.11a.5.5,0,0,1-.62.09l-1.65-1a.5.5,0,0,1-.23-.58l.45-1.45c-.19-.17-.38-.36-.56-.55l-1.44.44a.5.5,0,0,1-.58-.22l-1-1.66a.49.49,0,0,1,.09-.61l1.11-1c-.08-.25-.15-.5-.21-.76L612,93.77a.51.51,0,0,1-.39-.49V91.37a.5.5,0,0,1,.39-.49l1.47-.33c.06-.26.13-.52.21-.76l-1.11-1a.5.5,0,0,1-.09-.62l1-1.65a.5.5,0,0,1,.58-.23l1.44.45c.18-.19.37-.38.56-.56l-.45-1.44a.5.5,0,0,1,.23-.58l1.65-.95a.5.5,0,0,1,.62.09l1,1.11c.24-.08.5-.15.76-.21l.33-1.47a.5.5,0,0,1,.49-.39h1.91a.49.49,0,0,1,.48.39l.34,1.47c.26.06.51.13.76.21l1-1.11a.49.49,0,0,1,.61-.09l1.66.95a.5.5,0,0,1,.22.58l-.44,1.44c.19.18.38.37.55.56l1.45-.45a.52.52,0,0,1,.58.23l.95,1.65a.5.5,0,0,1-.09.62l-1.11,1a6,6,0,0,1,.2.76l1.48.33a.51.51,0,0,1,.39.49v1.91a.52.52,0,0,1-.39.49l-1.48.33a6.53,6.53,0,0,1-.2.76l1.11,1a.49.49,0,0,1,.09.61l-.95,1.66a.5.5,0,0,1-.58.22l-1.45-.44a7.14,7.14,0,0,1-.55.55l.44,1.45a.5.5,0,0,1-.22.58l-1.66,1a.49.49,0,0,1-.61-.09l-1-1.11a6.53,6.53,0,0,1-.76.2l-.34,1.48A.5.5,0,0,1,622.59,102.34Zm-1.51-1h1.11l.32-1.41a.5.5,0,0,1,.4-.38,6.47,6.47,0,0,0,1.24-.33.52.52,0,0,1,.54.13l1,1.06,1-.56-.42-1.37a.5.5,0,0,1,.15-.53,7.82,7.82,0,0,0,.91-.91.48.48,0,0,1,.53-.15l1.37.42.56-1-1.06-1a.5.5,0,0,1-.13-.53,6.47,6.47,0,0,0,.33-1.24.5.5,0,0,1,.39-.4l1.4-.32V91.77l-1.4-.32a.5.5,0,0,1-.39-.4,6.28,6.28,0,0,0-.33-1.24.52.52,0,0,1,.13-.54l1.06-1-.56-1-1.37.42a.5.5,0,0,1-.53-.15,7.11,7.11,0,0,0-.91-.91.5.5,0,0,1-.15-.53l.42-1.37-1-.56-1,1.05a.5.5,0,0,1-.54.13,8.37,8.37,0,0,0-1.24-.33.48.48,0,0,1-.4-.38l-.32-1.4h-1.11l-.32,1.4a.48.48,0,0,1-.4.38,8.37,8.37,0,0,0-1.24.33.5.5,0,0,1-.54-.13l-1-1.05-1,.56.42,1.37a.5.5,0,0,1-.15.53,6.52,6.52,0,0,0-.91.91.5.5,0,0,1-.53.15l-1.37-.42-.56,1,1.05,1a.5.5,0,0,1,.13.54,8.05,8.05,0,0,0-.33,1.24.48.48,0,0,1-.38.4l-1.4.32v1.11l1.4.32a.48.48,0,0,1,.38.4,8.37,8.37,0,0,0,.33,1.24.48.48,0,0,1-.13.53l-1.05,1,.56,1,1.37-.42A.5.5,0,0,1,616,97a7.11,7.11,0,0,0,.91.91.5.5,0,0,1,.15.53l-.42,1.37,1,.56,1-1.06a.5.5,0,0,1,.54-.13,6.47,6.47,0,0,0,1.24.33.5.5,0,0,1,.4.38Zm.55-4.12a4.9,4.9,0,1,1,4.9-4.9A4.9,4.9,0,0,1,621.63,97.22Zm0-8.8a3.9,3.9,0,1,0,3.9,3.9A3.91,3.91,0,0,0,621.63,88.42Z"/><path class="cls-3" d="M606.14,97.47a.5.5,0,0,1,0-1c.66,0,1.33-.08,2-.16a.51.51,0,0,1,.56.44.5.5,0,0,1-.44.55c-.68.08-1.37.14-2.06.17Zm-4-.16H602c-.68-.08-1.37-.19-2-.33a.5.5,0,0,1-.39-.59.51.51,0,0,1,.59-.39c.65.13,1.31.24,2,.31a.5.5,0,0,1,.43.56A.5.5,0,0,1,602.09,97.31Zm10-.82a.5.5,0,0,1-.14-1c.64-.18,1.28-.39,1.89-.63a.5.5,0,0,1,.65.29.52.52,0,0,1-.29.65c-.64.24-1.3.46-2,.65A.32.32,0,0,1,612.13,96.49Zm-16-.62-.17,0c-.65-.25-1.29-.52-1.91-.81a.5.5,0,1,1,.43-.91q.9.43,1.83.78a.5.5,0,0,1,.29.65A.49.49,0,0,1,596.18,95.87Zm21.54-1.76a.51.51,0,0,1-.44-.25.5.5,0,0,1,.18-.68c.57-.33,1.14-.69,1.68-1.07a.5.5,0,0,1,.7.13.49.49,0,0,1-.13.69q-.86.6-1.74,1.11A.47.47,0,0,1,617.72,94.11ZM590.8,93.05a.47.47,0,0,1-.28-.09c-.57-.39-1.12-.81-1.66-1.24a.52.52,0,0,1-.07-.71.5.5,0,0,1,.7-.07c.52.42,1,.82,1.6,1.2a.5.5,0,0,1-.29.91Zm31.77-2.6a.49.49,0,0,1-.36-.15.5.5,0,0,1,0-.71c.47-.45.94-.94,1.38-1.43a.5.5,0,0,1,.71,0,.5.5,0,0,1,0,.7c-.46.52-.94,1-1.44,1.49A.45.45,0,0,1,622.57,90.45ZM586.25,89a.49.49,0,0,1-.37-.16c-.46-.52-.9-1.06-1.32-1.6a.51.51,0,0,1,.1-.7.49.49,0,0,1,.7.09c.4.53.82,1,1.26,1.54a.49.49,0,0,1-.37.83Zm40.16-3.27a.56.56,0,0,1-.27-.08A.5.5,0,0,1,626,85c.35-.55.69-1.13,1-1.72a.5.5,0,0,1,.89.46c-.32.62-.67,1.22-1,1.8A.48.48,0,0,1,626.41,85.75ZM582.79,84a.49.49,0,0,1-.44-.26c-.33-.61-.63-1.24-.9-1.87a.51.51,0,0,1,.27-.66.49.49,0,0,1,.65.27c.26.6.55,1.2.86,1.79A.5.5,0,0,1,583,84,.46.46,0,0,1,582.79,84ZM629,80.26a.41.41,0,0,1-.16,0,.51.51,0,0,1-.32-.63c.21-.63.4-1.27.56-1.91a.49.49,0,0,1,.6-.37.51.51,0,0,1,.37.61c-.17.66-.36,1.33-.58,2A.49.49,0,0,1,629,80.26Zm-48.4-1.9a.5.5,0,0,1-.48-.38c-.17-.67-.31-1.35-.42-2a.5.5,0,0,1,.42-.57.5.5,0,0,1,.57.41c.11.65.24,1.31.4,1.95a.49.49,0,0,1-.37.6Zm49.61-4a.51.51,0,0,1-.5-.54c0-.66.08-1.33.08-2v-.1a.5.5,0,0,1,.5-.5.5.5,0,0,1,.5.5v.1c0,.68,0,1.38-.08,2.07A.51.51,0,0,1,630.23,74.31Zm-50.34-2a.47.47,0,0,1-.5-.47v0c0-.68,0-1.35.07-2a.5.5,0,1,1,1,.08c-.05.64-.07,1.29-.07,1.94A.52.52,0,0,1,579.89,72.3ZM630,68.14a.5.5,0,0,1-.49-.42c-.11-.66-.25-1.31-.41-2a.5.5,0,1,1,1-.24c.17.66.31,1.34.42,2a.5.5,0,0,1-.41.58ZM580.6,66.3l-.12,0a.5.5,0,0,1-.37-.6c.17-.67.36-1.34.57-2a.52.52,0,0,1,.64-.32.5.5,0,0,1,.31.64c-.2.62-.39,1.26-.55,1.91A.49.49,0,0,1,580.6,66.3Zm47.66-4a.52.52,0,0,1-.46-.3c-.26-.61-.55-1.21-.86-1.8a.49.49,0,0,1,.21-.67.49.49,0,0,1,.67.2c.32.61.63,1.24.9,1.87a.51.51,0,0,1-.26.66A.71.71,0,0,1,628.26,62.31Zm-45.52-1.7a.46.46,0,0,1-.23,0,.51.51,0,0,1-.21-.68c.32-.61.67-1.21,1-1.79a.5.5,0,0,1,.69-.16.51.51,0,0,1,.16.69c-.35.56-.69,1.14-1,1.73A.5.5,0,0,1,582.74,60.61Zm42.46-3.55a.51.51,0,0,1-.4-.2c-.4-.52-.82-1-1.26-1.53a.5.5,0,0,1,0-.71.5.5,0,0,1,.7,0c.46.52.91,1.06,1.32,1.6a.5.5,0,0,1-.1.7A.47.47,0,0,1,625.2,57.06Zm-39-1.45a.5.5,0,0,1-.38-.83c.46-.52.94-1,1.43-1.5a.51.51,0,0,1,.71,0,.5.5,0,0,1,0,.71q-.72.69-1.38,1.44A.51.51,0,0,1,586.19,55.61ZM621,52.7a.47.47,0,0,1-.32-.12c-.52-.41-1-.81-1.59-1.19a.5.5,0,1,1,.56-.82c.57.39,1.12.8,1.66,1.24a.49.49,0,0,1,.07.7A.5.5,0,0,1,621,52.7Zm-30.26-1.13a.5.5,0,0,1-.41-.22.49.49,0,0,1,.13-.69c.56-.4,1.15-.77,1.74-1.12a.49.49,0,0,1,.68.18.51.51,0,0,1-.18.69c-.57.33-1.13.69-1.67,1.07A.52.52,0,0,1,590.72,51.57Zm25.11-2.11a.41.41,0,0,1-.21-.05c-.6-.28-1.21-.54-1.84-.77a.5.5,0,0,1-.29-.64.52.52,0,0,1,.65-.3c.64.25,1.29.52,1.9.81a.5.5,0,0,1,.24.67A.48.48,0,0,1,615.83,49.46Zm-19.74-.73a.52.52,0,0,1-.47-.33.5.5,0,0,1,.29-.64c.64-.25,1.3-.47,2-.66a.5.5,0,1,1,.28,1c-.64.18-1.27.4-1.88.63A.39.39,0,0,1,596.09,48.73Zm14-1.17H610c-.65-.13-1.31-.24-2-.31a.5.5,0,0,1,.11-1c.69.08,1.37.19,2,.33a.5.5,0,0,1,.39.59A.51.51,0,0,1,610.06,47.56Zm-8.08-.3a.5.5,0,0,1-.49-.44.5.5,0,0,1,.43-.56c.68-.08,1.38-.14,2.06-.17a.5.5,0,0,1,0,1c-.66,0-1.33.08-2,.17Z"/><rect class="cls-2" x="10.18" y="91.52" width="31.06" height="22.84" rx="1.6"/><path class="cls-3" d="M39.64,114.86H11.78a2.1,2.1,0,0,1-2.1-2.1V93.12a2.1,2.1,0,0,1,2.1-2.1H39.64a2.1,2.1,0,0,1,2.1,2.1v19.64A2.1,2.1,0,0,1,39.64,114.86ZM11.78,92a1.1,1.1,0,0,0-1.1,1.1v19.64a1.1,1.1,0,0,0,1.1,1.1H39.64a1.1,1.1,0,0,0,1.1-1.1V93.12a1.1,1.1,0,0,0-1.1-1.1Z"/><path class="cls-2" d="M10.66,92l14,13.13a1.6,1.6,0,0,0,2.18,0L40.76,92Z"/><path class="cls-3" d="M25.71,106a2.1,2.1,0,0,1-1.44-.57L10.32,92.34a.5.5,0,0,1,0-.71.49.49,0,0,1,.7,0l14,13.13a1.09,1.09,0,0,0,1.5,0l14-13.13a.49.49,0,0,1,.7,0,.5.5,0,0,1,0,.71l-14,13.13A2.1,2.1,0,0,1,25.71,106Z"/><path class="cls-1" d="M22.32,102.94l-11.66,11Z"/><path class="cls-3" d="M10.66,114.41a.52.52,0,0,1-.36-.16.5.5,0,0,1,0-.71l11.65-11a.5.5,0,0,1,.69.73L11,114.27A.48.48,0,0,1,10.66,114.41Z"/><path class="cls-1" d="M29.11,102.94l11.65,11Z"/><path class="cls-3" d="M40.76,114.41a.49.49,0,0,1-.34-.14l-11.66-11a.5.5,0,1,1,.69-.73l11.65,11a.5.5,0,0,1,0,.71A.52.52,0,0,1,40.76,114.41Z"/><path class="cls-3" d="M30.61,97c0,1.81-.83,2.84-2.07,2.84A1.33,1.33,0,0,1,27.16,99a1.9,1.9,0,0,1-1.73.88,2.56,2.56,0,0,1,0-5.1,2,2,0,0,1,1.56.67v-.6h1.37v3.27c0,.49.21.65.48.65.47,0,.75-.54.75-1.71a3.44,3.44,0,0,0-3.76-3.46,3.66,3.66,0,1,0,0,7.32,4.6,4.6,0,0,0,2-.44l.33.92a5.41,5.41,0,0,1-2.32.49,4.63,4.63,0,1,1,0-9.25C28.67,92.64,30.61,94.51,30.61,97Zm-3.6.29a1.27,1.27,0,1,0-1.27,1.39A1.24,1.24,0,0,0,27,97.33Z"/><path class="cls-3" d="M26.75,128.63a.5.5,0,0,1,0-1c.66,0,1.33-.08,2-.16a.49.49,0,0,1,.55.44.49.49,0,0,1-.43.55c-.69.09-1.38.14-2.07.17Zm-4.05-.16h-.06c-.68-.08-1.37-.19-2-.33a.48.48,0,0,1-.39-.58.5.5,0,0,1,.59-.4c.65.13,1.31.24,2,.32a.5.5,0,0,1-.06,1Zm10.05-.81a.5.5,0,0,1-.14-1c.63-.19,1.27-.4,1.88-.63a.5.5,0,0,1,.65.29.5.5,0,0,1-.29.64c-.64.24-1.3.47-2,.66ZM16.8,127a.57.57,0,0,1-.18,0c-.64-.24-1.28-.52-1.91-.81a.51.51,0,0,1-.23-.67.49.49,0,0,1,.66-.23c.6.28,1.22.54,1.84.77a.52.52,0,0,1,.29.65A.51.51,0,0,1,16.8,127Zm21.53-1.76a.5.5,0,0,1-.25-.93c.57-.33,1.14-.69,1.68-1.07a.5.5,0,1,1,.57.82c-.57.4-1.15.77-1.75,1.11A.45.45,0,0,1,38.33,125.27Zm-26.91-1.06a.52.52,0,0,1-.29-.09c-.56-.39-1.12-.8-1.65-1.24a.5.5,0,1,1,.63-.77c.51.41,1.05.82,1.59,1.19a.5.5,0,0,1-.28.91Zm31.76-2.59a.52.52,0,0,1-.36-.16.49.49,0,0,1,0-.7c.47-.46.94-1,1.37-1.44a.5.5,0,0,1,.71,0,.49.49,0,0,1,0,.7c-.45.52-.93,1-1.43,1.5A.52.52,0,0,1,43.18,121.62ZM6.86,120.19a.51.51,0,0,1-.37-.17c-.46-.52-.9-1-1.31-1.6a.5.5,0,1,1,.8-.6c.39.52.82,1,1.26,1.53a.51.51,0,0,1,0,.71A.55.55,0,0,1,6.86,120.19ZM47,116.91a.43.43,0,0,1-.27-.08.51.51,0,0,1-.16-.69c.36-.56.69-1.14,1-1.72a.5.5,0,1,1,.88.47c-.31.6-.66,1.2-1,1.79A.51.51,0,0,1,47,116.91ZM3.4,115.2a.5.5,0,0,1-.44-.27c-.32-.61-.62-1.24-.89-1.87a.5.5,0,0,1,.26-.65.51.51,0,0,1,.66.26c.26.61.55,1.21.85,1.79a.5.5,0,0,1-.2.68A.53.53,0,0,1,3.4,115.2Zm46.23-3.78-.16,0a.49.49,0,0,1-.31-.63c.21-.62.39-1.26.55-1.91a.5.5,0,0,1,1,.24c-.16.67-.36,1.34-.57,2A.5.5,0,0,1,49.63,111.42Zm-48.39-1.9a.5.5,0,0,1-.49-.38c-.16-.66-.3-1.35-.41-2a.5.5,0,0,1,.41-.58.49.49,0,0,1,.57.41c.11.66.25,1.31.4,2a.5.5,0,0,1-.36.61Zm49.6-4a.51.51,0,0,1-.5-.54c0-.66.08-1.33.08-2v-.1a.5.5,0,0,1,1,0v.1c0,.69,0,1.38-.08,2.07A.5.5,0,0,1,50.84,105.47Zm-50.34-2A.48.48,0,0,1,0,103v0c0-.67,0-1.34.08-2a.48.48,0,0,1,.53-.46.49.49,0,0,1,.46.53c-.05.65-.07,1.3-.07,1.94A.52.52,0,0,1,.5,103.47ZM50.58,99.3a.5.5,0,0,1-.49-.42c-.11-.65-.24-1.31-.4-1.95a.48.48,0,0,1,.36-.6.5.5,0,0,1,.61.36c.16.67.3,1.35.42,2a.5.5,0,0,1-.42.57ZM1.21,97.46H1.1a.5.5,0,0,1-.37-.61c.16-.67.35-1.34.57-2a.5.5,0,0,1,1,.32c-.21.62-.39,1.26-.55,1.91A.5.5,0,0,1,1.21,97.46Zm47.66-4a.5.5,0,0,1-.46-.3c-.26-.61-.55-1.21-.86-1.79a.51.51,0,0,1,.21-.68.5.5,0,0,1,.68.21c.32.6.62,1.23.89,1.86a.5.5,0,0,1-.26.66A.45.45,0,0,1,48.87,93.47ZM3.36,91.78a.53.53,0,0,1-.24-.06A.52.52,0,0,1,2.91,91c.32-.61.67-1.21,1-1.79a.51.51,0,0,1,.69-.16.5.5,0,0,1,.15.69c-.35.56-.68,1.14-1,1.73A.5.5,0,0,1,3.36,91.78Zm42.45-3.56a.5.5,0,0,1-.4-.19c-.4-.53-.82-1-1.26-1.54a.5.5,0,0,1,.75-.66c.45.51.9,1,1.31,1.59a.5.5,0,0,1-.1.7A.47.47,0,0,1,45.81,88.22Zm-39-1.45a.5.5,0,0,1-.33-.12.51.51,0,0,1,0-.71c.46-.52.94-1,1.43-1.5a.5.5,0,0,1,.71,0,.49.49,0,0,1,0,.7q-.72.69-1.38,1.44A.48.48,0,0,1,6.8,86.77Zm34.79-2.91a.56.56,0,0,1-.32-.11c-.51-.42-1-.82-1.59-1.19a.5.5,0,0,1-.13-.7.51.51,0,0,1,.7-.13c.56.39,1.12.81,1.65,1.24a.5.5,0,0,1-.31.89ZM11.34,82.73a.52.52,0,0,1-.42-.22.5.5,0,0,1,.13-.69c.56-.39,1.15-.77,1.74-1.11a.51.51,0,0,1,.69.18.49.49,0,0,1-.18.68c-.58.33-1.14.69-1.68,1.07A.51.51,0,0,1,11.34,82.73Zm25.1-2.11a.52.52,0,0,1-.21,0C35.64,80.3,35,80,34.4,79.8a.5.5,0,1,1,.35-.93c.65.24,1.29.51,1.91.8a.5.5,0,0,1-.22,1ZM16.7,79.89a.5.5,0,0,1-.18-1c.64-.24,1.3-.47,2-.66a.5.5,0,0,1,.28,1c-.63.19-1.27.4-1.88.64A.57.57,0,0,1,16.7,79.89Zm14-1.17h-.1c-.64-.13-1.3-.23-2-.31a.51.51,0,0,1-.44-.56.49.49,0,0,1,.56-.43c.68.08,1.37.18,2,.32a.49.49,0,0,1,.39.59A.49.49,0,0,1,30.67,78.72Zm-8.08-.3A.5.5,0,0,1,22.1,78a.49.49,0,0,1,.43-.55c.68-.09,1.38-.14,2.06-.17a.5.5,0,1,1,.05,1c-.66,0-1.33.09-2,.17Z"/><path class="cls-3" d="M199.48,348.82a.5.5,0,0,1,0-1c.66,0,1.33-.08,2-.16a.5.5,0,0,1,.56.43.51.51,0,0,1-.44.56c-.68.08-1.37.14-2.06.17Zm-4-.16h-.06c-.68-.08-1.37-.19-2.05-.33a.5.5,0,0,1-.39-.59.51.51,0,0,1,.59-.39c.65.13,1.31.24,2,.31a.5.5,0,0,1-.06,1Zm10-.81a.52.52,0,0,1-.48-.37.51.51,0,0,1,.34-.62c.64-.18,1.28-.39,1.89-.63a.5.5,0,1,1,.36.94c-.64.24-1.3.46-2,.66Zm-15.95-.63-.17,0c-.64-.25-1.29-.52-1.91-.81a.5.5,0,0,1-.24-.67.51.51,0,0,1,.67-.24q.9.43,1.83.78a.5.5,0,0,1,.29.64A.48.48,0,0,1,189.52,347.22Zm21.54-1.76a.52.52,0,0,1-.44-.25.5.5,0,0,1,.19-.68c.57-.34,1.14-.7,1.67-1.07a.5.5,0,0,1,.7.13.49.49,0,0,1-.13.69q-.84.59-1.74,1.11A.47.47,0,0,1,211.06,345.46Zm-26.92-1.06a.47.47,0,0,1-.28-.09c-.57-.39-1.13-.81-1.66-1.24a.52.52,0,0,1-.07-.71.5.5,0,0,1,.7-.07c.51.42,1,.82,1.6,1.2a.5.5,0,0,1-.29.91Zm31.77-2.6a.5.5,0,0,1-.35-.86c.48-.46.94-.94,1.38-1.43a.48.48,0,0,1,.7,0,.49.49,0,0,1,.05.7c-.46.51-.94,1-1.44,1.49A.45.45,0,0,1,215.91,341.8Zm-36.32-1.43a.47.47,0,0,1-.37-.16c-.46-.52-.9-1.06-1.32-1.61a.5.5,0,0,1,.8-.6c.4.53.82,1.05,1.26,1.54a.49.49,0,0,1-.37.83Zm40.16-3.27a.56.56,0,0,1-.27-.08.5.5,0,0,1-.15-.69c.36-.56.69-1.14,1-1.72a.5.5,0,0,1,.89.46c-.32.6-.66,1.21-1,1.79A.47.47,0,0,1,219.75,337.1Zm-43.62-1.72a.49.49,0,0,1-.44-.26c-.32-.61-.62-1.24-.9-1.87a.51.51,0,0,1,.27-.66.49.49,0,0,1,.65.27c.26.6.55,1.21.86,1.79a.5.5,0,0,1-.21.68A.59.59,0,0,1,176.13,335.38Zm46.23-3.77-.16,0a.52.52,0,0,1-.32-.64c.21-.62.4-1.27.56-1.91a.49.49,0,0,1,.6-.36.5.5,0,0,1,.37.6c-.17.67-.36,1.34-.58,2A.49.49,0,0,1,222.36,331.61Zm-48.4-1.9a.49.49,0,0,1-.48-.38c-.17-.67-.31-1.35-.42-2a.5.5,0,0,1,1-.16c.11.65.24,1.31.4,1.95a.49.49,0,0,1-.37.6Zm49.61-4a.51.51,0,0,1-.5-.54c.05-.66.08-1.33.08-2V323a.5.5,0,0,1,.5-.5.5.5,0,0,1,.5.5v.1q0,1-.09,2.07A.49.49,0,0,1,223.57,325.66Zm-50.34-2a.47.47,0,0,1-.5-.47h.5l-.5,0c0-.68,0-1.36.07-2a.49.49,0,0,1,.54-.46.5.5,0,0,1,.46.54c-.05.64-.07,1.3-.07,1.94A.52.52,0,0,1,173.23,323.65Zm50.08-4.16a.5.5,0,0,1-.49-.42c-.11-.66-.25-1.31-.41-1.95a.5.5,0,1,1,1-.24c.17.66.31,1.34.42,2a.5.5,0,0,1-.41.58Zm-49.37-1.84-.12,0a.5.5,0,0,1-.37-.6c.17-.67.36-1.34.57-2a.51.51,0,0,1,.64-.32.5.5,0,0,1,.31.63c-.2.63-.39,1.28-.54,1.92A.51.51,0,0,1,173.94,317.65Zm47.66-4a.5.5,0,0,1-.46-.3c-.26-.61-.55-1.21-.86-1.8a.5.5,0,1,1,.88-.46c.33.6.63,1.23.9,1.86a.51.51,0,0,1-.26.66A.48.48,0,0,1,221.6,313.66ZM176.08,312a.59.59,0,0,1-.23,0,.5.5,0,0,1-.21-.68c.32-.61.66-1.21,1-1.79a.49.49,0,0,1,.69-.16.51.51,0,0,1,.16.69c-.36.56-.69,1.14-1,1.72A.49.49,0,0,1,176.08,312Zm42.46-3.55a.51.51,0,0,1-.4-.2c-.4-.52-.82-1-1.26-1.53a.5.5,0,0,1,0-.71.5.5,0,0,1,.7,0c.46.52.9,1.05,1.32,1.6a.51.51,0,0,1-.1.7A.49.49,0,0,1,218.54,308.41Zm-39-1.45a.46.46,0,0,1-.33-.13.49.49,0,0,1,0-.7c.46-.52.94-1,1.43-1.5a.5.5,0,0,1,.71,0,.51.51,0,0,1,0,.71q-.72.69-1.38,1.44A.51.51,0,0,1,179.53,307Zm34.78-2.91a.47.47,0,0,1-.31-.12c-.51-.41-1.05-.81-1.59-1.19a.5.5,0,0,1,.56-.82c.57.39,1.13.81,1.66,1.24a.49.49,0,0,1,.07.7A.51.51,0,0,1,214.31,304.05Zm-30.25-1.13a.5.5,0,0,1-.41-.22.49.49,0,0,1,.13-.69c.56-.4,1.15-.77,1.74-1.12a.5.5,0,0,1,.68.18.51.51,0,0,1-.18.69c-.56.33-1.13.69-1.67,1.07A.52.52,0,0,1,184.06,302.92Zm25.11-2.11a.41.41,0,0,1-.21-.05c-.59-.28-1.21-.54-1.83-.77a.5.5,0,1,1,.35-.94c.65.25,1.29.52,1.91.81a.5.5,0,0,1,.23.67A.48.48,0,0,1,209.17,300.81Zm-19.74-.73a.52.52,0,0,1-.47-.32.5.5,0,0,1,.29-.65c.64-.25,1.3-.47,2-.66a.5.5,0,1,1,.28,1c-.63.18-1.26.4-1.88.63A.39.39,0,0,1,189.43,300.08Zm14-1.17h-.1c-.64-.13-1.3-.24-2-.31a.5.5,0,0,1-.44-.56.51.51,0,0,1,.55-.44c.69.08,1.38.19,2.05.33a.49.49,0,0,1,.39.58A.51.51,0,0,1,203.4,298.91Zm-8.08-.3a.5.5,0,0,1-.06-1c.68-.08,1.37-.14,2.06-.17a.51.51,0,0,1,.52.48.5.5,0,0,1-.48.52c-.66,0-1.33.08-2,.16Z"/><circle class="cls-2" cx="198.53" cy="323.13" r="17.28" transform="translate(-161.78 441.47) rotate(-76.62)"/><path class="cls-3" d="M198.53,340.91a17.78,17.78,0,1,1,17.78-17.78A17.81,17.81,0,0,1,198.53,340.91Zm0-34.56a16.78,16.78,0,1,0,16.78,16.78A16.8,16.8,0,0,0,198.53,306.35Z"/><circle class="cls-2" cx="198.53" cy="323.13" r="17.28" transform="translate(-161.78 441.47) rotate(-76.62)"/><path class="cls-3" d="M198.53,340.91a17.78,17.78,0,1,1,17.78-17.78A17.81,17.81,0,0,1,198.53,340.91Zm0-34.56a16.78,16.78,0,1,0,16.78,16.78A16.8,16.8,0,0,0,198.53,306.35Z"/><path class="cls-2" d="M198.52,340.43a19,19,0,0,1,0-34.61Z"/><path class="cls-3" d="M198.52,340.93a.58.58,0,0,1-.19,0c-6.85-2.8-11.45-9.94-11.45-17.77s4.6-15,11.45-17.77a.5.5,0,0,1,.65.28.51.51,0,0,1-.27.65c-6.48,2.64-10.83,9.41-10.83,16.84s4.35,14.19,10.83,16.84a.51.51,0,0,1,.27.65A.49.49,0,0,1,198.52,340.93Z"/><path class="cls-2" d="M198.57,340.43a19,19,0,0,0,0-34.61Z"/><path class="cls-3" d="M198.57,340.93a.5.5,0,0,1-.19-1c6.48-2.65,10.83-9.41,10.83-16.84s-4.36-14.2-10.83-16.84a.49.49,0,0,1-.27-.65.5.5,0,0,1,.65-.28c6.85,2.8,11.45,9.94,11.45,17.77s-4.6,15-11.45,17.77A.63.63,0,0,1,198.57,340.93Z"/><path class="cls-2" d="M198.53,305.85v0Z"/><path class="cls-3" d="M198.53,340.91a.5.5,0,0,1-.5-.5V305.85a.5.5,0,0,1,.5-.5.5.5,0,0,1,.5.5v34.56A.51.51,0,0,1,198.53,340.91Z"/><path class="cls-2" d="M215.79,323.13h0Z"/><path class="cls-3" d="M215.79,323.63H181.26a.5.5,0,0,1,0-1h34.53a.5.5,0,0,1,0,1Z"/><path class="cls-2" d="M213.4,314.49h0Z"/><path class="cls-3" d="M213.4,315H183.48a.5.5,0,0,1,0-1H213.4a.5.5,0,0,1,0,1Z"/><path class="cls-2" d="M213.57,331.77h0Z"/><path class="cls-3" d="M213.57,332.27h-30a.5.5,0,0,1-.5-.5.5.5,0,0,1,.5-.5h30a.5.5,0,0,1,.5.5A.51.51,0,0,1,213.57,332.27Z"/></g></g></svg>