<svg xmlns="http://www.w3.org/2000/svg" viewBox="0 0 83.31 69.56"><defs><style>.cls-1,.cls-5{fill:#f7f0e9;}.cls-2{fill:#00bcd6;}.cls-3,.cls-7{fill:#f06934;}.cls-4,.cls-6{fill:#00a9b4;}.cls-5,.cls-6,.cls-7{fill-rule:evenodd;}</style></defs><title>alfianjau-Asset 3</title><g id="Layer_2" data-name="Layer 2"><g id="Layer_1-2" data-name="Layer 1"><path class="cls-1" d="M72.85,35.53A31.53,31.53,0,1,1,41.32,4,31.54,31.54,0,0,1,72.85,35.53Z"/><path class="cls-1" d="M41.18,10.37H21A3.08,3.08,0,0,1,18,7.28h0A3.08,3.08,0,0,1,21,4.2H41.18a3.08,3.08,0,0,1,3.08,3.08h0A3.08,3.08,0,0,1,41.18,10.37Z"/><path class="cls-2" d="M41.32,63.73a28.2,28.2,0,1,1,28.2-28.2A28.22,28.22,0,0,1,41.32,63.73Zm0-55.47A27.27,27.27,0,1,0,68.58,35.53,27.3,27.3,0,0,0,41.32,8.26Z"/><path class="cls-1" d="M16,53.78H28.94a2.41,2.41,0,0,1,2.42,2.41h0a2.41,2.41,0,0,1-2.42,2.41H16a2.41,2.41,0,0,1-2.42-2.41h0A2.42,2.42,0,0,1,16,53.78Z"/><path class="cls-1" d="M13.44,63.25H32.62a1.56,1.56,0,0,1,1.56,1.57h0a1.57,1.57,0,0,1-1.56,1.57H13.44a1.57,1.57,0,0,1-1.56-1.57h0A1.56,1.56,0,0,1,13.44,63.25Z"/><rect class="cls-1" x="53.72" y="66.43" width="6.06" height="3.13" rx="0.13" transform="translate(113.5 135.99) rotate(180)"/><path class="cls-1" d="M39.21,57.17H68.08a2.57,2.57,0,0,1,2.57,2.57h0a2.57,2.57,0,0,1-2.57,2.57H39.21a2.57,2.57,0,0,1-2.57-2.57h0A2.57,2.57,0,0,1,39.21,57.17Z"/><path class="cls-1" d="M18.75,58.57h9a2.45,2.45,0,0,0-1.71.72,2.23,2.23,0,0,0-.7,1.63,2.34,2.34,0,0,0,2.41,2.33h-9A2.26,2.26,0,0,0,21.17,61,2.39,2.39,0,0,0,18.75,58.57Z"/><path class="cls-1" d="M55.74,31H79a4.33,4.33,0,0,1,4.33,4.34h0A4.33,4.33,0,0,1,79,39.66H55.74a4.33,4.33,0,0,1-4.34-4.32h0A4.34,4.34,0,0,1,55.74,31Z"/><path class="cls-1" d="M45.82,48.09H80.26a2.81,2.81,0,0,1,2.81,2.82h0a2.81,2.81,0,0,1-2.81,2.82H45.82A2.81,2.81,0,0,1,43,50.91h0A2.81,2.81,0,0,1,45.82,48.09Z"/><path class="cls-1" d="M61,39.7h16.2A4.25,4.25,0,0,0,74.09,41a3.94,3.94,0,0,0-1.28,2.9,4.21,4.21,0,0,0,4.34,4.19H61A4.24,4.24,0,0,0,64,46.93a4.12,4.12,0,0,0,1.28-3A4.27,4.27,0,0,0,61,39.7Z"/><path class="cls-1" d="M34.67,27.23H7.44a4.62,4.62,0,0,1-4.61-4.62h0A4.6,4.6,0,0,1,7.44,18H34.67a4.61,4.61,0,0,1,4.61,4.6h0A4.63,4.63,0,0,1,34.67,27.23Z"/><path class="cls-1" d="M46,53.19H6.66A6.66,6.66,0,0,1,0,46.53H0a6.66,6.66,0,0,1,6.66-6.66H46a6.66,6.66,0,0,1,6.65,6.66h0A6.66,6.66,0,0,1,46,53.19Z"/><path class="cls-1" d="M68.29,16.73H46.56A3.69,3.69,0,0,1,42.88,13h0a3.68,3.68,0,0,1,3.68-3.67H68.29A3.68,3.68,0,0,1,72,13h0A3.69,3.69,0,0,1,68.29,16.73Z"/><path class="cls-1" d="M61.6,4H56.44a2,2,0,0,1-2-2h0a2,2,0,0,1,2-2H61.6a2,2,0,0,1,2,2h0A2,2,0,0,1,61.6,4Z"/><path class="cls-1" d="M46.38,15.86s-5.09-4.1-5.09-4.1-5.09,4.06-5.09,4.1v0H46.38Z"/><rect class="cls-3" x="36.2" y="15.84" width="10.19" height="1.49"/><path class="cls-4" d="M46.38,16.09H36.2a.23.23,0,0,1-.23-.23v0a.23.23,0,0,1,.13-.21c.56-.48,4.85-3.9,5-4.05a.23.23,0,0,1,.29,0c.2.15,4.59,3.64,5.07,4.07a.2.2,0,0,1,.11.19h0A.23.23,0,0,1,46.38,16.09Zm-9.52-.48h8.86c-1-.79-3.11-2.49-4.43-3.54C40,13.12,37.82,14.82,36.86,15.61Z"/><path class="cls-4" d="M46.38,17.56H36.2a.23.23,0,0,1-.23-.23V15.84a.23.23,0,0,1,.23-.23H46.38a.23.23,0,0,1,.23.23v1.49A.23.23,0,0,1,46.38,17.56Zm-10-.47h9.72v-1H36.43Z"/><path class="cls-3" d="M46.38,19.66v7.48H49A1.38,1.38,0,0,0,50.14,25Z"/><path class="cls-3" d="M33.61,27.14H36.2V19.66L32.47,25A1.4,1.4,0,0,0,33.61,27.14Z"/><path class="cls-4" d="M49,27.37H46.38a.23.23,0,0,1-.23-.23V19.66a.24.24,0,0,1,.16-.23.29.29,0,0,1,.27.09l3.75,5.29A1.62,1.62,0,0,1,49,27.37Zm-2.4-.46H49a1.15,1.15,0,0,0,1-.63,1.13,1.13,0,0,0-.09-1.2l-3.34-4.69Z"/><path class="cls-4" d="M36.2,27.37H33.61a1.62,1.62,0,0,1-1.44-.87,1.66,1.66,0,0,1,.11-1.69L36,19.52a.27.27,0,0,1,.27-.09.24.24,0,0,1,.16.23v7.48A.23.23,0,0,1,36.2,27.37Zm-.23-7-3.3,4.69a1.16,1.16,0,0,0,.94,1.82H36Z"/><path class="cls-1" d="M36.2,17.33V30.46a2.69,2.69,0,0,0,2.73,2.77h0v1.05h4.62V33.23h.08a2.72,2.72,0,0,0,2.76-2.77V17.33Z"/><path class="cls-1" d="M36.2,30.48a2.69,2.69,0,0,0,2.73,2.75h0v1.05h4.62V33.23h.08a2.72,2.72,0,0,0,2.76-2.75Z"/><path class="cls-3" d="M37,30a.47.47,0,1,1,.47-.46A.48.48,0,0,1,37,30Z"/><path class="cls-3" d="M38.45,30a.47.47,0,1,1,0-.93.47.47,0,0,1,0,.93Z"/><path class="cls-3" d="M39.9,30a.47.47,0,1,1,.47-.46A.47.47,0,0,1,39.9,30Z"/><path class="cls-3" d="M41.35,30a.47.47,0,1,1,.47-.46A.47.47,0,0,1,41.35,30Z"/><path class="cls-3" d="M42.8,30a.47.47,0,1,1,.47-.46A.47.47,0,0,1,42.8,30Z"/><path class="cls-3" d="M44.25,30a.47.47,0,1,1,.47-.46A.47.47,0,0,1,44.25,30Z"/><path class="cls-3" d="M45.7,30a.47.47,0,1,1,.47-.46A.47.47,0,0,1,45.7,30Z"/><path class="cls-4" d="M37,30.25a.71.71,0,0,1-.71-.7.71.71,0,0,1,1.41,0A.71.71,0,0,1,37,30.25Zm0-.94a.24.24,0,0,0-.24.24.23.23,0,0,0,.24.23.23.23,0,0,0,.23-.23A.23.23,0,0,0,37,29.31Z"/><path class="cls-4" d="M38.45,30.25a.7.7,0,0,1-.7-.7.7.7,0,1,1,1.4,0A.7.7,0,0,1,38.45,30.25Zm0-.94a.24.24,0,0,0-.24.24.24.24,0,0,0,.47,0A.24.24,0,0,0,38.45,29.31Z"/><path class="cls-4" d="M39.9,30.25a.7.7,0,0,1-.7-.7.7.7,0,0,1,1.4,0A.71.71,0,0,1,39.9,30.25Zm0-.94a.24.24,0,0,0-.24.24.24.24,0,0,0,.48,0A.24.24,0,0,0,39.9,29.31Z"/><path class="cls-4" d="M41.35,30.25a.7.7,0,0,1-.7-.7.7.7,0,1,1,1.4,0A.7.7,0,0,1,41.35,30.25Zm0-.94a.23.23,0,0,0-.23.24.23.23,0,0,0,.23.23.23.23,0,0,0,.24-.23A.24.24,0,0,0,41.35,29.31Z"/><path class="cls-4" d="M42.8,30.25a.71.71,0,0,1-.7-.7.71.71,0,0,1,1.41,0A.71.71,0,0,1,42.8,30.25Zm0-.94a.23.23,0,0,0-.23.24.23.23,0,0,0,.23.23.23.23,0,0,0,.24-.23A.24.24,0,0,0,42.8,29.31Z"/><path class="cls-4" d="M44.25,30.25a.71.71,0,0,1-.7-.7.71.71,0,0,1,1.41,0A.71.71,0,0,1,44.25,30.25Zm0-.94a.24.24,0,0,0-.23.24.24.24,0,0,0,.47,0A.24.24,0,0,0,44.25,29.31Z"/><path class="cls-4" d="M45.7,30.25a.71.71,0,0,1-.7-.7.71.71,0,0,1,1.41,0A.71.71,0,0,1,45.7,30.25Zm0-.94a.24.24,0,0,0-.23.24.23.23,0,0,0,.23.23.23.23,0,0,0,.24-.23A.24.24,0,0,0,45.7,29.31Z"/><path class="cls-3" d="M43.28,21.72a2,2,0,1,1-2-2A2,2,0,0,1,43.28,21.72Z"/><path class="cls-4" d="M41.29,24a2.23,2.23,0,1,1,2.22-2.23A2.22,2.22,0,0,1,41.29,24Zm0-4a1.76,1.76,0,1,0,1.76,1.75A1.75,1.75,0,0,0,41.29,20Z"/><path class="cls-4" d="M41.29,24.92a3.21,3.21,0,1,1,3.2-3.2A3.21,3.21,0,0,1,41.29,24.92Zm0-5.94A2.74,2.74,0,1,0,44,21.72,2.74,2.74,0,0,0,41.29,19Z"/><path class="cls-2" d="M58.84,42.7A4.38,4.38,0,0,0,55,45a5.59,5.59,0,0,0-9.91-1.35,4.39,4.39,0,0,0-3.92,3.6,4.07,4.07,0,0,0-2.35-2.61,5.81,5.81,0,0,0-10.89,0,4.06,4.06,0,1,0,.91,5.67,5.84,5.84,0,0,0,6.66,1.76,4.08,4.08,0,0,0,5.76-2.85,4.41,4.41,0,0,0,6.27,2.73,5.66,5.66,0,0,0,2.18.44A5.59,5.59,0,0,0,54.84,49a4.4,4.4,0,1,0,4-6.25Z"/><path class="cls-4" d="M37.25,52.69a4.35,4.35,0,0,1-1.78-.39,6.12,6.12,0,0,1-2.12.39,6,6,0,0,1-4.51-2,4.34,4.34,0,0,1-3.31,1.54,4.3,4.3,0,1,1,2.27-7.94A6,6,0,0,1,39,44.45a4.34,4.34,0,0,1,2.13,2,4.67,4.67,0,0,1,3.83-3.07A5.82,5.82,0,0,1,55,44.47a4.64,4.64,0,1,1,3.82,7.27,4.62,4.62,0,0,1-4-2.27,5.82,5.82,0,0,1-5.17,3.14,5.74,5.74,0,0,1-2.17-.42A4.65,4.65,0,0,1,41.26,50,4.31,4.31,0,0,1,37.25,52.69Zm-1.77-.87a.16.16,0,0,1,.1,0A3.87,3.87,0,0,0,41,49.16a.22.22,0,0,1,.22-.19.25.25,0,0,1,.23.16,4.19,4.19,0,0,0,4,3.06,4,4,0,0,0,1.92-.47.28.28,0,0,1,.2,0,5.34,5.34,0,0,0,7-2.85.22.22,0,0,1,.21-.14.23.23,0,0,1,.21.13,4.17,4.17,0,1,0,.13-3.75.24.24,0,0,1-.22.12.23.23,0,0,1-.2-.15,5.35,5.35,0,0,0-9.49-1.3.25.25,0,0,1-.18.1,4.17,4.17,0,0,0-3.71,3.4.24.24,0,0,1-.22.2.23.23,0,0,1-.23-.17,3.92,3.92,0,0,0-2.21-2.45.21.21,0,0,1-.13-.13,5.58,5.58,0,0,0-10.46,0,.26.26,0,0,1-.15.14.25.25,0,0,1-.21,0,3.75,3.75,0,0,0-2.24-.73,3.83,3.83,0,1,0,3.11,6.07.21.21,0,0,1,.18-.09.21.21,0,0,1,.19.08,5.62,5.62,0,0,0,6.39,1.69Z"/><path class="cls-1" d="M31.39,32.27h3.12v-.16c0-1.32-.35-2.42-1.68-2.45h0C32.5,29.7,31.39,30,31.39,32.27Z"/><path class="cls-1" d="M14.67,50.5H31.39V32.27c0-2.43,1.22-2.59,1.48-2.6H17.48c-3,0-2.81,2.61-2.81,2.61Z"/><path class="cls-1" d="M32.92,29.67h0Z"/><path class="cls-4" d="M31.63,50.75H14.43V32.28a3,3,0,0,1,.69-2,3.1,3.1,0,0,1,2.36-.85H32.87v.46c-.2,0-1.24.15-1.24,2.37ZM14.9,50.27H31.16v-18a3.27,3.27,0,0,1,.71-2.37H17.48a2.64,2.64,0,0,0-2,.71,2.39,2.39,0,0,0-.57,1.65Z"/><polygon class="cls-4" points="32.92 29.9 32.87 29.9 32.86 29.44 32.9 29.44 32.93 29.44 32.92 29.9"/><path class="cls-1" d="M32.92,29.67h0Z"/><path class="cls-4" d="M34.74,32.51H31.16v-.23c0-2.51,1.26-2.81,1.65-2.84h0c1.26,0,1.9.93,1.9,2.68ZM31.63,32h2.65c0-1.88-.84-2.12-1.45-2.13C32.57,29.93,31.7,30.15,31.63,32Z"/><rect class="cls-4" x="29" y="33.56" width="0.47" height="14.73"/><rect class="cls-4" x="26.67" y="33.56" width="0.47" height="14.73"/><rect class="cls-4" x="24.09" y="33.56" width="0.47" height="14.73"/><rect class="cls-4" x="21.52" y="33.56" width="0.47" height="14.73"/><rect class="cls-4" x="18.95" y="33.56" width="0.47" height="14.73"/><rect class="cls-4" x="16.61" y="33.56" width="0.47" height="14.73"/><rect class="cls-4" x="15.91" y="47.12" width="14.49" height="0.47"/><rect class="cls-4" x="15.91" y="44.54" width="14.49" height="0.47"/><rect class="cls-4" x="15.91" y="41.98" width="14.49" height="0.46"/><rect class="cls-4" x="15.67" y="39.4" width="14.5" height="0.47"/><rect class="cls-4" x="15.67" y="37.07" width="14.5" height="0.46"/><rect class="cls-4" x="15.67" y="34.49" width="14.5" height="0.47"/><polygon class="cls-4" points="28.54 38.98 27.59 38.03 27.92 37.7 28.87 38.65 28.54 38.98"/><polygon class="cls-4" points="27.92 38.98 27.59 38.65 28.54 37.7 28.87 38.03 27.92 38.98"/><polygon class="cls-4" points="20.77 36.63 19.82 35.67 20.16 35.35 21.1 36.29 20.77 36.63"/><polygon class="cls-4" points="20.16 36.63 19.82 36.29 20.77 35.35 21.1 35.67 20.16 36.63"/><polygon class="cls-4" points="25.46 41.84 24.77 41.14 25.1 40.81 25.46 41.18 26.13 40.51 26.46 40.84 25.46 41.84"/><polygon class="cls-4" points="17.8 39.16 17.11 38.47 17.44 38.13 17.8 38.49 18.47 37.83 18.8 38.16 17.8 39.16"/><path class="cls-5" d="M35.27,34.68c0-.09-1.1-1.77-1.1-1.77s-1,1.64-1.08,1.77Z"/><path class="cls-4" d="M35.27,34.92H33.09a.25.25,0,0,1-.19-.11.21.21,0,0,1,0-.23c.06-.14.92-1.51,1.09-1.79a.21.21,0,0,1,.19-.11.23.23,0,0,1,.21.11c.7,1.12,1.08,1.73,1.11,1.81a.2.2,0,0,1,0,.21A.24.24,0,0,1,35.27,34.92Zm-1.77-.47h1.36l-.68-1.1C33.94,33.72,33.68,34.15,33.5,34.45Z"/><polygon class="cls-6" points="33.66 33.77 34.7 33.76 34.17 32.91 33.66 33.77"/><polygon class="cls-7" points="35.27 34.74 33.09 34.76 33.09 49.26 35.27 49.26 35.27 34.74"/><path class="cls-4" d="M35.27,49.49H33.09a.23.23,0,0,1-.23-.23V34.75a.24.24,0,0,1,.24-.24h2.18a.21.21,0,0,1,.16.07.21.21,0,0,1,.08.16V49.26A.23.23,0,0,1,35.27,49.49Zm-2-.48H35V35H33.32Z"/><polygon class="cls-7" points="34.55 34.74 33.81 34.76 33.81 49.26 34.55 49.26 34.55 34.74"/><path class="cls-4" d="M34.55,49.49h-.74a.23.23,0,0,1-.24-.23V34.75a.25.25,0,0,1,.23-.24h.75a.26.26,0,0,1,.17.07.24.24,0,0,1,.07.16V49.26A.23.23,0,0,1,34.55,49.49ZM34,49h.28V35H34Z"/><path class="cls-7" d="M33.08,49.26v.47a.8.8,0,0,0,.8.8h.62a.8.8,0,0,0,.8-.8v-.47Z"/><path class="cls-4" d="M34.5,50.77h-.62a1,1,0,0,1-1-1v-.47a.24.24,0,0,1,.23-.25H35.3a.24.24,0,0,1,.23.25v.47A1,1,0,0,1,34.5,50.77Zm-1.18-1.28v.24a.57.57,0,0,0,.56.57h.62a.57.57,0,0,0,.56-.57v-.24Z"/><path class="cls-1" d="M71.5,41a.22.22,0,0,0-.19-.2l-.38-.07a.3.3,0,0,1-.22-.2l-.15-.37a.29.29,0,0,1,0-.3l.23-.3a.28.28,0,0,0,0-.29L70.6,39a.23.23,0,0,0-.27,0l-.35.16a.32.32,0,0,1-.3,0l-.34-.21a.3.3,0,0,1-.15-.25v-.39a.26.26,0,0,0-.17-.22L68.71,38a.24.24,0,0,0-.25.12l-.06.11-.07.13,0,.1a.35.35,0,0,1-.26.15l-.4,0a.29.29,0,0,1-.28-.11l-.22-.3a.24.24,0,0,0-.26-.09l-.29.12a.24.24,0,0,0-.14.24l0,.38a.31.31,0,0,1-.11.28l-.31.26a.31.31,0,0,1-.29.07l-.37-.12a.26.26,0,0,0-.26.08l-.09.14L65,39.7A.26.26,0,0,0,65,40l.26.28a.31.31,0,0,1,.07.29l-.09.39a.35.35,0,0,1-.2.23l-.36.12a.25.25,0,0,0-.16.23l0,.3a.24.24,0,0,0,.2.21l.37.07a.31.31,0,0,1,.23.2l.15.37a.33.33,0,0,1,0,.29l-.23.31a.28.28,0,0,0,0,.29l.19.24a.28.28,0,0,0,.28,0l.34-.16a.27.27,0,0,1,.3,0l.34.21a.29.29,0,0,1,.16.25v.38a.24.24,0,0,0,.17.22l.3.08a.26.26,0,0,0,.26-.12l.17-.34a.35.35,0,0,1,.26-.15l.4,0a.33.33,0,0,1,.28.11l.22.31a.26.26,0,0,0,.27.09l.29-.12a.24.24,0,0,0,.13-.24L69.57,44a.31.31,0,0,1,.12-.27l.31-.27a.32.32,0,0,1,.29-.06l.36.12a.28.28,0,0,0,.27-.09l.08-.13a.53.53,0,0,0,.08-.14.24.24,0,0,0,0-.28l-.26-.27a.34.34,0,0,1-.07-.3l.1-.38a.3.3,0,0,1,.19-.23l.37-.12a.27.27,0,0,0,.16-.23Z"/><path class="cls-1" d="M69.71,42.46a2,2,0,1,1-3.36-2.08,1.91,1.91,0,0,1,1.44-.92H68a.54.54,0,0,1,.18,0l.2,0a1.89,1.89,0,0,1,.7.27A2,2,0,0,1,69.71,42.46Z"/><path class="cls-1" d="M68.77,40.22a1.28,1.28,0,0,0-.42-.17,1.26,1.26,0,0,0-.58,0,1.42,1.42,0,0,0-.94.64,1.41,1.41,0,1,0,1.94-.45Z"/><path class="cls-1" d="M68.46,41.68a.51.51,0,0,1-.7.17.51.51,0,0,1-.16-.71.71.71,0,0,1,.15-.15.52.52,0,0,1,.55,0l0,0A.5.5,0,0,1,68.46,41.68Z"/><path class="cls-4" d="M67.38,45.09H67.3L67,45a.48.48,0,0,1-.34-.45v-.38l0,0-.36-.22a.06.06,0,0,0-.06,0l-.36.18a.51.51,0,0,1-.55-.11l-.2-.24a.47.47,0,0,1,0-.57l.22-.31s0,0,0-.06l-.16-.39a.08.08,0,0,0,0-.05l-.38-.07a.48.48,0,0,1-.38-.4l0-.33a.46.46,0,0,1,.32-.46L65,41l0-.05.1-.4s0-.07,0-.08l-.26-.27a.49.49,0,0,1-.09-.55l.09-.15.1-.15a.49.49,0,0,1,.53-.17l.36.11h.06l.32-.27a.11.11,0,0,0,0-.07l0-.38a.49.49,0,0,1,.27-.49l.3-.12a.47.47,0,0,1,.54.16l.23.31a.08.08,0,0,0,.06,0l.41,0,.07,0,.17-.33a.48.48,0,0,1,.51-.24l.31.07a.5.5,0,0,1,.35.45v.39l0,0,.36.22,0,0,.36-.17a.49.49,0,0,1,.55.11l.21.24a.48.48,0,0,1,0,.57l-.22.3a.08.08,0,0,0,0,.07l.15.38a.07.07,0,0,0,.06.06l.37.07a.46.46,0,0,1,.38.4l0,.32a.49.49,0,0,1-.32.47l-.36.12s0,0,0,0l-.1.4a.11.11,0,0,0,0,.08l.26.27a.49.49,0,0,1,.08.55h0a.87.87,0,0,1-.09.15.47.47,0,0,1-.1.14.47.47,0,0,1-.39.2h0l-.13,0-.36-.11h-.06l-.32.26a.15.15,0,0,0,0,.08l0,.37a.47.47,0,0,1-.26.49l-.3.13a.49.49,0,0,1-.55-.17l-.22-.3a.07.07,0,0,0-.06,0l-.41,0a.08.08,0,0,0-.07,0l-.18.33A.49.49,0,0,1,67.38,45.09Zm-.55-1.37a.52.52,0,0,1,.27.45v.38l.28.07.18-.34A.59.59,0,0,1,68,44l.39,0h0a.57.57,0,0,1,.44.22l.22.31.28-.12L69.34,44a.54.54,0,0,1,.21-.49l.29-.25a.6.6,0,0,1,.52-.11l.36.11s0,0,.09-.12l.06-.1-.26-.3a.53.53,0,0,1-.12-.52l.09-.37a.56.56,0,0,1,.35-.4l.36-.12,0-.31L70.9,41a.56.56,0,0,1-.42-.35l-.14-.36a.53.53,0,0,1,.06-.53l.22-.31-.2-.23-.34.18a.52.52,0,0,1-.54-.06l-.32-.19a.56.56,0,0,1-.26-.45v-.39l-.29-.07-.17.35a.58.58,0,0,1-.47.27l-.38,0h0a.55.55,0,0,1-.44-.21l-.23-.31-.28.11.06.38a.5.5,0,0,1-.21.49l-.29.26a.57.57,0,0,1-.51.11l-.37-.11s0,0-.08.11l-.08.13.27.27a.57.57,0,0,1,.13.53l-.09.38a.56.56,0,0,1-.36.39l-.36.12,0,.3.38.06a.54.54,0,0,1,.41.35l.15.36a.55.55,0,0,1-.06.52l-.22.31.19.23.34-.17a.55.55,0,0,1,.54.05Z"/><path class="cls-4" d="M68,43.63a2.22,2.22,0,0,1-1.87-3.38,2.15,2.15,0,0,1,1.61-1l.21,0a.78.78,0,0,1,.22,0l.22,0a2.12,2.12,0,0,1,.79.3A2.21,2.21,0,0,1,68,43.63Zm0-4h-.23a1.74,1.74,0,0,0-1.28.81,1.76,1.76,0,0,0,.56,2.4,1.78,1.78,0,0,0,.92.26A1.74,1.74,0,0,0,69,39.94a1.82,1.82,0,0,0-.62-.24l-.17,0Z"/><path class="cls-4" d="M68,43.06h0a1.67,1.67,0,0,1-1.61-1.27,1.69,1.69,0,0,1,.21-1.24,1.6,1.6,0,0,1,1.1-.74,1.42,1.42,0,0,1,.68,0,1.51,1.51,0,0,1,.49.21,1.64,1.64,0,0,1-.87,3Zm0-2.81h-.21a1.17,1.17,0,0,0-.94,1.42,1.18,1.18,0,0,0,.53.74,1.14,1.14,0,0,0,.62.17A1.16,1.16,0,0,0,69,42a1.14,1.14,0,0,0,.15-.88,1.21,1.21,0,0,0-.53-.74,1.17,1.17,0,0,0-.35-.14A1.24,1.24,0,0,0,68,40.25Z"/><path class="cls-4" d="M68,42.16A.75.75,0,0,1,67.4,41a1,1,0,0,1,.22-.23.77.77,0,0,1,.8,0l.06,0A.74.74,0,0,1,68,42.16Zm0-1a.24.24,0,0,0-.14,0,.19.19,0,0,0-.09.09.28.28,0,0,0,.09.37.28.28,0,0,0,.38-.09.27.27,0,0,0-.07-.36h0A.3.3,0,0,0,68,41.14Z"/><path class="cls-1" d="M58.61,43.65l0-.29a4.22,4.22,0,0,0,0-.49,3.37,3.37,0,0,0-2.56-3.28l-.26-.06V36.82l.4.06a6,6,0,0,1,5.11,6A5.81,5.81,0,0,1,61.26,44l-.07.36Z"/><path class="cls-1" d="M51.3,38.33l.31-.24a6,6,0,0,1,2.86-1.22l.39-.07v2.72l-.26.06a3.19,3.19,0,0,0-1.14.48l-.22.15Z"/><path class="cls-3" d="M54.47,48.85a6.1,6.1,0,0,1-5.2-6,5.93,5.93,0,0,1,1.1-3.46l.23-.33L52.54,41l-.13.23a3.35,3.35,0,0,0,2.18,5l.27.06v2.7Z"/><path class="cls-3" d="M55.87,46.19l.26-.07a3.42,3.42,0,0,0,1.95-1.33l.13-.19,2.65.76-.2.37a6.06,6.06,0,0,1-4.39,3.11l-.4.06Z"/><path class="cls-4" d="M61.19,44.63h-.07l-2.58-.76a.22.22,0,0,1-.16-.25l0-.29a3.73,3.73,0,0,0,0-.46,3.14,3.14,0,0,0-2.38-3l-.26-.07a.23.23,0,0,1-.18-.22V36.82a.21.21,0,0,1,.09-.18.2.2,0,0,1,.18,0l.39.06a6.24,6.24,0,0,1,5.32,6.22,7,7,0,0,1-.13,1.21l-.07.36a.23.23,0,0,1-.11.16A.17.17,0,0,1,61.19,44.63Zm-2.32-1.15L61,44.1,61,44a6.07,6.07,0,0,0,.11-1.12,5.79,5.79,0,0,0-4.92-5.76l-.12,0v2.26l.08,0a3.57,3.57,0,0,1,2.73,3.5,3,3,0,0,1,0,.52Z"/><path class="cls-4" d="M53.24,40.44a.27.27,0,0,1-.17-.06l-1.94-1.89a.22.22,0,0,1-.07-.17.27.27,0,0,1,.1-.18l.3-.24a6.16,6.16,0,0,1,3-1.27l.39-.06a.25.25,0,0,1,.18.06.24.24,0,0,1,.09.17v2.72a.22.22,0,0,1-.19.22l-.26.07a3,3,0,0,0-1,.45l-.23.15A.31.31,0,0,1,53.24,40.44Zm-1.59-2.09,1.62,1.57.07-.06a3.66,3.66,0,0,1,1.2-.51l.09,0V37.08l-.13,0a5.82,5.82,0,0,0-2.75,1.17Z"/><path class="cls-4" d="M54.86,49.15s0,0,0,0l-.39-.05A6.32,6.32,0,0,1,49,42.85a6.21,6.21,0,0,1,1.14-3.6l.23-.32a.16.16,0,0,1,.16-.1.22.22,0,0,1,.19.06l2,1.9a.26.26,0,0,1,0,.29l-.14.22a3.15,3.15,0,0,0-.41,1.55,3.1,3.1,0,0,0,2.44,3.06l.27.06a.24.24,0,0,1,.19.23v2.7a.24.24,0,0,1-.09.18A.23.23,0,0,1,54.86,49.15Zm-4.23-9.73-.07.1a5.75,5.75,0,0,0-1.05,3.33,5.83,5.83,0,0,0,5,5.77l.13,0V46.38h-.09a3.56,3.56,0,0,1-2.81-3.52,3.63,3.63,0,0,1,.48-1.78l0-.08Z"/><path class="cls-4" d="M55.87,49.13a.22.22,0,0,1-.14-.05.21.21,0,0,1-.09-.18V46.19a.25.25,0,0,1,.18-.23l.26-.06a3.11,3.11,0,0,0,1.81-1.25l.13-.2a.26.26,0,0,1,.26-.08l2.64.76a.28.28,0,0,1,.15.15.19.19,0,0,1,0,.19l-.2.38a6.27,6.27,0,0,1-4.56,3.22l-.39.06Zm.24-2.76v2.26l.12,0a5.81,5.81,0,0,0,4.22-3l.06-.11-2.2-.64-.05.06a3.56,3.56,0,0,1-2.07,1.42Z"/><path class="cls-1" d="M55.35,34.33H55.3a3.48,3.48,0,0,0-3.51,3.54,2.88,2.88,0,0,0,.5,1.66A14.14,14.14,0,0,1,53.58,43h3.49a13.47,13.47,0,0,1,1.3-3.44,2.88,2.88,0,0,0,.5-1.66A3.49,3.49,0,0,0,55.35,34.33Z"/><path class="cls-4" d="M57.07,43.2H53.58a.23.23,0,0,1-.23-.17,14.39,14.39,0,0,0-1.26-3.38,3.1,3.1,0,0,1-.54-1.78,3.7,3.7,0,0,1,3.74-3.77h.06a3.7,3.7,0,0,1,3.75,3.77,3.1,3.1,0,0,1-.54,1.78A13.91,13.91,0,0,0,57.3,43,.23.23,0,0,1,57.07,43.2Zm-3.31-.46h3.13a13.14,13.14,0,0,1,1.28-3.33,2.64,2.64,0,0,0,.46-1.54,3.23,3.23,0,0,0-3.28-3.3H55.3A3.23,3.23,0,0,0,52,37.87a2.65,2.65,0,0,0,.47,1.54A13.42,13.42,0,0,1,53.76,42.74Z"/><polygon class="cls-3" points="53.48 42.71 53.48 43.97 53.88 44.65 55.32 44.65 56.77 44.65 57.16 43.97 57.16 42.71 53.48 42.71"/><path class="cls-4" d="M56.77,44.88h-2.9a.22.22,0,0,1-.2-.12l-.39-.68a.23.23,0,0,1,0-.11V42.71a.24.24,0,0,1,.24-.24h3.67a.24.24,0,0,1,.23.24V44a.23.23,0,0,1,0,.11l-.39.68A.22.22,0,0,1,56.77,44.88ZM54,44.41h2.62l.29-.5v-1h-3.2v1Z"/><path class="cls-4" d="M57.5,43.63H53.14a.24.24,0,0,1,0-.47H57.5a.24.24,0,0,1,0,.47Z"/><path class="cls-4" d="M57.5,44.26H53.14a.23.23,0,0,1-.23-.24.22.22,0,0,1,.23-.23H57.5a.22.22,0,0,1,.23.23A.23.23,0,0,1,57.5,44.26Z"/><path class="cls-4" d="M55.79,42.94a.24.24,0,0,1-.24-.23V41.42a.24.24,0,0,1,.47,0v1.29A.24.24,0,0,1,55.79,42.94Z"/><path class="cls-4" d="M54.87,42.94a.24.24,0,0,1-.24-.23V41.42a.23.23,0,0,1,.24-.23.23.23,0,0,1,.23.23v1.29A.23.23,0,0,1,54.87,42.94Z"/><path class="cls-1" d="M62.58,44.78a7.69,7.69,0,0,0-6.75,4c-2.45-1.21-5.5.26-6,2.55-.15-.67-1.36-.59-1.36-.59a3.63,3.63,0,0,0-2.13-6.57,3.54,3.54,0,0,0-1.36.23L43.54,34.28H39L37.48,44.54a3.75,3.75,0,0,0-1.34-.24A3.66,3.66,0,0,0,32.5,48a3.6,3.6,0,0,0,1.43,2.88s-1-.11-1.26.56c0-2.28-3.44-4.37-5.87-2.58A7.68,7.68,0,0,0,12.36,52.5h57.9A7.76,7.76,0,0,0,62.58,44.78Z"/><path class="cls-4" d="M70.26,52.73H12.36a.23.23,0,0,1-.23-.23,8,8,0,0,1,7.92-8,7.9,7.9,0,0,1,6.82,3.93,3.65,3.65,0,0,1,2-.57,4.18,4.18,0,0,1,4,2.93,1.15,1.15,0,0,1,.51-.19,3.88,3.88,0,0,1,3.94-6.4l1.44-10A.24.24,0,0,1,39,34h4.58a.25.25,0,0,1,.24.21l1.43,9.86A4.52,4.52,0,0,1,46.38,44a3.86,3.86,0,0,1,2.73,6.6,1.39,1.39,0,0,1,.67.26,4.58,4.58,0,0,1,5.95-2.33,7.91,7.91,0,0,1,6.85-4,8,8,0,0,1,7.92,8A.23.23,0,0,1,70.26,52.73ZM12.6,52.26H70A7.58,7.58,0,0,0,62.58,45,7.46,7.46,0,0,0,56,48.92a.23.23,0,0,1-.31.09,4,4,0,0,0-1.76-.4,3.89,3.89,0,0,0-3.86,2.8.25.25,0,0,1-.23.19h0a.24.24,0,0,1-.23-.19c-.08-.39-.86-.41-1-.41h-.09a.23.23,0,0,1-.23-.16.22.22,0,0,1,.08-.26,3.41,3.41,0,0,0-2-6.15,3.36,3.36,0,0,0-1.27.22.26.26,0,0,1-.21,0,.2.2,0,0,1-.11-.16l-1.45-10H39.17L37.71,44.58a.24.24,0,0,1-.12.17.27.27,0,0,1-.2,0,3.52,3.52,0,0,0-1.25-.22,3.4,3.4,0,0,0-2.07,6.11.25.25,0,0,1,.08.27.24.24,0,0,1-.24.14h-.15c-.22,0-.74,0-.86.41a.24.24,0,0,1-.27.15.22.22,0,0,1-.19-.23c0-1.55-1.75-3-3.59-3a3.24,3.24,0,0,0-1.92.62.2.2,0,0,1-.18,0,.34.34,0,0,1-.16-.12A7.46,7.46,0,0,0,20.05,45,7.56,7.56,0,0,0,12.6,52.26Z"/><path class="cls-4" d="M43.54,34.51H38.92a.23.23,0,0,1-.23-.23v-.83a2.9,2.9,0,0,1-2.72-3V17.33a.23.23,0,0,1,.23-.24H46.38a.23.23,0,0,1,.23.24V30.46a3,3,0,0,1-2.83,3v.82A.23.23,0,0,1,43.54,34.51ZM39.16,34h4.15v-.81a.23.23,0,0,1,.23-.23h.08a2.48,2.48,0,0,0,2.53-2.54V17.56H36.43v12.9A2.47,2.47,0,0,0,38.93,33a.23.23,0,0,1,.24.23.11.11,0,0,1,0,.05Z"/><path class="cls-4" d="M47.9,24.92a.27.27,0,0,1-.19-.08l-1.52-2.09a.23.23,0,0,1,.38-.27l1.52,2.07a.25.25,0,0,1-.05.33A.23.23,0,0,1,47.9,24.92Z"/><path class="cls-4" d="M34.69,24.92a.23.23,0,0,1-.19-.37L36,22.48a.23.23,0,0,1,.33-.05.22.22,0,0,1,0,.32l-1.52,2.09A.26.26,0,0,1,34.69,24.92Z"/><path class="cls-4" d="M42.32,13.89a.27.27,0,0,1-.21-.12l-1-1.89a.23.23,0,0,1,.1-.32.23.23,0,0,1,.31.09l1,1.89a.21.21,0,0,1-.09.31A.15.15,0,0,1,42.32,13.89Z"/><path class="cls-4" d="M43.08,15.2a.22.22,0,0,1-.2-.12l-.37-.67a.24.24,0,0,1,.42-.22l.36.66a.23.23,0,0,1-.1.32A.2.2,0,0,1,43.08,15.2Z"/><rect class="cls-4" x="5.18" y="52.26" width="3.51" height="0.94"/><rect class="cls-4" x="74.63" y="52.26" width="3.51" height="0.94"/><rect class="cls-4" x="10.73" y="52.26" width="60.85" height="0.94"/><path class="cls-4" d="M58,30.05h-.93c-.46,0-.65-.5-.82-.94-.11-.27-.25-.64-.39-.64s-.28.33-.39.61-.36.9-.82.9-.66-.48-.83-.9c-.11-.27-.25-.59-.4-.59s-.28.36-.38.63c-.18.43-.37.93-.84.93H51a.23.23,0,0,1-.23-.24.23.23,0,0,1,.23-.23H52.2c.15,0,.29-.37.4-.63.17-.44.36-.94.82-.94s.66.48.83.89.25.6.4.6.28-.34.39-.6c.17-.43.36-.9.82-.9s.66.5.83.93.24.65.38.65H58a.23.23,0,0,1,.23.23A.23.23,0,0,1,58,30.05Z"/><path class="cls-4" d="M34.61,18.59h-.92c-.46,0-.65-.49-.82-.94-.11-.27-.25-.64-.39-.64s-.29.34-.39.61-.37.89-.83.89-.65-.47-.82-.89c-.11-.26-.25-.6-.39-.6s-.29.37-.4.64c-.17.44-.36.93-.83.93H27.6a.23.23,0,0,1,0-.46h1.22c.15,0,.29-.37.39-.64.18-.44.38-.93.84-.93s.65.47.82.89c.11.26.25.6.39.6s.28-.34.39-.6c.17-.43.37-.9.83-.9s.65.49.82.93c.11.28.25.65.39.65h.92a.23.23,0,1,1,0,.46Z"/><path class="cls-4" d="M72.53,49.69a.23.23,0,0,1-.16-.06l-.93-.93a.22.22,0,0,1,0-.33.24.24,0,0,1,.33,0l.93.93a.24.24,0,0,1,0,.33A.27.27,0,0,1,72.53,49.69Z"/><path class="cls-4" d="M71.6,49.69a.25.25,0,0,1-.16-.06.22.22,0,0,1,0-.33l.93-.93a.23.23,0,0,1,.33.33l-.93.93A.27.27,0,0,1,71.6,49.69Z"/><path class="cls-4" d="M50.2,32.51a.2.2,0,0,1-.16-.07l-.93-.93a.23.23,0,0,1,0-.34.24.24,0,0,1,.33,0l.93.94a.24.24,0,0,1-.17.4Z"/><path class="cls-4" d="M49.27,32.51a.2.2,0,0,1-.16-.07.22.22,0,0,1,0-.33l.93-.94a.24.24,0,0,1,.33,0,.25.25,0,0,1,0,.34l-.93.93A.23.23,0,0,1,49.27,32.51Z"/><path class="cls-4" d="M12.06,42.91a.18.18,0,0,1-.16-.08L11,41.91a.25.25,0,0,1,0-.34.22.22,0,0,1,.32,0l.94.93a.24.24,0,0,1,0,.33A.21.21,0,0,1,12.06,42.91Z"/><path class="cls-4" d="M11.13,42.91a.19.19,0,0,1-.16-.08.24.24,0,0,1,0-.33l.93-.93a.24.24,0,0,1,.33,0,.25.25,0,0,1,0,.34l-.94.92A.18.18,0,0,1,11.13,42.91Z"/><path class="cls-4" d="M19.1,27.5a.23.23,0,0,1-.17-.07L18,26.5a.24.24,0,0,1,0-.33.22.22,0,0,1,.33,0l.93.94a.21.21,0,0,1,0,.32A.2.2,0,0,1,19.1,27.5Z"/><path class="cls-4" d="M18.17,27.5a.23.23,0,0,1-.17-.07.22.22,0,0,1,0-.32l.93-.94a.23.23,0,0,1,.33.33l-.93.93A.2.2,0,0,1,18.17,27.5Z"/><path class="cls-4" d="M32.69,21.67a.23.23,0,0,1-.17-.07l-.93-.93a.23.23,0,0,1,.33-.33l.93.93a.22.22,0,0,1,0,.33A.2.2,0,0,1,32.69,21.67Z"/><path class="cls-4" d="M31.76,21.67a.24.24,0,0,1-.17-.4l.93-.93a.24.24,0,0,1,.33,0,.22.22,0,0,1,0,.33l-.93.93A.2.2,0,0,1,31.76,21.67Z"/><path class="cls-4" d="M62.31,28.3a.2.2,0,0,1-.16-.07l-.93-.93a.22.22,0,0,1,0-.33.26.26,0,0,1,.33,0l.93.93a.24.24,0,0,1-.17.4Z"/><path class="cls-4" d="M61.38,28.3a.2.2,0,0,1-.16-.07.22.22,0,0,1,0-.33l.93-.93a.26.26,0,0,1,.33,0,.24.24,0,0,1,0,.33l-.93.93A.23.23,0,0,1,61.38,28.3Z"/><path class="cls-4" d="M52.53,16.13a.23.23,0,0,1-.16-.06l-.93-.93a.23.23,0,0,1,0-.34.22.22,0,0,1,.32,0l.94.93a.25.25,0,0,1,0,.34A.27.27,0,0,1,52.53,16.13Z"/><path class="cls-4" d="M51.6,16.13a.23.23,0,0,1-.16-.06.23.23,0,0,1,0-.34l.93-.93a.24.24,0,0,1,.33,0,.25.25,0,0,1,0,.34l-.94.93A.23.23,0,0,1,51.6,16.13Z"/><path class="cls-4" d="M73,36a.24.24,0,0,1-.16-.07L71.9,35a.26.26,0,0,1,0-.33.24.24,0,0,1,.33,0l.93.93a.22.22,0,0,1,0,.33A.24.24,0,0,1,73,36Z"/><path class="cls-4" d="M72.07,36A.28.28,0,0,1,71.9,36a.26.26,0,0,1,0-.33l.94-.93a.22.22,0,0,1,.32,0,.22.22,0,0,1,0,.33l-.93.93A.24.24,0,0,1,72.07,36Z"/><path class="cls-4" d="M47.9,39.39a1,1,0,1,1,1-1A1,1,0,0,1,47.9,39.39Zm0-1.49a.52.52,0,0,0,0,1,.52.52,0,1,0,0-1Z"/><path class="cls-4" d="M9.79,50.23a1,1,0,1,1,1-1A1,1,0,0,1,9.79,50.23Zm0-1.49a.52.52,0,1,0,.51.52A.51.51,0,0,0,9.79,48.74Z"/><path class="cls-4" d="M29.66,28.2a1,1,0,1,1,1-1A1,1,0,0,1,29.66,28.2Zm0-1.49a.51.51,0,1,0,0,1,.51.51,0,1,0,0-1Z"/><path class="cls-4" d="M22.18,22.7a1,1,0,1,1,1-1A1,1,0,0,1,22.18,22.7Zm0-1.49a.52.52,0,1,0,.51.51A.51.51,0,0,0,22.18,21.21Z"/><path class="cls-4" d="M36.52,11.34a1,1,0,0,1-1-1,1,1,0,1,1,1,1Zm0-1.49a.51.51,0,0,0-.5.52.51.51,0,0,0,1,0A.52.52,0,0,0,36.52,9.85Z"/><path class="cls-4" d="M64,33.36a1,1,0,1,1,1-1A1,1,0,0,1,64,33.36Zm0-1.49a.51.51,0,1,0,.52.51A.51.51,0,0,0,64,31.87Z"/><path class="cls-4" d="M52.07,22.38a1,1,0,1,1,1-1A1,1,0,0,1,52.07,22.38Zm0-1.5a.52.52,0,1,0,.51.51A.51.51,0,0,0,52.07,20.88Z"/><path class="cls-4" d="M68,35.76h-.24a.23.23,0,0,1,0-.46H68a.23.23,0,0,1,0,.46Z"/><path class="cls-4" d="M66.84,35.76h-.48a.23.23,0,0,1,0-.46h.48a.23.23,0,1,1,0,.46Zm-1.43,0h-.48a.23.23,0,0,1,0-.46h.48a.23.23,0,1,1,0,.46Zm-1.43,0H63.5a.23.23,0,0,1,0-.46H64a.23.23,0,0,1,0,.46Z"/><path class="cls-4" d="M62.55,35.76h-.24a.23.23,0,0,1,0-.46h.24a.23.23,0,0,1,0,.46Z"/><path class="cls-4" d="M51,35.25h-.23a.23.23,0,1,1,0-.46H51a.23.23,0,1,1,0,.46Z"/><path class="cls-4" d="M49.89,35.25h-.43a.23.23,0,0,1,0-.46h.43a.23.23,0,1,1,0,.46Zm-1.28,0h-.43a.23.23,0,1,1,0-.46h.43a.23.23,0,1,1,0,.46Zm-1.29,0h-.43a.23.23,0,0,1,0-.46h.43a.23.23,0,1,1,0,.46Z"/><path class="cls-4" d="M46,35.25h-.23a.23.23,0,1,1,0-.46H46a.23.23,0,1,1,0,.46Z"/><path class="cls-4" d="M27.53,27.46h-.24a.24.24,0,0,1-.24-.23.25.25,0,0,1,.24-.25h.24a.24.24,0,0,1,.23.25A.24.24,0,0,1,27.53,27.46Z"/><path class="cls-4" d="M26.44,27.46H26a.24.24,0,0,1-.23-.23A.24.24,0,0,1,26,27h.44a.24.24,0,0,1,.23.25A.24.24,0,0,1,26.44,27.46Zm-1.29,0h-.43a.23.23,0,0,1-.23-.23.24.24,0,0,1,.23-.25h.43a.24.24,0,0,1,.23.25A.23.23,0,0,1,25.15,27.46Zm-1.29,0h-.42a.24.24,0,0,1-.24-.23.25.25,0,0,1,.24-.25h.42a.24.24,0,0,1,.24.25A.23.23,0,0,1,23.86,27.46Z"/><path class="cls-4" d="M22.58,27.46h-.23a.24.24,0,0,1-.24-.23.25.25,0,0,1,.24-.25h.23a.24.24,0,0,1,.23.25A.23.23,0,0,1,22.58,27.46Z"/><path class="cls-4" d="M31.11,23.19h-.24a.24.24,0,0,1,0-.47h.24a.24.24,0,1,1,0,.47Z"/><path class="cls-4" d="M30,23.19h-.43a.24.24,0,0,1,0-.47H30a.24.24,0,1,1,0,.47Zm-1.28,0h-.43a.24.24,0,1,1,0-.47h.43a.24.24,0,0,1,0,.47Zm-1.29,0H27a.24.24,0,0,1,0-.47h.43a.24.24,0,1,1,0,.47Z"/><path class="cls-4" d="M26.17,23.19h-.23a.24.24,0,1,1,0-.47h.23a.24.24,0,0,1,0,.47Z"/><path class="cls-4" d="M12.38,46.42h-.24a.23.23,0,0,1-.23-.23.23.23,0,0,1,.23-.23h.24a.22.22,0,0,1,.23.23A.23.23,0,0,1,12.38,46.42Z"/><path class="cls-4" d="M11.29,46.42h-.43a.23.23,0,0,1-.23-.23.22.22,0,0,1,.23-.23h.43a.22.22,0,0,1,.23.23A.23.23,0,0,1,11.29,46.42Zm-1.28,0H9.58a.23.23,0,0,1-.24-.23A.23.23,0,0,1,9.58,46H10a.23.23,0,0,1,.23.23A.23.23,0,0,1,10,46.42Zm-1.29,0H8.29a.23.23,0,0,1-.23-.23A.22.22,0,0,1,8.29,46h.43a.22.22,0,0,1,.23.23A.23.23,0,0,1,8.72,46.42Z"/><path class="cls-4" d="M7.44,46.42H7.21A.23.23,0,0,1,7,46.19.23.23,0,0,1,7.21,46h.23a.22.22,0,0,1,.23.23A.23.23,0,0,1,7.44,46.42Z"/><path class="cls-4" d="M59.66,32h-.23a.23.23,0,1,1,0-.46h.23a.23.23,0,1,1,0,.46Z"/><path class="cls-4" d="M58.58,32h-.44a.23.23,0,0,1,0-.46h.44a.23.23,0,1,1,0,.46Zm-1.29,0h-.43a.23.23,0,1,1,0-.46h.43a.23.23,0,1,1,0,.46ZM56,32h-.43a.23.23,0,1,1,0-.46H56A.23.23,0,1,1,56,32Z"/><path class="cls-4" d="M54.72,32h-.23a.23.23,0,1,1,0-.46h.23a.23.23,0,1,1,0,.46Z"/><path class="cls-4" d="M61.22,23.89H61a.24.24,0,0,1-.23-.24.23.23,0,0,1,.23-.23h.24a.23.23,0,0,1,.23.23A.24.24,0,0,1,61.22,23.89Z"/><path class="cls-4" d="M60.13,23.89H59.7a.24.24,0,0,1-.24-.24.23.23,0,0,1,.24-.23h.43a.23.23,0,0,1,.23.23A.23.23,0,0,1,60.13,23.89Zm-1.29,0h-.42a.24.24,0,0,1-.24-.24.23.23,0,0,1,.24-.23h.42a.23.23,0,0,1,.24.23A.24.24,0,0,1,58.84,23.89Zm-1.28,0h-.43a.23.23,0,0,1-.23-.24.23.23,0,0,1,.23-.23h.43a.23.23,0,0,1,.23.23A.23.23,0,0,1,57.56,23.89Z"/><path class="cls-4" d="M56.27,23.89H56a.23.23,0,0,1-.23-.24.23.23,0,0,1,.23-.23h.23a.23.23,0,0,1,.24.23A.24.24,0,0,1,56.27,23.89Z"/></g></g></svg>