<svg xmlns="http://www.w3.org/2000/svg" viewBox="0 0 83.31 69.55"><defs><style>.cls-1{isolation:isolate;}.cls-2,.cls-9{fill:#f7f0e9;}.cls-3{fill:#00bcd6;}.cls-4,.cls-7{fill:#f06934;}.cls-5{fill:#00a9b4;}.cls-6{fill:#ebf3fe;}.cls-7,.cls-9{fill-rule:evenodd;}.cls-8{mix-blend-mode:multiply;}.cls-10{fill:#5bb9e9;}</style></defs><title>alfianjau-Asset 4</title><g class="cls-1"><g id="Layer_2" data-name="Layer 2"><g id="Layer_1-2" data-name="Layer 1"><path class="cls-2" d="M72.85,35.52A31.53,31.53,0,1,1,41.32,4,31.53,31.53,0,0,1,72.85,35.52Z"/><path class="cls-2" d="M41.18,10.36H21A3.08,3.08,0,0,1,18,7.28h0A3.08,3.08,0,0,1,21,4.2H41.18a3.08,3.08,0,0,1,3.08,3.08h0A3.08,3.08,0,0,1,41.18,10.36Z"/><path class="cls-3" d="M41.32,63.72a28.2,28.2,0,1,1,28.2-28.2A28.24,28.24,0,0,1,41.32,63.72Zm0-55.46A27.27,27.27,0,1,0,68.58,35.52,27.29,27.29,0,0,0,41.32,8.26Z"/><path class="cls-2" d="M16,53.77H28.94a2.43,2.43,0,0,1,2.42,2.42h0a2.42,2.42,0,0,1-2.42,2.41H16a2.41,2.41,0,0,1-2.42-2.41h0A2.42,2.42,0,0,1,16,53.77Z"/><path class="cls-2" d="M13.44,63.24H32.62a1.56,1.56,0,0,1,1.56,1.57h0a1.56,1.56,0,0,1-1.56,1.56H13.44a1.56,1.56,0,0,1-1.56-1.56h0A1.56,1.56,0,0,1,13.44,63.24Z"/><rect class="cls-2" x="53.72" y="66.43" width="6.06" height="3.12" rx="0.13" transform="translate(113.49 135.98) rotate(180)"/><path class="cls-2" d="M39.2,57.17H68.08a2.56,2.56,0,0,1,2.56,2.56h0a2.57,2.57,0,0,1-2.56,2.57H39.2a2.57,2.57,0,0,1-2.56-2.57h0A2.56,2.56,0,0,1,39.2,57.17Z"/><path class="cls-2" d="M18.75,58.57h9a2.45,2.45,0,0,0-1.71.72,2.22,2.22,0,0,0-.71,1.63,2.34,2.34,0,0,0,2.42,2.32h-9a2.4,2.4,0,0,0,1.71-.6A2.36,2.36,0,0,0,21.17,61,2.39,2.39,0,0,0,18.75,58.57Z"/><path class="cls-2" d="M55.73,31H79a4.34,4.34,0,0,1,4.34,4.34h0A4.34,4.34,0,0,1,79,39.66H55.73a4.34,4.34,0,0,1-4.34-4.34h0A4.34,4.34,0,0,1,55.73,31Z"/><path class="cls-2" d="M45.82,48.09H80.25a2.81,2.81,0,0,1,2.82,2.81h0a2.82,2.82,0,0,1-2.82,2.82H45.82A2.82,2.82,0,0,1,43,50.9h0A2.81,2.81,0,0,1,45.82,48.09Z"/><path class="cls-2" d="M61,39.7h16.2A4.32,4.32,0,0,0,74.08,41a4,4,0,0,0-1.27,2.91A4.2,4.2,0,0,0,77.15,48H61A4.24,4.24,0,0,0,64,46.92a4.13,4.13,0,0,0,1.27-3A4.26,4.26,0,0,0,61,39.7Z"/><path class="cls-2" d="M34.67,27.21H7.44a4.6,4.6,0,0,1-4.61-4.6h0A4.6,4.6,0,0,1,7.44,18H34.67a4.61,4.61,0,0,1,4.61,4.6h0A4.61,4.61,0,0,1,34.67,27.21Z"/><path class="cls-2" d="M46,53.18H6.66A6.66,6.66,0,0,1,0,46.53H0a6.65,6.65,0,0,1,6.66-6.66H46a6.65,6.65,0,0,1,6.65,6.66h0A6.65,6.65,0,0,1,46,53.18Z"/><path class="cls-2" d="M68.29,16.71H46.55A3.67,3.67,0,0,1,42.88,13h0a3.67,3.67,0,0,1,3.67-3.68H68.29A3.68,3.68,0,0,1,72,13h0A3.67,3.67,0,0,1,68.29,16.71Z"/><path class="cls-2" d="M61.6,4H56.44a2,2,0,0,1-2-2h0a2,2,0,0,1,2-2H61.6a2,2,0,0,1,2,2h0A2,2,0,0,1,61.6,4Z"/><path class="cls-2" d="M47.92,29.52A6.48,6.48,0,0,0,41.44,23h0A6.48,6.48,0,0,0,35,29.52v.86a6.48,6.48,0,0,0,6.48,6.48h0a6.48,6.48,0,0,0,6.48-6.48Z"/><path class="cls-4" d="M51.76,52.7V44.16c0-4.19-2.95-6.91-7.14-6.91H37.93c-4.19,0-6.38,2.72-6.38,6.91V52.7Z"/><path class="cls-5" d="M51.76,52.93a.24.24,0,0,1-.23-.25V43.94c0-3.92-2.73-6.46-7-6.46h-7a.24.24,0,1,1,0-.47h7C49,37,52,39.8,52,43.94v8.74A.24.24,0,0,1,51.76,52.93Z"/><path class="cls-5" d="M41.75,43.55a.25.25,0,0,1-.2-.1L38,37.59a.22.22,0,0,1,.09-.31.21.21,0,0,1,.31.07l3.35,5.51L45,37.26a.23.23,0,0,1,.32-.07.24.24,0,0,1,.09.32L42,43.43a.22.22,0,0,1-.2.12Z"/><path class="cls-5" d="M41.72,48.42a.23.23,0,0,1-.23-.24v-3a.23.23,0,0,1,.46,0v3A.23.23,0,0,1,41.72,48.42Z"/><path class="cls-5" d="M41.72,52.93a.23.23,0,0,1-.23-.23V50.34a.23.23,0,0,1,.46,0V52.7A.23.23,0,0,1,41.72,52.93Z"/><path class="cls-5" d="M41.44,37.09a6.72,6.72,0,0,1-6.71-6.71v-.86a6.71,6.71,0,1,1,13.42,0v.86A6.72,6.72,0,0,1,41.44,37.09Zm0-13.82a6.26,6.26,0,0,0-6.25,6.25v.86a6.25,6.25,0,1,0,12.5,0v-.86A6.25,6.25,0,0,0,41.44,23.27Z"/><path class="cls-5" d="M47.29,52.93a.23.23,0,0,1-.24-.23V48.05a.23.23,0,0,1,.24-.23.23.23,0,0,1,.23.23V52.7A.23.23,0,0,1,47.29,52.93Z"/><rect class="cls-5" x="5.18" y="52.26" width="3.51" height="0.93"/><rect class="cls-5" x="74.63" y="52.26" width="3.51" height="0.93"/><rect class="cls-5" x="10.73" y="52.26" width="60.85" height="0.93"/><path class="cls-2" d="M50.51,20.92V16.71H48.7a2.9,2.9,0,0,0-.47-1.36l1.7-1.8-2.94-3-1.8,1.67A3.32,3.32,0,0,0,44,11.72v-2H39.76v2l-1,.46-1.63-1.7-2.92,2.95,1.72,1.92a2.85,2.85,0,0,0-.45,1.36H32.74v4.21h2.72s.43.82.46.88l-1.7,1.57,3.41,0a6.68,6.68,0,0,1-2.08-4.59,6.2,6.2,0,1,1,12.39,0,5.8,5.8,0,0,1-2,4.53l4,0-1.68-1.45c0-.07.47-.89.49-.89Z"/><path class="cls-2" d="M47.19,18.7A5.4,5.4,0,1,0,40,23.78V25.6h3.74V23.74A5.34,5.34,0,0,0,47.19,18.7Z"/><path class="cls-4" d="M41.63,24V22.64l-1.08-.39a3.79,3.79,0,0,1,1.23-7.36,3.79,3.79,0,0,1,3.77,3.81,3.67,3.67,0,0,1-2.41,3.51l-1,.4V24Z"/><path class="cls-5" d="M43.73,25.83H40a.23.23,0,0,1-.23-.23V24a5.65,5.65,0,1,1,7.66-5.25A5.56,5.56,0,0,1,44,23.89V25.6A.24.24,0,0,1,43.73,25.83Zm-3.51-.47H43.5V23.74a.22.22,0,0,1,.15-.22A5.12,5.12,0,0,0,47,18.7a5.17,5.17,0,1,0-6.89,4.86.24.24,0,0,1,.15.22Z"/><path class="cls-5" d="M43.73,28.17H40a.23.23,0,0,1-.23-.23V25.6a.23.23,0,0,1,.23-.24h3.74a.24.24,0,0,1,.24.24v2.34A.23.23,0,0,1,43.73,28.17Zm-3.51-.46H43.5V25.83H40.22Z"/><path class="cls-5" d="M41.86,25.83a.23.23,0,0,1-.23-.23V18.35a.23.23,0,0,1,.46,0V25.6A.23.23,0,0,1,41.86,25.83Z"/><path class="cls-5" d="M41.93,18.7a1.17,1.17,0,1,1,1.16-1.16A1.17,1.17,0,0,1,41.93,18.7Zm0-1.85a.69.69,0,0,0,0,1.38.69.69,0,0,0,0-1.38Z"/><path class="cls-5" d="M43.73,26.53h-4a.24.24,0,1,1,0-.47h4a.24.24,0,1,1,0,.47Z"/><path class="cls-5" d="M43.73,27.47h-4a.23.23,0,0,1-.24-.23.23.23,0,0,1,.24-.23h4a.23.23,0,0,1,.24.23A.23.23,0,0,1,43.73,27.47Z"/><path class="cls-5" d="M55,36.58a2.34,2.34,0,0,1-2.34-2.33V33.12a1.91,1.91,0,0,0-1.9-1.91H44a2.38,2.38,0,0,1-2.37-2.37v-.9a.23.23,0,0,1,.46,0v.9A1.91,1.91,0,0,0,44,30.74h6.71a2.38,2.38,0,0,1,2.37,2.38v1.13a1.87,1.87,0,1,0,3.74,0V29.94a.24.24,0,0,1,.47,0v4.31A2.33,2.33,0,0,1,55,36.58Z"/><path class="cls-5" d="M34.22,23.61a.25.25,0,0,1-.17-.08.24.24,0,0,1,0-.33l1.57-1.46c-.08-.14-.22-.43-.31-.59H32.74a.23.23,0,0,1-.23-.23V16.71a.23.23,0,0,1,.23-.23h2.5a2.85,2.85,0,0,1,.38-1.09L34,13.58a.23.23,0,0,1,0-.32l2.91-2.95a.29.29,0,0,1,.17-.06.23.23,0,0,1,.17.07L38.8,11.9l.12-.05.6-.28V9.7a.23.23,0,0,1,.24-.23H44a.23.23,0,0,1,.23.23v1.81a3.52,3.52,0,0,1,1,.4l1.67-1.54a.22.22,0,0,1,.32,0l3,3a.22.22,0,0,1,0,.32l-1.58,1.69a2.9,2.9,0,0,1,.4,1.09h1.59a.23.23,0,0,1,.23.23v4.21a.23.23,0,0,1-.23.23H48.83l-.33.61L50,23.08a.24.24,0,0,1,0,.33.23.23,0,0,1-.33,0L48.06,22a.28.28,0,0,1-.06-.3l0,0c.51-1,.51-1,.67-1h1.58V16.94H48.7a.22.22,0,0,1-.23-.22,2.52,2.52,0,0,0-.42-1.21s0,0,0,0a.23.23,0,0,1,0-.27l1.55-1.64L47,10.86l-1.63,1.52a.24.24,0,0,1-.27,0l0,0A2.56,2.56,0,0,0,44,12a.24.24,0,0,1-.23-.23V9.93H40v1.79c0,.16,0,.16-.87.54l-.27.12a.21.21,0,0,1-.27,0L37.1,10.82l-2.59,2.62,1.57,1.76a.21.21,0,0,1,0,.26s0,0,0,0a2.48,2.48,0,0,0-.4,1.21.22.22,0,0,1-.23.22H33v3.75h2.49c.15,0,.15,0,.61.89l0,.11a.22.22,0,0,1,0,.28l-1.7,1.57A.2.2,0,0,1,34.22,23.61Z"/><path class="cls-5" d="M55.67,28.67a.58.58,0,0,1-.06-.11s-.06-.14-.1-.23-.13-.34-.13-.34h0a.23.23,0,0,1,.14-.29.22.22,0,0,1,.29.14s.06.16.13.32l.09.2,0,.09h0a.22.22,0,0,1-.1.31.21.21,0,0,1-.31-.1Z"/><path class="cls-5" d="M55.07,26.82a.87.87,0,0,0,0-.11q0-.11,0-.24c0-.19,0-.37,0-.37h0a.22.22,0,0,1,.22-.23.21.21,0,0,1,.23.21s0,.17,0,.33,0,.17,0,.23a.87.87,0,0,1,0,.11h0a.23.23,0,0,1-.18.27.24.24,0,0,1-.27-.19Z"/><path class="cls-5" d="M55.11,24.88l0-.11c0-.07,0-.15.07-.24s.13-.35.13-.35h0a.2.2,0,0,1,.28-.12.21.21,0,0,1,.12.28l-.11.31c0,.09-.05.16-.06.23l0,.1h0a.23.23,0,0,1-.44-.1Z"/><path class="cls-5" d="M56,23.13,56,23l.17-.19.27-.25h0a.21.21,0,0,1,.3,0,.22.22,0,0,1,0,.31l-.24.23-.15.16-.07.09h0a.22.22,0,0,1-.31,0,.21.21,0,0,1,0-.29Z"/><path class="cls-5" d="M57.47,21.9l.09-.06a1.64,1.64,0,0,0,.22-.12l.33-.15h0a.2.2,0,0,1,.27.1.2.2,0,0,1-.1.27L58,22.1l-.21.11-.09.05h0a.2.2,0,0,1-.28-.08.2.2,0,0,1,.07-.28Z"/><path class="cls-5" d="M59.23,21.15l.34-.1.35-.08a.2.2,0,1,1,.09.39,3,3,0,0,0-.33.08,3.08,3.08,0,0,0-.33.1.22.22,0,0,1-.26-.14.2.2,0,0,1,.14-.25Z"/><path class="cls-5" d="M61.11,20.8l.36,0h.36A.2.2,0,0,1,62,21a.22.22,0,0,1-.21.2l-.34,0-.34,0a.2.2,0,0,1-.21-.18.2.2,0,0,1,.19-.21Z"/><path class="cls-5" d="M63,21l.11,0,.24.07.34.13h0a.19.19,0,0,1,.11.24.2.2,0,0,1-.25.11,2.34,2.34,0,0,0-.32-.11L63,21.36l-.11,0h0a.2.2,0,0,1-.14-.24A.18.18,0,0,1,63,21Z"/><path class="cls-5" d="M64.79,21.73a.27.27,0,0,0,.09.07l.21.14.28.23h0a.19.19,0,0,1,0,.27.2.2,0,0,1-.26,0l-.27-.22a1.07,1.07,0,0,0-.19-.13l-.09-.06h0a.19.19,0,0,1,.2-.32Z"/><path class="cls-5" d="M66.22,23l.21.28.22.29a.18.18,0,0,1-.3.2l-.2-.27-.21-.26A.19.19,0,0,1,66,23a.18.18,0,0,1,.25,0Z"/><path class="cls-5" d="M67.26,24.62s.07.16.15.31.14.33.14.33a.17.17,0,0,1-.09.23.17.17,0,0,1-.23-.09l-.14-.31c-.07-.16-.15-.31-.15-.31a.17.17,0,0,1,.08-.24.19.19,0,0,1,.24.08Z"/><path class="cls-5" d="M68,26.39l.18.67a.16.16,0,0,1-.12.21.16.16,0,0,1-.21-.11l-.18-.68a.17.17,0,0,1,.12-.21.16.16,0,0,1,.21.12Z"/><path class="cls-5" d="M68.35,28.23l.08.7a.16.16,0,0,1-.14.19.16.16,0,0,1-.18-.14l-.09-.7a.18.18,0,0,1,.15-.19.17.17,0,0,1,.18.14Z"/><path class="cls-5" d="M68.5,30.12l0,.7a.16.16,0,0,1-.15.16.16.16,0,0,1-.16-.16v-.7a.15.15,0,0,1,.16-.16.16.16,0,0,1,.16.16Z"/><path class="cls-5" d="M68.4,32l-.1.69a.16.16,0,1,1-.31,0l.1-.69a.14.14,0,0,1,.17-.13.16.16,0,0,1,.14.17Z"/><path class="cls-5" d="M68.06,33.87l-.19.68a.14.14,0,0,1-.19.09.14.14,0,0,1-.1-.17l.19-.68a.15.15,0,0,1,.18-.11.16.16,0,0,1,.11.19Z"/><path class="cls-5" d="M67.48,35.66l-.28.65a.16.16,0,0,1-.2.08.15.15,0,0,1-.07-.19l.28-.65a.14.14,0,0,1,.19-.07.14.14,0,0,1,.08.18Z"/><path class="cls-5" d="M66.64,37.36l-.38.59a.14.14,0,0,1-.19,0,.16.16,0,0,1,0-.2l.37-.59a.13.13,0,0,1,.19,0,.14.14,0,0,1,0,.19Z"/><path class="cls-5" d="M65.54,38.9l-.23.26-.25.26a.12.12,0,0,1-.19,0,.13.13,0,0,1,0-.18l.24-.26.23-.26a.13.13,0,0,1,.18,0,.13.13,0,0,1,0,.19Z"/><path class="cls-5" d="M64.18,40.21l-.28.22-.29.21a.15.15,0,0,1-.18,0,.14.14,0,0,1,0-.18l.29-.21A3,3,0,0,0,64,40a.11.11,0,0,1,.18,0,.11.11,0,0,1,0,.17Z"/><path class="cls-5" d="M62.59,41.24l-.31.16-.13.05a.53.53,0,0,0-.1.06l-.1,0a.13.13,0,0,1-.16-.07.13.13,0,0,1,.06-.16l.1,0,.11-.05.11,0,.31-.16a.12.12,0,0,1,.17.06.13.13,0,0,1-.06.16Z"/><path class="cls-5" d="M60.86,42l-.34.12c-.17,0-.34.1-.34.1a.14.14,0,0,1-.15-.09.13.13,0,0,1,.09-.14l.33-.1.33-.11a.13.13,0,0,1,.15.06.13.13,0,0,1-.07.16Z"/><path class="cls-5" d="M59,42.37h-.11l-.25,0a1.31,1.31,0,0,1-.26-.09l-.11-.05v0a.1.1,0,0,1,0-.15.11.11,0,0,1,.14,0l.09,0a.52.52,0,0,0,.2.08l.22,0H59a.12.12,0,0,1,.11.11.11.11,0,0,1-.12.11Z"/><path class="cls-5" d="M58,41a.39.39,0,0,0,0-.1c0-.06.05-.15.09-.24a2.88,2.88,0,0,1,.17-.32h0a.09.09,0,0,1,.13,0,.09.09,0,0,1,0,.13l-.15.31c0,.08-.06.15-.08.22a.35.35,0,0,0,0,.1h0a.11.11,0,0,1-.13.07A.11.11,0,0,1,58,41Z"/><path class="cls-5" d="M59,39.37l.24-.27.25-.25a.1.1,0,0,1,.14,0,.1.1,0,0,1,0,.13,3.52,3.52,0,0,0-.25.26l-.23.26a.12.12,0,0,1-.14,0,.11.11,0,0,1,0-.14Z"/><path class="cls-5" d="M60.37,38.09l.29-.2.31-.2a.1.1,0,0,1,.12,0,.11.11,0,0,1,0,.14,3,3,0,0,0-.29.18l-.28.2a.11.11,0,0,1-.13,0,.09.09,0,0,1,0-.13Z"/><path class="cls-5" d="M62,37.2a1.9,1.9,0,0,1,.34-.1l.35-.08a.09.09,0,0,1,.1.08s0,.09-.07.09l-.34.07a3.08,3.08,0,0,0-.33.1.1.1,0,0,1-.11,0A.09.09,0,0,1,62,37.2h0Z"/><path class="cls-5" d="M63.92,37.08l.11,0a1.46,1.46,0,0,1,.23.1,2.71,2.71,0,0,1,.32.16h0s0,.08,0,.11a.08.08,0,0,1-.11,0,2.43,2.43,0,0,0-.3-.16L64,37.26l-.1,0h0a.07.07,0,0,1-.05-.1.08.08,0,0,1,.09-.05Z"/><path class="cls-5" d="M65.43,38.23l.18.29.16.33s0,.08,0,.09a.07.07,0,0,1-.09,0,3.12,3.12,0,0,0-.16-.31,3,3,0,0,0-.18-.29.08.08,0,0,1,.12-.09h0Z"/><path class="cls-5" d="M66.11,40s0,.18,0,.35,0,.37,0,.37a.07.07,0,0,1-.07.06s-.07,0-.07-.06,0-.18,0-.36A2.29,2.29,0,0,0,66,40s0-.07.06-.07a.06.06,0,0,1,.08,0Z"/><path class="cls-5" d="M66,41.87l-.09.34c0,.17-.11.34-.11.34s0,0-.08,0,0,0,0-.08a3.08,3.08,0,0,0,.1-.33c.05-.16.09-.34.09-.34a.06.06,0,0,1,.12,0Z"/><path class="cls-5" d="M65.35,43.62l-.18.31-.19.29a0,0,0,0,1-.07,0,.06.06,0,0,1,0-.08s.1-.14.19-.3.17-.29.17-.29,0,0,.08,0a.07.07,0,0,1,0,.08Z"/><path class="cls-5" d="M64.28,45.17l-.47.52s0,0-.06,0a0,0,0,0,1,0-.06l.46-.53a.08.08,0,0,1,.08,0,.06.06,0,0,1,0,.08Z"/><path class="cls-5" d="M63,46.5l-.54.45s0,0-.06,0a0,0,0,0,1,0,0l.54-.45a0,0,0,0,1,.06.06Z"/><path class="cls-5" d="M61.47,47.63l-.59.37s-.05,0-.06,0a0,0,0,0,1,0-.05l.6-.37a0,0,0,0,1,.06,0,0,0,0,0,1,0,.05Z"/><path class="cls-5" d="M59.84,48.55l-.64.28a0,0,0,0,1-.05,0s0,0,0,0l.64-.28s0,0,0,0a0,0,0,0,1,0,0Z"/><path class="cls-5" d="M58.08,49.22l-.33.09-.35.09,0,0s0,0,0,0l.34-.09.34-.09,0,0s0,0,0,0Z"/><path class="cls-5" d="M56.25,49.58l-.35,0h-.35s0,0,0,0a0,0,0,0,1,0,0h.35l.34,0s0,0,0,0l0,0Z"/><path class="cls-5" d="M54.38,49.57l-.35,0-.34-.08h0s0,0,0,0l.35.08.34,0,0,0,0,0Z"/><path class="cls-5" d="M52.57,49.08l-.31-.15L52,48.76h0l.32.16a2.76,2.76,0,0,0,.32.16h0Z"/><path class="cls-5" d="M51,48.08a3.45,3.45,0,0,1-.27-.24l-.24-.24h0l.24.25.26.23h0Z"/><path class="cls-5" d="M49.77,46.68l-.16-.25c-.08-.13-.15-.27-.15-.27s.07.14.15.27l.16.25Z"/><path class="cls-4" d="M65.35,32.8l-6.54-6.6A.49.49,0,0,0,58.4,26a.47.47,0,0,0-.36.25l-1.22,2.33-1.63.07.25,1.92.35,0L54.61,31.7l2.07,1.42Z"/><path class="cls-5" d="M56.68,33.36a.28.28,0,0,1-.13,0l-2.07-1.44a.19.19,0,0,1-.1-.17.24.24,0,0,1,.07-.19l.82-.76a.23.23,0,0,1-.06-.13L55,28.72a.24.24,0,0,1,0-.18.26.26,0,0,1,.17-.09l1.5-.06,1.15-2.21a.68.68,0,0,1,.54-.37h.09A.72.72,0,0,1,59,26l6.54,6.6a.25.25,0,0,1,0,.25.22.22,0,0,1-.21.14l-8.68.33ZM55,31.66l1.77,1.23,8.06-.31-6.17-6.21a.21.21,0,0,0-.21-.09.23.23,0,0,0-.18.12L57,28.73a.25.25,0,0,1-.2.12l-1.37.06.18,1.46h.14a.23.23,0,0,1,.22.14.23.23,0,0,1,0,.26Z"/><path class="cls-2" d="M65.54,32.81a.1.1,0,0,0,0-.12l-7-7.95a.43.43,0,0,0-.4-.16.46.46,0,0,0-.36.24l-3.2,6.12a.43.43,0,0,0,0,.44.44.44,0,0,0,.36.24l10.55,1.25A.09.09,0,0,0,65.54,32.81Z"/><path class="cls-5" d="M65.45,33.11h0L54.86,31.86a.7.7,0,0,1-.54-1l3.2-6.12a.71.71,0,0,1,1.15-.13l7,8a.34.34,0,0,1,0,.37A.34.34,0,0,1,65.45,33.11Zm-7.31-8.3h0a.24.24,0,0,0-.18.12l-3.21,6.12a.28.28,0,0,0,0,.22.25.25,0,0,0,.18.12l10.22,1.22-6.81-7.72A.25.25,0,0,0,58.14,24.81Z"/><path class="cls-2" d="M63,31.55l-7.54-2.42-.28-.91,1.32-1.07,6.56,4.31a.07.07,0,0,1,0,.07A.06.06,0,0,1,63,31.55Z"/><path class="cls-5" d="M63,31.8a.29.29,0,0,1-.1,0L55.4,29.35a.23.23,0,0,1-.15-.15L55,28.29A.23.23,0,0,1,55,28L56.36,27a.28.28,0,0,1,.28,0l6.56,4.32a.3.3,0,0,1,.12.16.26.26,0,0,1,0,.21A.27.27,0,0,1,63,31.8ZM55.66,29l6.18,2-5.31-3.5-1.07.87Z"/><path class="cls-5" d="M21.23,26.68a.3.3,0,0,1-.18-.08.25.25,0,0,1,0-.34c.06,0,.11-.1.17-.15a.25.25,0,0,1,.34,0,.24.24,0,0,1,0,.33l-.18.14A.19.19,0,0,1,21.23,26.68Z"/><path class="cls-5" d="M18.44,49.79a.25.25,0,0,1-.24-.22.23.23,0,0,1,.23-.24l.43,0a.23.23,0,0,1,.27.18.24.24,0,0,1-.19.28,4.22,4.22,0,0,1-.49,0Zm-.92-.06h-.05a3,3,0,0,1-.48-.15.21.21,0,0,1-.13-.29.25.25,0,0,1,.3-.15,1.48,1.48,0,0,0,.41.12.25.25,0,0,1,.18.29A.24.24,0,0,1,17.52,49.73Zm2.27-.21a.24.24,0,0,1-.22-.16.23.23,0,0,1,.15-.29l.41-.18a.25.25,0,0,1,.31.12.25.25,0,0,1-.12.32l-.44.18Zm-3.53-.37a.24.24,0,0,1-.13,0,2.83,2.83,0,0,1-.37-.32.24.24,0,0,1,0-.33.26.26,0,0,1,.34,0,3,3,0,0,0,.33.28.25.25,0,0,1,.05.33A.29.29,0,0,1,16.26,49.15ZM21,48.92a.23.23,0,0,1-.12-.43l.39-.24a.22.22,0,0,1,.32.06.23.23,0,0,1-.07.32,3.34,3.34,0,0,1-.4.25A.21.21,0,0,1,21,48.92Zm-5.71-.78a.25.25,0,0,1-.2-.1c-.09-.13-.17-.28-.25-.42a.24.24,0,0,1,.1-.32.23.23,0,0,1,.31.1l.23.37a.24.24,0,0,1-.07.33A.17.17,0,0,1,15.33,48.14Zm6.85,0A.26.26,0,0,1,22,48a.24.24,0,0,1,0-.33l.35-.3a.25.25,0,0,1,.33,0,.23.23,0,0,1,0,.33l-.36.31A.32.32,0,0,1,22.18,48.13Zm1-.94a.27.27,0,0,1-.17-.06.26.26,0,0,1,0-.34l.32-.32a.23.23,0,0,1,.33,0,.25.25,0,0,1,0,.33l-.33.34A.27.27,0,0,1,23.21,47.19Zm-8.5-.29a.22.22,0,0,1-.22-.16,3.26,3.26,0,0,1-.15-.44.24.24,0,0,1,.15-.3.23.23,0,0,1,.29.16l.15.43a.24.24,0,0,1-.14.3Zm9.44-.73a.27.27,0,0,1-.15-.05.25.25,0,0,1,0-.34c.1-.11.2-.23.29-.35a.24.24,0,0,1,.37.3l-.3.36A.25.25,0,0,1,24.15,46.17Zm-9.81-.61a.24.24,0,0,1-.23-.19c0-.15,0-.3-.08-.47a.23.23,0,0,1,.2-.26.22.22,0,0,1,.26.2c0,.15,0,.3.08.45a.24.24,0,0,1-.19.27Zm-.18-1.37a.24.24,0,0,1-.23-.22l0-.47a.24.24,0,0,1,.47,0,3.67,3.67,0,0,0,0,.46.24.24,0,0,1-.22.25Zm0-1.39h0a.24.24,0,0,1-.23-.24c0-.16,0-.31,0-.46a.23.23,0,1,1,.46,0c0,.15,0,.3,0,.45A.23.23,0,0,1,14.13,42.8Zm.08-1.38h0a.25.25,0,0,1-.22-.26c0-.16,0-.31,0-.46a.24.24,0,0,1,.27-.21.24.24,0,0,1,.2.26c0,.15,0,.31-.05.45A.24.24,0,0,1,14.21,41.42ZM14.39,40h0a.24.24,0,0,1-.19-.28c0-.15.05-.3.08-.46a.22.22,0,0,1,.27-.18.23.23,0,0,1,.19.27c0,.15-.06.3-.08.45A.23.23,0,0,1,14.39,40Zm.26-1.36H14.6a.24.24,0,0,1-.17-.28c0-.15.07-.3.1-.46a.24.24,0,0,1,.29-.16A.22.22,0,0,1,15,38c0,.16-.07.31-.11.45A.24.24,0,0,1,14.65,38.68ZM15,37.33h-.06a.24.24,0,0,1-.17-.29c.05-.15.09-.29.14-.45a.23.23,0,1,1,.44.14c0,.15-.08.29-.13.45A.23.23,0,0,1,15,37.33ZM15.42,36h-.08a.23.23,0,0,1-.14-.29l.15-.44a.23.23,0,0,1,.3-.14.22.22,0,0,1,.14.29c0,.16-.1.3-.15.44A.22.22,0,0,1,15.42,36Zm.48-1.29-.09,0a.25.25,0,0,1-.13-.31l.18-.43a.23.23,0,0,1,.31-.12.23.23,0,0,1,.13.3l-.18.43A.26.26,0,0,1,15.9,34.71Zm.55-1.28a.13.13,0,0,1-.09,0,.24.24,0,0,1-.12-.31c.07-.14.13-.29.2-.43a.23.23,0,0,1,.31-.1.23.23,0,0,1,.11.31c-.06.14-.13.27-.2.42A.22.22,0,0,1,16.45,33.43Zm.62-1.24a.2.2,0,0,1-.11,0,.23.23,0,0,1-.1-.32c.08-.13.15-.27.23-.41a.23.23,0,0,1,.4.23l-.21.4A.24.24,0,0,1,17.07,32.19ZM17.75,31l-.12,0a.24.24,0,0,1-.08-.32l.25-.39a.23.23,0,0,1,.32-.08.24.24,0,0,1,.07.33l-.24.38A.21.21,0,0,1,17.75,31Zm.76-1.16a.23.23,0,0,1-.2-.36l.27-.38a.23.23,0,1,1,.38.27l-.26.37A.23.23,0,0,1,18.51,29.81Zm.82-1.12a.28.28,0,0,1-.15,0,.23.23,0,0,1,0-.33l.29-.37a.24.24,0,0,1,.36.31l-.29.35A.25.25,0,0,1,19.33,28.69Zm.91-1.05a.23.23,0,0,1-.16-.06.22.22,0,0,1,0-.33l.32-.34a.23.23,0,0,1,.33.33l-.31.32A.21.21,0,0,1,20.24,27.64Z"/><path class="cls-5" d="M25,45.07a.22.22,0,0,1-.14,0,.23.23,0,0,1-.05-.32l.14-.19a.23.23,0,0,1,.32-.06.23.23,0,0,1,.06.33,1.33,1.33,0,0,1-.14.19A.21.21,0,0,1,25,45.07Z"/><path class="cls-5" d="M16.84,30.51a.27.27,0,0,1-.12,0,.24.24,0,0,1-.08-.32l.12-.21a.24.24,0,0,1,.33-.07.22.22,0,0,1,.07.31l-.11.2A.25.25,0,0,1,16.84,30.51Z"/><path class="cls-5" d="M14.54,35.48h-.08a.25.25,0,0,1-.15-.31c.06-.14.11-.29.16-.43a.24.24,0,0,1,.3-.14.25.25,0,0,1,.14.31l-.15.42A.26.26,0,0,1,14.54,35.48ZM15,34.19l-.09,0a.22.22,0,0,1-.13-.29l.18-.43a.22.22,0,0,1,.3-.12.24.24,0,0,1,.13.31c-.07.13-.12.27-.18.41A.23.23,0,0,1,15,34.19Zm.54-1.26a.13.13,0,0,1-.09,0,.22.22,0,0,1-.12-.3l.2-.42a.23.23,0,0,1,.31-.11.25.25,0,0,1,.11.32l-.2.4A.22.22,0,0,1,15.57,32.93Zm.61-1.22-.11,0a.25.25,0,0,1-.1-.32l.22-.41a.25.25,0,0,1,.32-.1.24.24,0,0,1,.09.32l-.22.41A.24.24,0,0,1,16.18,31.71Z"/><path class="cls-5" d="M14.18,36.57h-.07a.23.23,0,0,1-.16-.29L14,36a.23.23,0,0,1,.29-.15.24.24,0,0,1,.16.29l-.07.22A.23.23,0,0,1,14.18,36.57Z"/><path class="cls-5" d="M20.18,29.55l-.13,0a.25.25,0,0,1-.06-.33l.13-.2a.25.25,0,0,1,.33-.06.23.23,0,0,1,.06.32l-.13.2A.23.23,0,0,1,20.18,29.55Z"/><path class="cls-5" d="M16.64,36.09l-.09,0a.22.22,0,0,1-.12-.31c.06-.15.13-.3.2-.46a.23.23,0,0,1,.3-.11.23.23,0,0,1,.12.31l-.19.45A.24.24,0,0,1,16.64,36.09Zm.61-1.36-.1,0A.24.24,0,0,1,17,34.4l.22-.46a.24.24,0,0,1,.31-.1.25.25,0,0,1,.11.31c-.07.15-.14.3-.22.45A.21.21,0,0,1,17.25,34.73Zm.66-1.33-.11,0a.23.23,0,0,1-.09-.31c.07-.15.15-.3.23-.44a.22.22,0,0,1,.31-.1.23.23,0,0,1,.1.32l-.23.43A.23.23,0,0,1,17.91,33.4Zm.71-1.31a.2.2,0,0,1-.11,0,.23.23,0,0,1-.09-.32l.24-.44a.23.23,0,0,1,.32-.07.21.21,0,0,1,.09.31c-.08.15-.16.29-.25.43A.22.22,0,0,1,18.62,32.09Zm.76-1.28a.13.13,0,0,1-.12,0,.21.21,0,0,1-.08-.31l.26-.43a.25.25,0,0,1,.33-.07.23.23,0,0,1,.07.32l-.27.42A.24.24,0,0,1,19.38,30.81Z"/><path class="cls-5" d="M16.17,37.23l-.09,0A.24.24,0,0,1,16,36.9l.09-.21a.24.24,0,0,1,.31-.13.23.23,0,0,1,.12.31l-.08.21A.23.23,0,0,1,16.17,37.23Z"/><path class="cls-4" d="M19.6,27.69s1.93-5.58,3.88-3.18S19.6,27.69,19.6,27.69Z"/><path class="cls-5" d="M19.6,27.92a.24.24,0,0,1-.18-.09.25.25,0,0,1,0-.22c.14-.41,1.41-3.94,3.08-3.94a1.57,1.57,0,0,1,1.2.68A1.49,1.49,0,0,1,24,25.89c-.58,1.48-4,2-4.4,2Zm2.86-3.78c-1,0-2.05,2.09-2.5,3.25,1.15-.21,3.28-.76,3.64-1.68a1.07,1.07,0,0,0-.3-1.06A1.13,1.13,0,0,0,22.46,24.14Z"/><polygon class="cls-4" points="23.23 18.77 26.83 18.52 24.57 20.38 24.04 20.81 22.42 18.84 23.23 18.77"/><polygon class="cls-4" points="29.06 25.89 28.82 26.67 27.23 24.71 27.77 24.28 30.02 22.42 29.06 25.89"/><path class="cls-6" d="M27.92,17.63s.87.06,1.75.14a1.81,1.81,0,0,1,1.67,2c-.11.88-.22,1.73-.23,1.75l0,0-3.19-3.9Z"/><path class="cls-5" d="M31.11,21.77a.25.25,0,0,1-.18-.08.27.27,0,0,1-.05-.11l-3.05-3.73a.21.21,0,0,1-.1-.06.24.24,0,0,1,0-.33h0l0,0a.23.23,0,0,1,.25,0l1.65.12a2.07,2.07,0,0,1,1.43.75,2.11,2.11,0,0,1,.45,1.55c-.11.88-.18,1.42-.21,1.64a.19.19,0,0,1,0,.08.26.26,0,0,1-.09.16l0,0A.23.23,0,0,1,31.11,21.77Zm-2.63-3.86,2.48,3c0-.28.08-.68.14-1.17A1.58,1.58,0,0,0,29.65,18C29.15,18,28.76,17.93,28.48,17.91Z"/><rect class="cls-4" x="28.66" y="17.35" width="0.99" height="5.04" transform="translate(-6 22.97) rotate(-39.31)"/><path class="cls-5" d="M30.37,22.38h0a.21.21,0,0,1-.16-.08L27,18.39a.34.34,0,0,1,0-.17.26.26,0,0,1,.09-.16l.76-.62a.23.23,0,0,1,.33,0l3.19,3.9a.24.24,0,0,1,0,.33l-.76.63A.27.27,0,0,1,30.37,22.38ZM27.5,18.27l2.9,3.54.4-.33-2.9-3.54Z"/><path class="cls-5" d="M24,21a.24.24,0,0,1-.19-.08l-1.61-2a.2.2,0,0,1,0-.23.2.2,0,0,1,.19-.14l.82-.07,3.59-.25a.24.24,0,0,1,.17.42L24.18,21A.19.19,0,0,1,24,21Zm-1.16-2,1.19,1.44,2-1.67Z"/><path class="cls-4" d="M30.37,22.14l-4.28,3.51a1.45,1.45,0,0,1-1.76,0l-1.74-2.13a1.36,1.36,0,0,1,.31-1.74l4.27-3.5Z"/><path class="cls-5" d="M28.82,26.9a.28.28,0,0,1-.18-.09l-1.59-1.95a.24.24,0,0,1,0-.33l2.8-2.28a.21.21,0,0,1,.27,0,.22.22,0,0,1,.1.26l-1,3.46-.23.78a.23.23,0,0,1-.18.16Zm-1.26-2.15,1.17,1.42.11-.35.76-2.75Z"/><path class="cls-5" d="M25.3,26.17a2,2,0,0,1-1.11-.38l0,0-1.74-2.13,0,0a1.54,1.54,0,0,1,.36-2L27,18.06a.22.22,0,0,1,.17,0,.22.22,0,0,1,.16.09L30.55,22a.24.24,0,0,1,0,.33l-4.28,3.5A1.45,1.45,0,0,1,25.3,26.17Zm-.8-.73a1.52,1.52,0,0,0,.8.27,1.06,1.06,0,0,0,.64-.24L30,22.11l-2.9-3.54L23,21.93a1.11,1.11,0,0,0-.26,1.42Z"/><path class="cls-2" d="M26.84,20.47A1,1,0,1,0,28.12,22a1,1,0,0,0-1.28-1.56Z"/><path class="cls-2" d="M25,22a1,1,0,0,0-.14,1.43,1,1,0,0,0,1.57-1.28A1,1,0,0,0,25,22Z"/><path class="cls-4" d="M28.42,31.85A1.08,1.08,0,0,1,29.48,33s0,.11,0,.16a1,1,0,0,1,.81-.41,1.08,1.08,0,0,1,1,1.1,1.29,1.29,0,0,1-.14.56.92.92,0,0,1,.49-.13,1.07,1.07,0,0,1,1,1.09,1.1,1.1,0,0,1-.4.86h.17a1.07,1.07,0,0,1,1,1.09,1.09,1.09,0,0,1-.59,1,1.12,1.12,0,0,1,.59,1,1.07,1.07,0,0,1-1,1.09h-.11a1.12,1.12,0,0,1,.34.81,1.07,1.07,0,0,1-1,1.1.94.94,0,0,1-.47-.12,1.08,1.08,0,0,1,.12.5,1.07,1.07,0,0,1-1,1.1,1,1,0,0,1-.8-.38,1.05,1.05,0,0,1-2.1.07h0V33A1.07,1.07,0,0,1,28.42,31.85Z"/><path class="cls-5" d="M28.45,44.79a1.41,1.41,0,0,1-1.38-1.2.3.3,0,0,1,0-.12V33a1.44,1.44,0,0,1,1.38-1.48,1.42,1.42,0,0,1,1.32,1,1.33,1.33,0,0,1,1.36.15,1.46,1.46,0,0,1,.55,1.26,1.37,1.37,0,0,1,1.18.61,1.55,1.55,0,0,1,.1,1.42,1.38,1.38,0,0,1,.87.86,1.51,1.51,0,0,1-.31,1.49,1.46,1.46,0,0,1,.31,1.49,1.5,1.5,0,0,1-.85.86A1.51,1.51,0,0,1,32.79,42a1.35,1.35,0,0,1-1.1.57h0a1.42,1.42,0,0,1-.59,1.25,1.38,1.38,0,0,1-1.4.11,1.34,1.34,0,0,1-1.17.81Zm-.73-1.38s0,0,0,0a.73.73,0,0,0,.74.68.75.75,0,0,0,.65-.58,1.61,1.61,0,0,1,.57-2,.34.34,0,0,1,.5.19.36.36,0,0,1-.15.39.92.92,0,0,0-.34,1l0,0a.68.68,0,0,0,1,.13.79.79,0,0,0,.24-.92,1.57,1.57,0,0,1-.41-.62,1.52,1.52,0,0,1-.09-.59.78.78,0,0,0-1-.07.34.34,0,0,1-.51-.18.34.34,0,0,1,.13-.38,1.44,1.44,0,0,1,1.57-.05,2,2,0,0,1,.19-.31l.05,0a2,2,0,0,1-.31-.34l0,.09a.33.33,0,0,1-.29.19.36.36,0,0,1-.29-.16.35.35,0,0,1,0-.33,3.28,3.28,0,0,0,.29-.89s0,0,0,0a1.54,1.54,0,0,0-.1-.84l0-.06a1,1,0,0,0-.3-.4.34.34,0,0,1-.13-.38.33.33,0,0,1,.49-.19,2,2,0,0,1,.27.22,1.28,1.28,0,0,1,.94-.39,1.49,1.49,0,0,1,.2-.31,1.62,1.62,0,0,1,.61-.4.81.81,0,0,0,.13-1,.7.7,0,0,0-.93-.26.84.84,0,0,0-.35,1.1.34.34,0,0,1,0,.31.34.34,0,0,1-.29.14.35.35,0,0,1-.32-.22,2,2,0,0,1-.12-.6,1.15,1.15,0,0,1-.81-.79.3.3,0,0,1,.05-.28.36.36,0,0,1,.28-.15.33.33,0,0,1,.32.26.47.47,0,0,0,.31.3,1.49,1.49,0,0,1,.53-.61.83.83,0,0,0-.26-1,.71.71,0,0,0-.87.1,1.58,1.58,0,0,1-1.65,1.26.32.32,0,0,1-.33-.33.33.33,0,0,1,.32-.34,1,1,0,0,0,.88-.4.91.91,0,0,0,.12-.35.84.84,0,0,0-.2-.68.68.68,0,0,0-.51-.23H28.3a.84.84,0,0,0-.58.92V36a1.94,1.94,0,0,1,.59,0,.36.36,0,0,0,0-.22.33.33,0,0,1,.05-.29.35.35,0,0,1,.28-.15.33.33,0,0,1,.32.24,1.08,1.08,0,0,1,0,.64,2.16,2.16,0,0,1,.4.27.32.32,0,0,1,.11.35.36.36,0,0,1-.55.16,1.24,1.24,0,0,0-1.19-.29V38.8a1.79,1.79,0,0,0,.47.11.78.78,0,0,0-.06-.51.36.36,0,0,1,0-.32.37.37,0,0,1,.29-.17.34.34,0,0,1,.3.2,1.84,1.84,0,0,1,.14.73,1.36,1.36,0,0,0,.28-.11.35.35,0,0,1,.49.23.31.31,0,0,1-.17.36,2.53,2.53,0,0,1-1.77.19V42a.14.14,0,0,1,.08-.05,1.46,1.46,0,0,1,.91-.84.33.33,0,0,1,.43.28.34.34,0,0,1-.24.37,1,1,0,0,0-.21.1s0,0,.06,0a.33.33,0,1,1-.18.64.74.74,0,0,0-.65.13,1.12,1.12,0,0,0-.2.17Zm3.67-1.53a.75.75,0,0,0,.29.06.67.67,0,0,0,.59-.34.82.82,0,0,0-.05-.9,2.85,2.85,0,0,1-.8-.22.35.35,0,0,1-.05.08,1,1,0,0,0-.2,1A1.38,1.38,0,0,0,31.39,41.88Zm1-1.85h.09a.69.69,0,0,0,.68-.55.78.78,0,0,0-.33-.9.79.79,0,0,0-.94.51.33.33,0,0,1-.32.22.34.34,0,0,1-.29-.15.29.29,0,0,1,0-.3,1.48,1.48,0,0,1,1.64-1,.8.8,0,0,0,.28-.86.64.64,0,0,0-1.1-.33.74.74,0,0,0,0,.88.38.38,0,0,1,0,.33.36.36,0,0,1-.29.16.31.31,0,0,1-.29-.2,2.16,2.16,0,0,1-.17-.61.59.59,0,0,0-.46.33,2.46,2.46,0,0,1,.09,1v.07a1.25,1.25,0,0,0,.75,1.11,2.08,2.08,0,0,0,.73.21Z"/><path class="cls-4" d="M25.76,31.85A1.07,1.07,0,0,0,24.71,33a.44.44,0,0,0,0,.16,1,1,0,0,0-1.87.69,1.16,1.16,0,0,0,.14.56.9.9,0,0,0-.49-.13,1.1,1.1,0,0,0-.65,2h-.17a1.07,1.07,0,0,0-1.05,1.09,1.09,1.09,0,0,0,.59,1,1.12,1.12,0,0,0-.59,1,1.07,1.07,0,0,0,1.05,1.09h.11a1.12,1.12,0,0,0-.34.81,1.07,1.07,0,0,0,1.05,1.1,1,1,0,0,0,.47-.12,1.08,1.08,0,0,0-.12.5,1.07,1.07,0,0,0,1.05,1.1,1,1,0,0,0,.8-.38,1.05,1.05,0,0,0,2.1.07h0V33A1.07,1.07,0,0,0,25.76,31.85Z"/><path class="cls-5" d="M25.82,44.79h-.11A1.38,1.38,0,0,1,24.55,44a1.39,1.39,0,0,1-1.43-.13,1.47,1.47,0,0,1-.56-1.23A1.38,1.38,0,0,1,21.39,42a1.49,1.49,0,0,1-.12-1.36,1.39,1.39,0,0,1-.87-.93,1.55,1.55,0,0,1,.32-1.43,1.44,1.44,0,0,1,.56-2.34,1.46,1.46,0,0,1,.12-1.42,1.37,1.37,0,0,1,1.17-.61,1.41,1.41,0,0,1,.58-1.28,1.35,1.35,0,0,1,1.33-.13,1.42,1.42,0,0,1,1.3-1,1.45,1.45,0,0,1,.83.28,2.24,2.24,0,0,1,.57,2c0,.13,0,.24,0,.35v8.5a.24.24,0,0,1,0,.12v.75a.6.6,0,0,1,0,.12A1.42,1.42,0,0,1,25.82,44.79Zm-.72-1.26a.72.72,0,0,0,.64.58h0a.75.75,0,0,0,.75-.68s0,0,0,0v-.62a1.3,1.3,0,0,0-.2-.17.75.75,0,0,0-.65-.13.33.33,0,0,1-.42-.27.32.32,0,0,1,.24-.37s0,0,.06,0a1.36,1.36,0,0,0-.21-.1.34.34,0,0,1-.24-.37.33.33,0,0,1,.43-.28,1.48,1.48,0,0,1,.91.84.18.18,0,0,1,.08.05V39.51a2.53,2.53,0,0,1-1.77-.19.3.3,0,0,1-.17-.36.34.34,0,0,1,.48-.23,1.72,1.72,0,0,0,.29.11,1.68,1.68,0,0,1,.14-.73.32.32,0,0,1,.29-.2.38.38,0,0,1,.3.17.33.33,0,0,1,0,.32.71.71,0,0,0,0,.51,1.89,1.89,0,0,0,.47-.11V36.68a1.24,1.24,0,0,0-1.19.29.36.36,0,0,1-.55-.16.32.32,0,0,1,.1-.35,2.63,2.63,0,0,1,.41-.27,1.08,1.08,0,0,1,0-.64.33.33,0,0,1,.32-.24.35.35,0,0,1,.28.15.33.33,0,0,1,.05.29.36.36,0,0,0,0,.22,1.94,1.94,0,0,1,.59,0V33a.76.76,0,0,0-.72-.77.71.71,0,0,0-.5.23.86.86,0,0,0-.19.67.85.85,0,0,0,.12.36,1,1,0,0,0,.87.4.34.34,0,0,1,.33.34.32.32,0,0,1-.33.33,1.6,1.6,0,0,1-1.66-1.26.69.69,0,0,0-.9-.07.83.83,0,0,0-.23.94,1.45,1.45,0,0,1,.54.61.47.47,0,0,0,.31-.3.33.33,0,0,1,.32-.26.36.36,0,0,1,.28.15.3.3,0,0,1,.05.28,1.15,1.15,0,0,1-.81.79,2,2,0,0,1-.12.6.35.35,0,0,1-.32.22.34.34,0,0,1-.29-.14.34.34,0,0,1,0-.31.87.87,0,0,0-.35-1.12.93.93,0,0,0-.33-.07.67.67,0,0,0-.59.34.8.8,0,0,0,.12,1,1.51,1.51,0,0,1,.63.43,1.05,1.05,0,0,1,.17.28,1.21,1.21,0,0,1,.95.39,2.75,2.75,0,0,1,.26-.22.34.34,0,0,1,.37.57,1.24,1.24,0,0,0-.31.38.34.34,0,0,1,0,.08,2.2,2.2,0,0,0,.2,1.78.35.35,0,0,1,0,.33.37.37,0,0,1-.29.16.32.32,0,0,1-.29-.19l-.05-.09a2.45,2.45,0,0,1-.31.34l0,0a2,2,0,0,1,.19.31,1.44,1.44,0,0,1,1.57.05.34.34,0,0,1-.38.56.78.78,0,0,0-1,.07,1.39,1.39,0,0,1-.09.6,1.72,1.72,0,0,1-.41.61.8.8,0,0,0,.27,1,.7.7,0,0,0,.93-.16l0,0a.9.9,0,0,0-.33-1,.36.36,0,0,1-.15-.39.34.34,0,0,1,.5-.19A1.61,1.61,0,0,1,25.1,43.53ZM22,40.7a.8.8,0,0,0,0,.93.71.71,0,0,0,.86.25.87.87,0,0,0,.22-.31,1,1,0,0,0-.19-1,.18.18,0,0,1-.05-.08A2.85,2.85,0,0,1,22,40.7Zm-.6-2.11a.8.8,0,0,0-.34.9.72.72,0,0,0,.76.54h.05a2.43,2.43,0,0,0,.73-.21,1.25,1.25,0,0,0,.74-1.11.2.2,0,0,1,0-.07,2.46,2.46,0,0,1,.09-1,.6.6,0,0,0-.46-.33,2.16,2.16,0,0,1-.17.61.31.31,0,0,1-.29.2.35.35,0,0,1-.29-.16.38.38,0,0,1,0-.33.75.75,0,0,0-.07-.89.66.66,0,0,0-.31-.18.73.73,0,0,0-.77.5.79.79,0,0,0,.28.88,1.48,1.48,0,0,1,1.64,1,.27.27,0,0,1,0,.3.31.31,0,0,1-.28.15.33.33,0,0,1-.32-.22A.8.8,0,0,0,21.4,38.59Z"/><path class="cls-2" d="M20.42,39a7.21,7.21,0,0,0-.59,2.86,7.29,7.29,0,0,0,4.78,6.84V50h5V48.7a7.34,7.34,0,0,0,4.81-6.87A7.21,7.21,0,0,0,33.8,39Z"/><path class="cls-2" d="M24,39a4.15,4.15,0,0,0-1.14,2.86,4.22,4.22,0,0,0,2.77,4L27,47.69h.2l1.33-1.89a4.23,4.23,0,0,0,2.78-4A4.14,4.14,0,0,0,30.18,39Z"/><path class="cls-5" d="M29.58,50.2h-5a.23.23,0,0,1-.23-.23V48.84a7.55,7.55,0,0,1-4.18-10,.27.27,0,0,1,.22-.13H33.8a.24.24,0,0,1,.21.13,7.44,7.44,0,0,1,.61,3,7.54,7.54,0,0,1-4.81,7V50A.24.24,0,0,1,29.58,50.2Zm-4.73-.47h4.49v-1a.23.23,0,0,1,.15-.22,7.1,7.1,0,0,0,4.67-6.65,7,7,0,0,0-.51-2.63H20.57a7,7,0,0,0,4.12,9.25.24.24,0,0,1,.16.22Z"/><rect class="cls-4" x="24.64" y="49.92" width="4.9" height="2.56"/><path class="cls-5" d="M29.54,52.72h-4.9a.23.23,0,0,1-.23-.23V49.92a.23.23,0,0,1,.23-.24h4.9a.23.23,0,0,1,.23.24v2.57A.23.23,0,0,1,29.54,52.72Zm-4.67-.46h4.44V50.15H24.87Z"/><path class="cls-5" d="M29.94,50.85H24.33a.23.23,0,0,1-.24-.24.23.23,0,0,1,.24-.23h5.61a.24.24,0,0,1,.23.23A.23.23,0,0,1,29.94,50.85Z"/><path class="cls-5" d="M29.94,51.56H24.33a.24.24,0,0,1-.24-.25.23.23,0,0,1,.24-.23h5.61a.24.24,0,0,1,.23.23A.24.24,0,0,1,29.94,51.56Z"/><path class="cls-5" d="M18.22,22.84H18a.23.23,0,0,1-.23-.23.23.23,0,0,1,.23-.24h.24a.23.23,0,0,1,.23.24A.23.23,0,0,1,18.22,22.84Z"/><path class="cls-5" d="M17,22.84h-.48a.23.23,0,0,1-.23-.23.23.23,0,0,1,.23-.24H17a.23.23,0,0,1,.23.24A.23.23,0,0,1,17,22.84Zm-1.43,0h-.48a.23.23,0,0,1-.23-.23.23.23,0,0,1,.23-.24h.48a.23.23,0,0,1,.23.24A.23.23,0,0,1,15.6,22.84Zm-1.43,0h-.48a.23.23,0,0,1-.23-.23.23.23,0,0,1,.23-.24h.48a.23.23,0,0,1,.23.24A.23.23,0,0,1,14.17,22.84Z"/><path class="cls-5" d="M12.73,22.84H12.5a.23.23,0,0,1-.23-.23.23.23,0,0,1,.23-.24h.23a.24.24,0,0,1,.24.24A.23.23,0,0,1,12.73,22.84Z"/><path class="cls-5" d="M51.85,36.58h-.23a.23.23,0,0,1-.24-.23.23.23,0,0,1,.24-.23h.23a.23.23,0,0,1,.23.23A.22.22,0,0,1,51.85,36.58Z"/><path class="cls-5" d="M50.66,36.58h-.47a.22.22,0,0,1-.24-.23.23.23,0,0,1,.24-.23h.47a.23.23,0,0,1,.24.23A.23.23,0,0,1,50.66,36.58Zm-1.43,0h-.47a.22.22,0,0,1-.24-.23.23.23,0,0,1,.24-.23h.47a.23.23,0,0,1,.24.23A.23.23,0,0,1,49.23,36.58Zm-1.43,0h-.47a.22.22,0,0,1-.24-.23.23.23,0,0,1,.24-.23h.47a.23.23,0,0,1,.23.23A.22.22,0,0,1,47.8,36.58Z"/><path class="cls-5" d="M46.37,36.58h-.23a.22.22,0,0,1-.24-.23.23.23,0,0,1,.24-.23h.23a.23.23,0,0,1,.23.23A.22.22,0,0,1,46.37,36.58Z"/><path class="cls-5" d="M31.88,29.7a1,1,0,0,1-1-1,1,1,0,1,1,2,0A1,1,0,0,1,31.88,29.7Zm0-1.49a.52.52,0,1,0,.51.52A.52.52,0,0,0,31.88,28.21Z"/><path class="cls-5" d="M69.79,44.48a1,1,0,1,1,1-1A1,1,0,0,1,69.79,44.48Zm0-1.49a.51.51,0,1,0,.52.51A.51.51,0,0,0,69.79,43Z"/><path class="cls-5" d="M60.33,18.59h-.92c-.46,0-.65-.51-.82-.94-.11-.28-.25-.64-.39-.64s-.29.33-.4.6c-.17.42-.36.9-.82.9s-.65-.47-.83-.89-.24-.6-.39-.6-.29.36-.39.64c-.18.44-.37.93-.83.93H53.32a.24.24,0,1,1,0-.47h1.22c.14,0,.29-.36.39-.64.18-.44.37-.93.83-.93s.66.47.83.89c.11.27.24.6.39.6s.28-.34.39-.6c.17-.42.37-.9.83-.9s.65.5.82.94c.1.26.25.64.39.64h.92a.24.24,0,0,1,0,.47Z"/><path class="cls-5" d="M76,38.23h-.92c-.47,0-.66-.51-.83-.94s-.25-.64-.39-.64-.28.33-.39.6-.36.9-.82.9-.66-.47-.83-.89c-.11-.27-.25-.6-.39-.6s-.29.36-.39.64c-.18.44-.37.93-.84.93H69a.24.24,0,0,1,0-.47H70.2c.15,0,.3-.36.4-.64.17-.44.37-.93.83-.93s.65.47.82.89.25.6.4.6.28-.34.39-.6c.17-.42.36-.9.82-.9s.66.5.83.94c.1.26.24.64.39.64H76a.24.24,0,0,1,0,.47Z"/><path class="cls-5" d="M13.33,49.91h-.92c-.46,0-.65-.49-.82-.93-.1-.27-.25-.65-.39-.65s-.28.34-.39.62-.37.89-.83.89-.65-.48-.82-.89-.25-.61-.39-.61-.29.38-.4.64c-.17.44-.36.93-.82.93H6.32a.23.23,0,0,1,0-.46H7.55c.14,0,.28-.37.38-.63.18-.44.37-.94.84-.94s.65.48.82.89.25.61.39.61.28-.34.39-.61c.17-.43.37-.9.83-.9s.65.5.82.94c.11.27.25.64.39.64h.92a.23.23,0,1,1,0,.46Z"/><path class="cls-5" d="M72.49,50.61h-.92c-.47,0-.66-.49-.83-.93-.1-.27-.24-.64-.39-.64s-.28.34-.39.61c-.17.42-.36.89-.82.89s-.66-.47-.83-.89c-.11-.26-.24-.6-.39-.6s-.29.37-.39.63c-.18.44-.37.93-.83.93H65.47a.22.22,0,0,1-.23-.23.23.23,0,0,1,.23-.23H66.7c.14,0,.29-.37.39-.63.18-.44.37-.93.83-.93s.66.47.83.88.24.61.39.61.28-.34.39-.61.36-.89.82-.89.66.49.83.93c.1.27.25.64.39.64h.92a.23.23,0,0,1,.24.23A.23.23,0,0,1,72.49,50.61Z"/><path class="cls-5" d="M52.78,27.79a.23.23,0,0,1-.17-.07l-.92-.93a.22.22,0,0,1,0-.33.24.24,0,0,1,.33,0l.93.93a.24.24,0,0,1-.17.4Z"/><path class="cls-5" d="M51.85,27.79a.2.2,0,0,1-.16-.07.22.22,0,0,1,0-.33l.92-.93a.25.25,0,0,1,.34,0,.24.24,0,0,1,0,.33l-.93.93A.23.23,0,0,1,51.85,27.79Z"/><path class="cls-5" d="M53.13,39.31a.23.23,0,0,1-.16-.06L52,38.32a.23.23,0,0,1,.33-.33l.93.93a.24.24,0,0,1,0,.33A.25.25,0,0,1,53.13,39.31Z"/><path class="cls-5" d="M52.2,39.31a.23.23,0,0,1-.16-.06.24.24,0,0,1,0-.33L53,38a.23.23,0,0,1,.33.33l-.93.93A.27.27,0,0,1,52.2,39.31Z"/><path class="cls-5" d="M25.51,29.49a.23.23,0,0,1-.16-.06l-.93-.93a.23.23,0,0,1,.33-.33l.93.93a.24.24,0,0,1,0,.33A.25.25,0,0,1,25.51,29.49Z"/><path class="cls-5" d="M24.58,29.49a.23.23,0,0,1-.16-.06.24.24,0,0,1,0-.33l.93-.93a.23.23,0,0,1,.33.33l-.93.93A.27.27,0,0,1,24.58,29.49Z"/><path class="cls-5" d="M56.8,46.78a.2.2,0,0,1-.16-.07l-.94-.93a.23.23,0,0,1,.33-.33l.93.93a.22.22,0,0,1,0,.33A.2.2,0,0,1,56.8,46.78Z"/><path class="cls-5" d="M55.87,46.78a.24.24,0,0,1-.17-.4l.94-.93a.22.22,0,0,1,.32,0,.22.22,0,0,1,0,.33l-.93.93A.2.2,0,0,1,55.87,46.78Z"/><path class="cls-2" d="M62.66,45a4.7,4.7,0,0,0,.83-2.62A5,5,0,1,0,54.17,45h0C56.2,48.15,56,49.61,56,49.61h5A9.49,9.49,0,0,1,62.66,45Z"/><path class="cls-7" d="M62.32,42.47a3.85,3.85,0,1,1-3.85-3.85A3.84,3.84,0,0,1,62.32,42.47Z"/><polygon class="cls-7" points="59.66 49.6 59.66 46.58 57.29 46.59 57.29 49.6 59.66 49.6"/><g class="cls-8"><polygon class="cls-7" points="58.89 49.6 58.89 46.58 58.05 46.59 58.05 49.6 58.89 49.6"/></g><path class="cls-9" d="M58.47,44.67s-1.18,1.88-1.18,1.92h0c0,.11.18.2.4.2s.37-.08.39-.18c0,.1.19.18.39.18s.37-.08.4-.18c0,.1.18.18.38.18s.41-.1.41-.21S58.47,44.67,58.47,44.67Z"/><path class="cls-5" d="M57.69,47c-.37,0-.64-.18-.64-.43,0-.09,0-.11,1.22-2a.24.24,0,0,1,.2-.11h0a.24.24,0,0,1,.19.11c1.23,1.92,1.23,1.94,1.23,2a.33.33,0,0,1-.11.25.73.73,0,0,1-.53.19.76.76,0,0,1-.38-.09.82.82,0,0,1-.4.09.8.8,0,0,1-.39-.09.8.8,0,0,1-.39.09Zm-.11-.47h.11v0c.1,0,.15,0,.17-.05a.29.29,0,0,1,.22-.14h0a.27.27,0,0,1,.22.14.24.24,0,0,0,.17.05.27.27,0,0,0,.18-.05.26.26,0,0,1,.21-.14h0a.24.24,0,0,1,.21.14.27.27,0,0,0,.17,0h.11c-.16-.28-.56-.9-.89-1.43C58.14,45.64,57.75,46.26,57.58,46.55Z"/><path class="cls-5" d="M57.9,45.82a.22.22,0,0,1-.2-.12.23.23,0,0,1,0-.24l.56-.91a.24.24,0,0,1,.2-.11h0a.24.24,0,0,1,.19.11l.57.91a.21.21,0,0,1,0,.23.23.23,0,0,1-.2.13Zm.57-.7-.15.23h.29Z"/><path class="cls-5" d="M57.29,49.84a.23.23,0,0,1-.24-.23v-3a.24.24,0,1,1,.47,0v3A.23.23,0,0,1,57.29,49.84Z"/><path class="cls-5" d="M59.66,49.84a.23.23,0,0,1-.23-.23v-3a.23.23,0,1,1,.46,0v3A.23.23,0,0,1,59.66,49.84Z"/><path class="cls-5" d="M61,49.84H56a.24.24,0,0,1-.24-.22A8.93,8.93,0,0,0,54,45.1a4.4,4.4,0,0,1-.75-2.71,5.25,5.25,0,0,1,10.49,0A4.39,4.39,0,0,1,63,45.1a8.29,8.29,0,0,0-1.78,4.51A.23.23,0,0,1,61,49.84Zm-4.75-.48,4.53,0a8.87,8.87,0,0,1,1.86-4.56,3.93,3.93,0,0,0,.66-2.42,4.78,4.78,0,0,0-9.56,0,4,4,0,0,0,.66,2.43A9.38,9.38,0,0,1,56.2,49.36Z"/><polygon class="cls-10" points="55.99 49.13 55.99 50.62 56.91 52.28 60.07 52.28 60.98 50.64 60.98 49.15 55.99 49.13"/><path class="cls-5" d="M60.07,52.51H56.9a.22.22,0,0,1-.2-.12l-.91-1.64a.2.2,0,0,1,0-.13V49.13A.23.23,0,0,1,56,48.9h5a.3.3,0,0,1,.17.08.24.24,0,0,1,.06.17v1.49a.26.26,0,0,1,0,.11l-.91,1.64A.22.22,0,0,1,60.07,52.51ZM57,52h2.89l.82-1.47V49.38H56.22v1.19Z"/><path class="cls-5" d="M61.24,50.15H55.71a.23.23,0,1,1,0-.46h5.53a.24.24,0,0,1,0,.47Z"/><path class="cls-5" d="M61.24,50.84H55.71a.24.24,0,1,1,0-.47h5.53a.23.23,0,0,1,.23.23A.22.22,0,0,1,61.24,50.84Z"/><path class="cls-5" d="M61.24,51.54H55.71a.24.24,0,1,1,0-.47h5.53a.23.23,0,0,1,.23.24A.23.23,0,0,1,61.24,51.54Z"/><path class="cls-5" d="M58.84,39.74a3.47,3.47,0,0,1-.13.46c-.05.14-.09.3-.15.44s-.1.3-.16.44l-.18.43L58,41.07c.44,0,.87-.06,1.31-.06h.6l-.3.53c-.26.46-.55.91-.86,1.35-.15.22-.32.42-.48.63a8.09,8.09,0,0,1-.56.61c.07-.27.16-.52.25-.78s.2-.5.32-.74A14.62,14.62,0,0,1,59,41.19l.3.52c-.44,0-.87,0-1.31-.05l-.53,0,.26-.4c.09-.13.17-.25.27-.38s.18-.25.27-.38.19-.25.29-.37A3.49,3.49,0,0,1,58.84,39.74Z"/></g></g></g></svg>