<svg xmlns="http://www.w3.org/2000/svg" viewBox="0 0 83.07 69.55"><defs><style>.cls-1,.cls-5{fill:#f7f0e9;}.cls-2{fill:#00bcd6;}.cls-3{fill:#f06934;}.cls-4{fill:#00a9b4;}.cls-5,.cls-6{fill-rule:evenodd;}.cls-6,.cls-7{fill:#5bb9e9;}</style></defs><title>alfianjau-Asset 2</title><g id="Layer_2" data-name="Layer 2"><g id="Layer_1-2" data-name="Layer 1"><path class="cls-1" d="M60.72,39.66h16.2a4.3,4.3,0,0,0-3.07,1.27,4,4,0,0,0-1.27,2.93,4.22,4.22,0,0,0,4.34,4.21H60.72a4.2,4.2,0,0,0,3.07-1.13,4.16,4.16,0,0,0,1.27-3A4.28,4.28,0,0,0,60.72,39.66Z"/><path class="cls-1" d="M72.85,35.52A31.53,31.53,0,1,1,41.32,4,31.53,31.53,0,0,1,72.85,35.52Z"/><path class="cls-2" d="M41.32,62A26.43,26.43,0,1,1,67.74,35.52,26.46,26.46,0,0,1,41.32,62Zm0-51.91A25.49,25.49,0,1,0,66.81,35.52,25.51,25.51,0,0,0,41.32,10Z"/><path class="cls-1" d="M16.52,53.77h13a2.42,2.42,0,0,1,2.41,2.42h0a2.41,2.41,0,0,1-2.41,2.41H16.52a2.41,2.41,0,0,1-2.41-2.41h0A2.42,2.42,0,0,1,16.52,53.77Z"/><path class="cls-1" d="M13.41,63.27H41.17a1.57,1.57,0,0,1,1.57,1.57h0a1.57,1.57,0,0,1-1.57,1.57H13.41a1.57,1.57,0,0,1-1.57-1.57h0A1.57,1.57,0,0,1,13.41,63.27Z"/><path class="cls-1" d="M55.28,66.43h2.93A1.57,1.57,0,0,1,59.78,68h0a1.57,1.57,0,0,1-1.57,1.56H55.28A1.56,1.56,0,0,1,53.72,68h0A1.56,1.56,0,0,1,55.28,66.43Z"/><path class="cls-1" d="M53.83,57.17H68.08a2.57,2.57,0,0,1,2.57,2.56h0a2.57,2.57,0,0,1-2.57,2.57H53.83a2.56,2.56,0,0,1-2.56-2.57h0A2.56,2.56,0,0,1,53.83,57.17Z"/><path class="cls-1" d="M54.56,31H77.81a4.34,4.34,0,0,1,4.34,4.34h0a4.34,4.34,0,0,1-4.34,4.34H54.56a4.33,4.33,0,0,1-4.33-4.34h0A4.33,4.33,0,0,1,54.56,31Z"/><path class="cls-1" d="M18.75,58.59h9a2.46,2.46,0,0,0-1.71.73,2.17,2.17,0,0,0-.7,1.62,2.34,2.34,0,0,0,2.41,2.33h-9A2.26,2.26,0,0,0,21.17,61,2.39,2.39,0,0,0,18.75,58.59Z"/><path class="cls-1" d="M45.82,48.09H80.26a2.81,2.81,0,0,1,2.81,2.81h0a2.82,2.82,0,0,1-2.81,2.82H45.82A2.82,2.82,0,0,1,43,50.9h0A2.81,2.81,0,0,1,45.82,48.09Z"/><path class="cls-1" d="M34.67,27.21H7.44a4.6,4.6,0,0,1-4.61-4.6h0A4.6,4.6,0,0,1,7.44,18H34.67a4.61,4.61,0,0,1,4.61,4.6h0A4.61,4.61,0,0,1,34.67,27.21Z"/><path class="cls-1" d="M46,53.88H6.66A6.66,6.66,0,0,1,0,47.23H0a6.65,6.65,0,0,1,6.66-6.66H46a6.65,6.65,0,0,1,6.65,6.66h0A6.65,6.65,0,0,1,46,53.88Z"/><path class="cls-1" d="M68.29,16.63H46.56A3.68,3.68,0,0,1,42.88,13h0a3.68,3.68,0,0,1,3.68-3.67H68.29A3.68,3.68,0,0,1,72,13h0A3.68,3.68,0,0,1,68.29,16.63Z"/><path class="cls-1" d="M37.55,10.36H21A3.08,3.08,0,0,1,18,7.28h0A3.08,3.08,0,0,1,21,4.2H37.55a3.08,3.08,0,0,1,3.09,3.08h0A3.08,3.08,0,0,1,37.55,10.36Z"/><path class="cls-1" d="M61.6,4H56.44a2,2,0,0,1-2-2h0a2,2,0,0,1,2-2H61.6a2,2,0,0,1,2,2h0A2,2,0,0,1,61.6,4Z"/><path class="cls-3" d="M14.19,44a8.44,8.44,0,1,0,8.44-8.44A8.43,8.43,0,0,0,14.19,44Z"/><path class="cls-4" d="M22.63,52.64A8.67,8.67,0,1,1,31.3,44,8.68,8.68,0,0,1,22.63,52.64Zm0-16.88A8.21,8.21,0,1,0,30.83,44,8.22,8.22,0,0,0,22.63,35.76Z"/><path class="cls-1" d="M16,44a6.62,6.62,0,1,0,6.62-6.62A6.61,6.61,0,0,0,16,44Z"/><path class="cls-3" d="M18.15,44a4.48,4.48,0,1,0,4.48-4.48A4.48,4.48,0,0,0,18.15,44Z"/><path class="cls-1" d="M20.2,44a2.43,2.43,0,1,0,2.43-2.43A2.42,2.42,0,0,0,20.2,44Z"/><path class="cls-4" d="M22.63,50.82A6.85,6.85,0,1,1,29.47,44,6.86,6.86,0,0,1,22.63,50.82Zm0-13.24A6.39,6.39,0,1,0,29,44,6.4,6.4,0,0,0,22.63,37.58Z"/><path class="cls-4" d="M22.63,48.67a4.71,4.71,0,1,1,4.7-4.7A4.7,4.7,0,0,1,22.63,48.67Zm0-8.94A4.24,4.24,0,1,0,26.86,44,4.25,4.25,0,0,0,22.63,39.73Z"/><path class="cls-4" d="M22.63,46.62A2.66,2.66,0,1,1,25.28,44,2.67,2.67,0,0,1,22.63,46.62Zm0-4.84A2.19,2.19,0,1,0,24.82,44,2.18,2.18,0,0,0,22.63,41.78Z"/><path class="cls-3" d="M22.17,44.09v1.19a.44.44,0,0,0,.88,0V44.09a1,1,0,0,0,.56-.89,1,1,0,0,0-1-1,1,1,0,0,0-1,1A1.05,1.05,0,0,0,22.17,44.09Z"/><path class="cls-1" d="M10.63,43.25a2.54,2.54,0,0,0,5,.46H18.3v1.57a.46.46,0,0,0,.47.43.45.45,0,0,0,.46-.43V43.71h.94v1.57a.47.47,0,0,0,.93,0V43.71h.63a.48.48,0,0,0,.45-.47.47.47,0,0,0-.45-.47H15.67a2.54,2.54,0,0,0-5,.48Zm.93,0a1.61,1.61,0,1,1,3.21,0,1.61,1.61,0,0,1-3.21,0Z"/><path class="cls-4" d="M13.17,46a2.79,2.79,0,1,1,2.69-3.49h5.87a.7.7,0,0,1,0,1.4h-.39v1.34a.7.7,0,0,1-1.4,0V43.94h-.47v1.34a.7.7,0,0,1-1.4,0V43.94H15.86A2.82,2.82,0,0,1,13.17,46Zm0-5.1a2.32,2.32,0,1,0,2.27,2.73.24.24,0,0,1,.23-.19H18.3a.23.23,0,0,1,.23.24v1.57a.22.22,0,0,0,.24.2.22.22,0,0,0,.23-.2V43.71a.23.23,0,0,1,.23-.24h.94a.23.23,0,0,1,.23.24v1.57a.23.23,0,0,0,.24.2.22.22,0,0,0,.23-.2V43.71a.24.24,0,0,1,.23-.24h.63a.23.23,0,0,0,0-.46H15.67a.24.24,0,0,1-.23-.2A2.3,2.3,0,0,0,13.17,40.93Zm0,4.17A1.84,1.84,0,1,1,15,43.26,1.84,1.84,0,0,1,13.17,45.1Zm0-3.22a1.38,1.38,0,1,0,1.37,1.38A1.38,1.38,0,0,0,13.17,41.88Z"/><path class="cls-1" d="M41.88,34.9a6.13,6.13,0,1,1-6.12-6.14A6.12,6.12,0,0,1,41.88,34.9Z"/><path class="cls-4" d="M35.76,41.25a6.36,6.36,0,1,1,6.36-6.35A6.36,6.36,0,0,1,35.76,41.25Zm0-12.25a5.9,5.9,0,1,0,5.89,5.9A5.9,5.9,0,0,0,35.76,29Z"/><path class="cls-1" d="M49.07,34.9a6.34,6.34,0,1,1-6.33-6.34A6.33,6.33,0,0,1,49.07,34.9Z"/><path class="cls-4" d="M42.74,41.46A6.57,6.57,0,1,1,49.3,34.9,6.58,6.58,0,0,1,42.74,41.46Zm0-12.67a6.1,6.1,0,1,0,6.1,6.11A6.11,6.11,0,0,0,42.74,28.79Z"/><path class="cls-1" d="M54,34.9a4.7,4.7,0,1,1-4.69-4.71A4.7,4.7,0,0,1,54,34.9Z"/><path class="cls-4" d="M49.29,39.82a4.93,4.93,0,1,1,4.92-4.92A4.93,4.93,0,0,1,49.29,39.82Zm0-9.38a4.46,4.46,0,1,0,4.46,4.46A4.47,4.47,0,0,0,49.29,30.44Z"/><path class="cls-1" d="M55.19,31.62A2.16,2.16,0,1,1,53,29.46,2.17,2.17,0,0,1,55.19,31.62Z"/><path class="cls-4" d="M53,34a.24.24,0,0,1,0-.47,1.93,1.93,0,1,0-1.92-1.93c0,.1,0,.2,0,.3a.23.23,0,1,1-.46.07,2.31,2.31,0,0,1,0-.37A2.4,2.4,0,1,1,53,34Z"/><path class="cls-1" d="M28.7,32.2a2.3,2.3,0,1,0,1.75-2.74A2.3,2.3,0,0,0,28.7,32.2Z"/><path class="cls-4" d="M31,34.25a2.54,2.54,0,1,1,2.26-3.7.24.24,0,0,1-.1.31.24.24,0,0,1-.32-.1,2.08,2.08,0,0,0-3.87,1.4,2.08,2.08,0,0,0,2.47,1.57.24.24,0,0,1,.28.18.22.22,0,0,1-.18.27A2,2,0,0,1,31,34.25Z"/><path class="cls-1" d="M48.73,35.54a3.43,3.43,0,1,1-3.42-3.43A3.42,3.42,0,0,1,48.73,35.54Z"/><path class="cls-4" d="M48.2,33.93a.21.21,0,0,1-.2-.11,3.18,3.18,0,0,0-5.38,0,.23.23,0,1,1-.39-.25,3.65,3.65,0,0,1,6.16,0,.23.23,0,0,1-.07.33A.27.27,0,0,1,48.2,33.93Z"/><path class="cls-1" d="M41.34,35.39a4.45,4.45,0,1,1-4.45-4.45A4.44,4.44,0,0,1,41.34,35.39Z"/><path class="cls-4" d="M40.63,33.23a.23.23,0,0,1-.19-.1,4.2,4.2,0,0,0-7.09,0,.26.26,0,0,1-.33.07.25.25,0,0,1-.07-.33,4.67,4.67,0,0,1,7.88,0,.24.24,0,0,1-.07.33A.28.28,0,0,1,40.63,33.23Z"/><path class="cls-5" d="M33.36,36.12l-3.59-6.77a1.25,1.25,0,1,1,2.17-1.23L35.55,35Z"/><path class="cls-4" d="M33.29,36.76l-3.82-7.24A1.59,1.59,0,1,1,32.24,28l3.87,7.31-.62.33-3.86-7.3a.9.9,0,0,0-1.2-.35.92.92,0,0,0-.35,1.25l3.83,7.24Z"/><polygon class="cls-6" points="33.29 32.44 33.8 33.4 31.23 34.78 31.38 34.08 30.72 33.82 33.29 32.44"/><path class="cls-4" d="M31.23,35a.25.25,0,0,1-.14-.06.2.2,0,0,1-.08-.23l.11-.5L30.63,34a.23.23,0,0,1-.14-.21.24.24,0,0,1,.12-.22l2.57-1.38a.23.23,0,0,1,.31.1l.52,1a.25.25,0,0,1,0,.17.24.24,0,0,1-.12.14L31.35,35A.19.19,0,0,1,31.23,35Zm0-1.23.2.07a.23.23,0,0,1,.14.27l0,.21,1.91-1-.29-.55Z"/><path class="cls-4" d="M33.55,36.23a.22.22,0,0,1-.21-.13.23.23,0,0,1,.1-.31l1.9-1a.23.23,0,0,1,.31.11.23.23,0,0,1-.1.31l-1.9,1A.19.19,0,0,1,33.55,36.23Z"/><path class="cls-1" d="M50.32,28.53H50a1.41,1.41,0,0,1-1.42-1.41h0A1.42,1.42,0,0,1,50,25.7h.3a1.42,1.42,0,0,1,1.41,1.42h0A1.41,1.41,0,0,1,50.32,28.53Z"/><path class="cls-1" d="M47,23.75a6.61,6.61,0,0,0,1.35-3.52,6.76,6.76,0,1,0-13.51,0A7,7,0,0,0,36,23.67h0c2.77,4.29,2.25,6.26,2.25,6.26H44.9A11,11,0,0,1,47,23.75Z"/><path class="cls-4" d="M44.9,30.17H38.22a.23.23,0,0,1-.19-.09.26.26,0,0,1,0-.19s.45-2-2.22-6.09a.32.32,0,0,1,0-.09,7,7,0,0,1-1.16-3.48,7,7,0,0,1,11.93-4.93,6.92,6.92,0,0,1,2.05,4.94,7,7,0,0,1-1.39,3.65,10.75,10.75,0,0,0-2,6,.3.3,0,0,1-.06.18A.27.27,0,0,1,44.9,30.17Zm-6.41-.47h6.18a11.6,11.6,0,0,1,2.11-6.07,6.35,6.35,0,0,0,1.31-3.4,6.54,6.54,0,0,0-6.52-6.53A6.55,6.55,0,0,0,35,20.22a6.73,6.73,0,0,0,1.16,3.33.32.32,0,0,1,0,.09C38.4,27,38.53,29,38.49,29.7Z"/><polygon class="cls-7" points="38.22 29.31 38.22 31.31 39.45 33.54 43.71 33.54 44.95 31.32 44.95 29.32 38.22 29.31"/><path class="cls-4" d="M43.71,33.77H39.45a.24.24,0,0,1-.2-.12L38,31.43a.21.21,0,0,1,0-.12v-2a.26.26,0,0,1,.07-.17.23.23,0,0,1,.16-.06H45a.23.23,0,0,1,.23.24v2a.2.2,0,0,1,0,.11l-1.23,2.22A.24.24,0,0,1,43.71,33.77Zm-4.12-.47h4l1.13-2.05V29.55H38.45v1.72Z"/><path class="cls-4" d="M45.3,30.59H37.84a.23.23,0,0,1-.23-.24.23.23,0,0,1,.23-.23H45.3a.24.24,0,0,1,0,.47Z"/><path class="cls-4" d="M45.3,31.53H37.84a.23.23,0,0,1,0-.46H45.3a.24.24,0,0,1,0,.47Z"/><path class="cls-4" d="M45,32.47H38.19a.22.22,0,0,1-.23-.23.23.23,0,0,1,.23-.24H45a.23.23,0,0,1,.23.23A.23.23,0,0,1,45,32.47Z"/><path class="cls-7" d="M40.13,20.65a.86.86,0,0,0,.75-.49.83.83,0,0,0,.68.38h4.76a.94.94,0,0,0,0-1.86h0a1.53,1.53,0,0,0-.3-1.42,1.62,1.62,0,0,0-.19-.18,1,1,0,0,0-.33-.17,1.14,1.14,0,0,0-.3-.06,1.85,1.85,0,0,0-.39-.67,1.55,1.55,0,0,0-1.06-.56,1.47,1.47,0,0,0-1,.28,1.5,1.5,0,0,0-.25-.19,1.16,1.16,0,0,0-.4-.2,1.33,1.33,0,0,0-.45-.07,1.6,1.6,0,0,0-1.2.59,1,1,0,0,0-.43-.14l-.25,0a1.68,1.68,0,0,0-1.56,1.23A1.31,1.31,0,0,0,37,18.41a0,0,0,0,0,0,0s0,.09,0,.14,0,.06,0,.1h-.13a.94.94,0,0,0,0,1.86h2.89A1,1,0,0,0,40.13,20.65Z"/><path class="cls-1" d="M41.88,16.4a.15.15,0,0,0-.14.16v0a1.19,1.19,0,0,1-1.07,1.25s0,0,0,0a1.55,1.55,0,0,0-.74-.88.16.16,0,0,0-.2.09s0,0,0,.06a.18.18,0,0,0,.09.16,1.15,1.15,0,0,1,.58.69,1.35,1.35,0,0,1,0,.95.17.17,0,0,0,.08.22.14.14,0,0,0,.19-.09,1.78,1.78,0,0,0,.1-.83A1.51,1.51,0,0,0,42,16.58v0A.15.15,0,0,0,41.88,16.4Z"/><path class="cls-1" d="M46.32,18.68h0a1.53,1.53,0,0,0-.3-1.42,1.62,1.62,0,0,0-.19-.18,1,1,0,0,0-.33-.17,1.14,1.14,0,0,0-.3-.06,1.85,1.85,0,0,0-.39-.67,1.55,1.55,0,0,0-1.06-.56,1.47,1.47,0,0,0-1,.28,1.5,1.5,0,0,0-.25-.19,1.16,1.16,0,0,0-.4-.2,1.33,1.33,0,0,0-.45-.07,1.6,1.6,0,0,0-1.2.59,1,1,0,0,0-.43-.14l-.25,0a1.68,1.68,0,0,0-1.56,1.23A1.31,1.31,0,0,0,37,18.41a0,0,0,0,0,0,0s0,.09,0,.14,0,.06,0,.1h-.13a.94.94,0,0,0,0,1.86h2.89a1,1,0,0,0,.41.11.86.86,0,0,0,.75-.49.83.83,0,0,0,.68.38h4.76a.94.94,0,0,0,0-1.86Zm0,1.53H41.56a.62.62,0,0,1-.56-.65.6.6,0,0,1,.56-.64H42a.94.94,0,0,0,.66.78.15.15,0,0,0,.17-.14.16.16,0,0,0-.11-.19.67.67,0,0,1-.43-.78v-.06a.87.87,0,0,1,1.74.1h0a.85.85,0,0,0-.78.91.16.16,0,0,0,.14.17.17.17,0,0,0,.15-.17A.53.53,0,0,1,44,19a.54.54,0,0,1,.51.57.16.16,0,0,0,.14.17.17.17,0,0,0,.15-.17.92.92,0,0,0-.45-.81,1.27,1.27,0,0,0-1.17-1.33A1.25,1.25,0,0,0,42,18.59h-.45a.92.92,0,0,0-.85,1v.09a.59.59,0,1,1-1.17,0,.15.15,0,0,0-.14-.16.16.16,0,0,0-.15.16,1.14,1.14,0,0,0,.15.56h-.33a.62.62,0,0,1-.57-.65.59.59,0,0,1,.08-.31.17.17,0,0,0,0-.05h0a.57.57,0,0,1,.47-.27h.62a.17.17,0,0,0,.14-.17.16.16,0,0,0-.14-.16h-.62a.69.69,0,0,0-.4.11,1.07,1.07,0,0,0-.51-.78A.14.14,0,0,0,38,18a.14.14,0,0,0,0,.06.2.2,0,0,0,.09.16.56.56,0,0,1,.3.35.72.72,0,0,1,0,.46,1.11,1.11,0,0,0-.13.52,1.06,1.06,0,0,0,.22.65h-1.6a.57.57,0,0,1-.53-.6.58.58,0,0,1,.53-.61H37a.87.87,0,0,0,.64.53.13.13,0,0,0,.16-.13.17.17,0,0,0-.12-.2.54.54,0,0,1-.42-.35.09.09,0,0,0,0-.05,1.54,1.54,0,0,1,0-.3A1,1,0,0,1,38,17.45a.08.08,0,0,0,.07,0l.09,0h.13a.79.79,0,0,1,.74.67.16.16,0,0,0,.18.12.2.2,0,0,0,.11-.21,1.15,1.15,0,0,0-.88-.9,1.38,1.38,0,0,1,1.25-.9h.22a1.45,1.45,0,0,1,.35.12.92.92,0,0,1,.39.77.16.16,0,0,0,.15.16A.15.15,0,0,0,41,17.1a1.3,1.3,0,0,0-.33-.87,1.32,1.32,0,0,1,1-.45.86.86,0,0,1,.28,0H42a.89.89,0,0,1,.31.15.91.91,0,0,1,.33.83.17.17,0,0,0,.13.19.15.15,0,0,0,.16-.14,1.33,1.33,0,0,0-.09-.66,1.25,1.25,0,0,1,1.74.2,1.3,1.3,0,0,1,.3.51,1.08,1.08,0,0,0-.49.36.19.19,0,0,0,0,.11.14.14,0,0,0,.05.13.13.13,0,0,0,.21,0,.71.71,0,0,1,.82-.26,1.06,1.06,0,0,1,.21.11l.07.06,0,0,.05,0a1.19,1.19,0,0,1,.2,1.19h-.45a.15.15,0,0,0-.15.16.14.14,0,0,0,.15.16h.8a.57.57,0,0,1,.52.61A.56.56,0,0,1,46.32,20.21Z"/><path class="cls-4" d="M40.13,20.88a.92.92,0,0,1-.46-.11H36.83a1.12,1.12,0,0,1-1-1.16,1.13,1.13,0,0,1,.95-1.16V18.4a0,0,0,0,1,0,0A1.56,1.56,0,0,1,38,16.88a1.87,1.87,0,0,1,2-1.22.82.82,0,0,1,.33.09,1.8,1.8,0,0,1,1.78-.46,1.08,1.08,0,0,1,.47.23.38.38,0,0,1,.13.1,1.63,1.63,0,0,1,1-.23A1.8,1.8,0,0,1,45,16a2.27,2.27,0,0,1,.37.62l.21,0a1.13,1.13,0,0,1,.4.22.9.9,0,0,1,.23.21,1.74,1.74,0,0,1,.4,1.37,1.15,1.15,0,0,1,.81,1.13,1.11,1.11,0,0,1-1,1.16H41.56a1.07,1.07,0,0,1-.66-.24A1,1,0,0,1,40.13,20.88Zm-.4-.57a.27.27,0,0,1,.12,0,.6.6,0,0,0,.82-.29.27.27,0,0,1,.19-.14.26.26,0,0,1,.21.11.6.6,0,0,0,.49.29h4.76a.66.66,0,0,0,.58-.7.65.65,0,0,0-.58-.7h0a.24.24,0,0,1-.18-.09.26.26,0,0,1-.05-.21,1.31,1.31,0,0,0-.24-1.2l-.16-.15a.71.71,0,0,0-.26-.13.73.73,0,0,0-.25,0,.25.25,0,0,1-.21-.17,1.7,1.7,0,0,0-.33-.59,1.39,1.39,0,0,0-.91-.48,1.3,1.3,0,0,0-.86.25.24.24,0,0,1-.3,0,1.18,1.18,0,0,0-.21-.18,1,1,0,0,0-.32-.16,1.11,1.11,0,0,0-.4-.06,1.31,1.31,0,0,0-1,.51.22.22,0,0,1-.3,0,.86.86,0,0,0-.33-.11h-.23a1.46,1.46,0,0,0-1.34,1.06.24.24,0,0,1-.22.16,1.11,1.11,0,0,0-1,1.09.13.13,0,0,1,0,.06v.17a.22.22,0,0,1-.06.19.26.26,0,0,1-.17.07h-.13a.71.71,0,0,0,0,1.4h2.9Z"/><path class="cls-4" d="M47.46,37.67H44.19A2.65,2.65,0,0,1,41.54,35V26a1.13,1.13,0,0,0-1.13-1.12,1.59,1.59,0,0,1-1.58-1.59V20.54a.23.23,0,1,1,.46,0v2.79a1.12,1.12,0,0,0,1.12,1.12A1.59,1.59,0,0,1,42,26v9a2.2,2.2,0,0,0,2.19,2.19h3.27a2.48,2.48,0,0,0,2.47-2.48V27.1a.24.24,0,0,1,.23-.23.23.23,0,0,1,.24.23v7.63A2.94,2.94,0,0,1,47.46,37.67Z"/><path class="cls-4" d="M50.32,28.77H50a1.65,1.65,0,0,1,0-3.3h.3a1.65,1.65,0,0,1,0,3.3ZM50,25.94a1.18,1.18,0,1,0,0,2.36h.3a1.18,1.18,0,0,0,0-2.36Z"/><rect class="cls-4" x="10.2" y="52.26" width="6.31" height="0.93"/><rect class="cls-4" x="5.06" y="52.26" width="3.51" height="0.93"/><rect class="cls-4" x="74.51" y="52.26" width="3.51" height="0.93"/><rect class="cls-4" x="17.69" y="52.26" width="53.78" height="0.93"/><path class="cls-4" d="M23.75,33h-.24a.23.23,0,0,1-.23-.23.24.24,0,0,1,.23-.24h.24a.23.23,0,0,1,.23.24A.22.22,0,0,1,23.75,33Z"/><path class="cls-4" d="M22.56,33h-.48a.22.22,0,0,1-.23-.23.23.23,0,0,1,.23-.24h.48a.24.24,0,0,1,.24.24A.23.23,0,0,1,22.56,33Zm-1.43,0h-.48a.22.22,0,0,1-.23-.23.23.23,0,0,1,.23-.24h.48a.24.24,0,0,1,.24.24A.23.23,0,0,1,21.13,33ZM19.7,33h-.48a.22.22,0,0,1-.23-.23.23.23,0,0,1,.23-.24h.48a.24.24,0,0,1,.24.24A.23.23,0,0,1,19.7,33Z"/><path class="cls-4" d="M18.27,33H18a.23.23,0,0,1-.23-.23.24.24,0,0,1,.23-.24h.24a.23.23,0,0,1,.23.24A.22.22,0,0,1,18.27,33Z"/><path class="cls-4" d="M58.14,37.57a1,1,0,1,1,1-1A1,1,0,0,1,58.14,37.57Zm0-1.49a.51.51,0,0,0-.51.52.51.51,0,0,0,1,0A.51.51,0,0,0,58.14,36.08Z"/><path class="cls-4" d="M28.64,19.56a1,1,0,0,1-1-1,1,1,0,1,1,2,0A1,1,0,0,1,28.64,19.56Zm0-1.49a.52.52,0,1,0,.51.52A.51.51,0,0,0,28.64,18.07Z"/><rect class="cls-2" x="29.47" y="35.09" width="18.34" height="17.39"/><rect class="cls-3" x="47.81" y="35.09" width="6.62" height="17.39"/><path class="cls-4" d="M47.81,52.72H29.47a.23.23,0,0,1-.23-.23V35.09a.23.23,0,0,1,.23-.23H47.81a.24.24,0,0,1,.24.23v17.4A.23.23,0,0,1,47.81,52.72ZM29.7,52.26H47.58V35.34H29.7Z"/><path class="cls-4" d="M54.43,52.72H47.81a.23.23,0,0,1-.23-.23V35.09a.24.24,0,0,1,.23-.23h6.62a.24.24,0,0,1,.24.23v17.4A.23.23,0,0,1,54.43,52.72Zm-6.38-.46H54.2V35.34H48.05Z"/><polygon class="cls-1" points="44.7 42.22 25.8 42.22 29.45 35.09 47.77 35.09 44.7 42.22"/><polygon class="cls-1" points="57.27 41.56 50.6 41.56 47.84 35.09 54.5 35.09 57.27 41.56"/><path class="cls-4" d="M44.7,42.45H25.81a.2.2,0,0,1-.2-.11.21.21,0,0,1,0-.23L29.25,35a.22.22,0,0,1,.21-.13H47.77A.27.27,0,0,1,48,35a.25.25,0,0,1,0,.22l-3.08,7.13A.25.25,0,0,1,44.7,42.45ZM26.19,42H44.54l2.87-6.65H29.6Z"/><path class="cls-4" d="M57.27,41.79H50.6a.23.23,0,0,1-.22-.14l-2.76-6.46a.25.25,0,0,1,0-.22.27.27,0,0,1,.2-.11H54.5a.24.24,0,0,1,.22.15l2.74,6.42a.19.19,0,0,1,0,.13A.24.24,0,0,1,57.27,41.79Zm-6.51-.47h6.15l-2.56-6H48.19Z"/><path class="cls-7" d="M58.88,20.88l.33-.33.54.55c.11.11.28.19.38.11l.48-.5-.37-.37c-.11-.1-.07-.18,0-.28l.52-.53c.1-.09.19-.13.3,0l.37.37.42-.41a.37.37,0,0,0,0-.44l-.55-.55.27-.27a.25.25,0,0,0,0-.36L61,17.25a.27.27,0,0,0-.37,0l-.26.26L59.85,17a.29.29,0,0,0-.4,0l-.41.42.25.26c.11.11.18.31.09.41l-.52.52c-.1.1-.3,0-.4-.08l-.27-.27-.48.49c-.09.09-.05.21.06.32l.48.49-.33.33a.24.24,0,0,0,0,.35l.6.6A.25.25,0,0,0,58.88,20.88Z"/><path class="cls-1" d="M58.43,16.74l-.34-.33.56-.56c.11-.11.24-.31.14-.41l-.5-.5-.4.4c-.11.11-.15.08-.25,0l-.52-.52c-.1-.1-.18-.18-.07-.29l.41-.4-.41-.4c-.09-.1-.33,0-.44.09l-.56.57-.29-.3a.28.28,0,0,0-.39-.05l-.59.59a.33.33,0,0,0,0,.42l.3.29-.47.46a.23.23,0,0,0,0,.35l.4.41.24-.24c.11-.11.35-.2.45-.1l.52.52c.09.1,0,.3-.14.41l-.24.23.51.52c.1.08.19.06.3-.05l.46-.47.34.34a.26.26,0,0,0,.37,0l.6-.59A.23.23,0,0,0,58.43,16.74Z"/><path class="cls-4" d="M60,21.47a.68.68,0,0,1-.45-.21l-.37-.38L59,21a.45.45,0,0,1-.34.15h0a.49.49,0,0,1-.35-.15l-.59-.6a.49.49,0,0,1-.15-.34.48.48,0,0,1,.14-.34l.17-.16-.31-.32a.52.52,0,0,1-.18-.37.4.4,0,0,1,.12-.29l.48-.48a.24.24,0,0,1,.16-.07h0a.24.24,0,0,1,.17.07l.26.26.1.06.47-.47a.27.27,0,0,0-.06-.1l-.26-.27a.24.24,0,0,1-.07-.16.26.26,0,0,1,.07-.17l.42-.41a.53.53,0,0,1,.72,0l.32.31.09-.09a.49.49,0,0,1,.7,0l.6.59a.49.49,0,0,1,0,.7l-.09.09.38.38a.63.63,0,0,1,.16.43.48.48,0,0,1-.13.35l-.41.42a.26.26,0,0,1-.33,0L61,19.71l-.52.5.34.34a.22.22,0,0,1,0,.33l-.48.49A.34.34,0,0,1,60,21.47Zm-.82-1.15a.2.2,0,0,1,.16.07l.55.54A.23.23,0,0,0,60,21l.28-.29-.21-.2a.41.41,0,0,1-.13-.29.51.51,0,0,1,.15-.33l.53-.52A.48.48,0,0,1,61,19.2a.43.43,0,0,1,.29.13l.21.21.25-.24a.27.27,0,0,0,0-.12l-.55-.55a.24.24,0,0,1-.07-.16.28.28,0,0,1,.07-.17l.26-.26h0s0,0,0,0l-.59-.6a0,0,0,0,0,0,0l-.27.27a.21.21,0,0,1-.32,0l-.49-.48h-.06l-.26.25.1.1a.54.54,0,0,1,.09.73l-.53.53a.36.36,0,0,1-.28.11.63.63,0,0,1-.45-.2l-.1-.1-.28.29,0,0,.48.48a.25.25,0,0,1,.06.17.23.23,0,0,1-.06.16l-.33.33v0l.6.6h0l.33-.32A.23.23,0,0,1,59.21,20.32Z"/><path class="cls-4" d="M56.49,18.16A.43.43,0,0,1,56.2,18l-.51-.52a.21.21,0,0,1-.06-.16.25.25,0,0,1,.06-.16l.25-.25.09-.1-.45-.45a.2.2,0,0,0-.14.06l-.25.24a.2.2,0,0,1-.16.07h0a.2.2,0,0,1-.16-.07l-.41-.4a.48.48,0,0,1,0-.68l.3-.3-.12-.13a.55.55,0,0,1-.16-.39.48.48,0,0,1,.13-.35l.6-.6a.52.52,0,0,1,.71.06l.13.12.39-.4a.79.79,0,0,1,.49-.2.39.39,0,0,1,.29.11l.4.4a.22.22,0,0,1,0,.33l-.34.35h0l.5.48.34-.34a.24.24,0,0,1,.33,0l.51.51c.17.17.12.47-.14.73l-.39.4.16.16a.47.47,0,0,1,0,.68l-.59.59a.52.52,0,0,1-.37.16h0a.51.51,0,0,1-.34-.13l-.17-.17-.29.3A.51.51,0,0,1,56.49,18.16Zm-.3-.8.31.32h0L57,17.2a.24.24,0,0,1,.33,0l.34.34s0,0,0,0l.59-.59a0,0,0,0,0,0,0l-.33-.34a.24.24,0,0,1,0-.33l.56-.56a.47.47,0,0,0,.09-.12l-.29-.29-.24.24a.35.35,0,0,1-.56,0L57,15a.72.72,0,0,1-.17-.22.35.35,0,0,1,.1-.39l.23-.24-.2-.21a.31.31,0,0,0-.14.07l-.57.56a.22.22,0,0,1-.32,0l-.29-.29-.08-.05-.58.6a.19.19,0,0,0,0,.07l.3.3a.24.24,0,0,1,0,.33l-.47.46.24.25.07-.07a.78.78,0,0,1,.5-.21.49.49,0,0,1,.29.11l.52.53c.17.18.12.47-.15.73Z"/><path class="cls-4" d="M59.85,19.29h-.92a.24.24,0,0,1,0-.47h.36L57.47,17a.24.24,0,0,1,0-.33.23.23,0,0,1,.33,0L60,18.88a.24.24,0,0,1-.17.41Z"/><path class="cls-4" d="M59.86,19.29a.24.24,0,0,1-.23-.24v-.93a.23.23,0,0,1,.23-.23.23.23,0,0,1,.24.23v.93A.24.24,0,0,1,59.86,19.29Z"/><polygon class="cls-4" points="49.63 27.21 47.47 25.58 47.75 25.21 49.91 26.84 49.63 27.21"/><polygon class="cls-4" points="47.75 14.59 47.47 14.21 49.63 12.58 49.91 12.96 47.75 14.59"/><polygon class="cls-4" points="45.23 12.87 44.81 12.66 46.02 10.27 46.44 10.48 45.23 12.87"/><polygon class="cls-4" points="38.28 12.87 37.07 10.48 37.49 10.27 38.7 12.66 38.28 12.87"/><polygon class="cls-4" points="51.81 23.77 49.31 22.76 49.48 22.34 51.98 23.33 51.81 23.77"/><polygon class="cls-4" points="49.25 17.46 49.08 17.02 51.57 16.02 51.75 16.45 49.25 17.46"/><rect class="cls-4" x="49.4" y="19.62" width="2.57" height="0.47"/><polygon class="cls-4" points="33.58 27.21 33.3 26.84 35.47 25.21 35.75 25.58 33.58 27.21"/><polygon class="cls-4" points="35.47 14.59 33.3 12.96 33.58 12.58 35.75 14.21 35.47 14.59"/><polygon class="cls-4" points="31.41 23.77 31.23 23.33 33.72 22.34 33.9 22.76 31.41 23.77"/><polygon class="cls-4" points="33.96 17.46 31.47 16.45 31.64 16.02 34.13 17.02 33.96 17.46"/><rect class="cls-4" x="31.16" y="19.62" width="2.57" height="0.47"/><rect class="cls-4" x="41.45" y="9.57" width="0.47" height="2.58"/><path class="cls-5" d="M54.77,31.27,57,23.94a1.24,1.24,0,1,0-2.36-.79l-2.25,7.4Z"/><path class="cls-4" d="M55,31.87l-.67-.2,2.37-7.83a.9.9,0,1,0-1.7-.57l-2.39,7.89L51.91,31l2.39-7.9a1.59,1.59,0,1,1,3,1Z"/><polygon class="cls-6" points="54.14 27.64 53.81 28.68 56.6 29.54 56.32 28.88 56.92 28.51 54.14 27.64"/><path class="cls-4" d="M56.6,29.78h-.07l-2.78-.87a.22.22,0,0,1-.15-.29l.31-1a.26.26,0,0,1,.12-.15.28.28,0,0,1,.18,0l2.78.87a.22.22,0,0,1,.16.19.23.23,0,0,1-.1.23l-.44.28.21.47a.26.26,0,0,1,0,.25A.23.23,0,0,1,56.6,29.78Zm-2.49-1.25,2.08.63L56.1,29a.25.25,0,0,1,.09-.3l.18-.11-2.08-.63Z"/><path class="cls-4" d="M54.56,31.41H54.5l-2-.58a.24.24,0,0,1-.16-.29.24.24,0,0,1,.29-.16l2.05.59a.23.23,0,0,1,.15.29A.22.22,0,0,1,54.56,31.41Z"/><path class="cls-5" d="M22.06,20.53c2.8,0,5.08,2,5.08,4.38a4.19,4.19,0,0,1-2.09,3.53l.72,1.81L24,29a6,6,0,0,1-2,.33c-2.8,0-5.08-2-5.08-4.37S19.26,20.53,22.06,20.53Z"/><path class="cls-4" d="M25.77,30.49a.24.24,0,0,1-.14,0L24,29.21a5.9,5.9,0,0,1-1.92.32c-2.93,0-5.31-2.07-5.31-4.62s2.38-4.62,5.31-4.62,5.31,2.07,5.31,4.62a4.47,4.47,0,0,1-2,3.63L26,30.17a.24.24,0,0,1-.22.32ZM24,28.72a.33.33,0,0,1,.14,0l1.09.82-.41-1a.26.26,0,0,1,.09-.29,4,4,0,0,0,2-3.33c0-2.29-2.17-4.15-4.84-4.15s-4.85,1.86-4.85,4.15,2.18,4.14,4.85,4.14a5.42,5.42,0,0,0,1.88-.32Z"/><path class="cls-7" d="M21.51,25.77v-.18a1.53,1.53,0,0,1,.4-1.07c.22-.27.4-.48.4-.71s-.16-.4-.5-.41a1.18,1.18,0,0,0-.67.21l-.24-.75A2.41,2.41,0,0,1,22,22.58c.9,0,1.31.5,1.31,1.06a1.66,1.66,0,0,1-.58,1.15,1.24,1.24,0,0,0-.35.86v.12Zm-.18.94a.61.61,0,1,1,.61.62A.59.59,0,0,1,21.33,26.71Z"/><path class="cls-4" d="M60.47,31l-.08-.09a2.37,2.37,0,0,1-.15-.21c-.11-.14-.21-.29-.21-.29h0a.25.25,0,0,1,.08-.33.23.23,0,0,1,.31.07l.19.28a1.63,1.63,0,0,0,.14.18l.07.08h0a.23.23,0,1,1-.36.3Z"/><path class="cls-4" d="M59.51,29.33a1,1,0,0,0,0-.11L59.41,29c0-.18-.06-.36-.06-.36h0a.22.22,0,1,1,.44-.07s0,.16.06.33,0,.16.06.22a.65.65,0,0,1,0,.1h0a.23.23,0,0,1-.43.14Z"/><path class="cls-4" d="M59.41,27.36a.6.6,0,0,0,0-.11l.08-.24a3,3,0,0,1,.16-.34h0a.2.2,0,0,1,.28-.09.21.21,0,0,1,.1.28s-.08.16-.14.31-.05.15-.06.21a.65.65,0,0,0,0,.1h0a.23.23,0,0,1-.26.15.21.21,0,0,1-.16-.26Z"/><path class="cls-4" d="M60.41,25.67l.08-.08s.11-.11.18-.16L61,25.2h0a.19.19,0,0,1,.28,0,.2.2,0,0,1,0,.28l-.26.22a1.36,1.36,0,0,0-.17.16L60.7,26h0a.19.19,0,0,1-.29,0,.18.18,0,0,1,0-.28Z"/><path class="cls-4" d="M62,24.56l.1,0a1.33,1.33,0,0,1,.24-.1c.18-.06.36-.1.36-.1h0a.19.19,0,0,1,.24.14.21.21,0,0,1-.15.24,2.76,2.76,0,0,0-.31.1l-.22.08-.09,0h0a.2.2,0,0,1-.27-.1.2.2,0,0,1,.1-.26Z"/><path class="cls-4" d="M63.92,24.24l.11,0,.26.05a2.44,2.44,0,0,1,.35.11h0a.19.19,0,0,1,.11.25.18.18,0,0,1-.24.11l-.32-.1-.22,0h-.11a.18.18,0,0,1-.16-.22.19.19,0,0,1,.22-.17Z"/><path class="cls-4" d="M65.7,25l.09.07.19.16.26.26h0a.19.19,0,0,1,0,.26.18.18,0,0,1-.27,0l-.24-.23-.18-.16-.09-.06h0a.19.19,0,0,1,0-.26.19.19,0,0,1,.27,0Z"/><path class="cls-4" d="M67,26.46l.2.29.18.31a.18.18,0,1,1-.31.19s-.09-.16-.19-.3l-.19-.28a.2.2,0,0,1,0-.26.18.18,0,0,1,.26.05Z"/><path class="cls-4" d="M67.92,28.12l.27.65a.18.18,0,0,1-.33.14l-.27-.64a.18.18,0,1,1,.33-.15Z"/><path class="cls-4" d="M68.57,29.9l.17.68a.17.17,0,0,1-.33.09L68.23,30a.17.17,0,0,1,.12-.22.17.17,0,0,1,.21.12Z"/><path class="cls-4" d="M69,31.75l.1.69a.17.17,0,1,1-.33.05l-.1-.69a.16.16,0,0,1,.14-.19.16.16,0,0,1,.19.13Z"/><path class="cls-4" d="M69.18,33.63l0,.7a.15.15,0,0,1-.15.16.16.16,0,0,1-.17-.15l0-.7a.18.18,0,0,1,.16-.18.17.17,0,0,1,.16.17Z"/><path class="cls-4" d="M69.17,35.51l-.06.7a.16.16,0,0,1-.17.14.16.16,0,0,1-.14-.17l.06-.69a.15.15,0,0,1,.17-.14.14.14,0,0,1,.14.16Z"/><path class="cls-4" d="M68.93,37.38l-.16.68a.15.15,0,0,1-.18.12.14.14,0,0,1-.11-.18l.15-.68a.15.15,0,0,1,.18-.11.15.15,0,0,1,.12.17Z"/><path class="cls-4" d="M68.41,39.2s-.06.17-.13.33l-.14.33a.15.15,0,0,1-.19.07.14.14,0,0,1-.07-.19s.07-.15.13-.32.13-.32.13-.32a.14.14,0,0,1,.19-.08.14.14,0,0,1,.08.18Z"/><path class="cls-4" d="M67.57,40.9a2.7,2.7,0,0,1-.2.3,3.48,3.48,0,0,1-.21.28.13.13,0,0,1-.19,0,.15.15,0,0,1,0-.2s.11-.13.21-.27l.19-.3a.15.15,0,0,1,.19,0,.14.14,0,0,1,0,.19Z"/><path class="cls-4" d="M66.37,42.37l-.27.24-.28.22a.13.13,0,0,1-.18,0,.15.15,0,0,1,0-.19,3.17,3.17,0,0,0,.27-.22l.25-.23a.14.14,0,0,1,.19,0,.13.13,0,0,1,0,.18Z"/><path class="cls-4" d="M64.82,43.48l-.32.15a3.31,3.31,0,0,1-.33.14A.12.12,0,0,1,64,43.7a.13.13,0,0,1,.06-.17l.32-.13.31-.15a.13.13,0,0,1,.17,0,.14.14,0,0,1-.05.18Z"/><path class="cls-4" d="M63,44.13l-.68.14a.13.13,0,0,1-.15-.09.12.12,0,0,1,.1-.14l.68-.16a.13.13,0,0,1,.15.09.15.15,0,0,1-.1.16Z"/><path class="cls-4" d="M61.17,44.44l-.35,0h-.36a.12.12,0,0,1-.11-.13.11.11,0,0,1,.12-.1h.34l.35,0a.12.12,0,0,1,.12.11.11.11,0,0,1-.1.13h0Z"/><path class="cls-4" d="M59.27,44.25a.34.34,0,0,0-.1-.06L59,44a2.3,2.3,0,0,1-.17-.2l-.06-.12h0a.11.11,0,0,1,.06-.14.1.1,0,0,1,.14.06.85.85,0,0,0,.18.24,1.4,1.4,0,0,0,.18.12.26.26,0,0,0,.09,0,.12.12,0,0,1,.06.15.12.12,0,0,1-.15.06Z"/><path class="cls-4" d="M58.88,42.5l0-.1.14-.21a3.47,3.47,0,0,1,.22-.29h0a.11.11,0,0,1,.14,0,.1.1,0,0,1,0,.14,2.42,2.42,0,0,0-.2.28l-.13.19a.39.39,0,0,1,0,.1h0a.11.11,0,0,1-.14,0,.12.12,0,0,1,0-.15Z"/><path class="cls-4" d="M60.14,41.08l.29-.21.3-.2a.1.1,0,0,1,.13,0s0,.09,0,.13l-.29.18-.28.22a.11.11,0,0,1-.13,0,.09.09,0,0,1,0-.13Z"/><path class="cls-4" d="M61.78,40.14l.34-.12.34-.1a.09.09,0,0,1,.11.06.09.09,0,0,1-.06.11l-.33.1-.33.12a.09.09,0,0,1-.12-.05.09.09,0,0,1,.05-.11Z"/><path class="cls-4" d="M63.64,39.75H64l.35.06c.05,0,.07,0,.07.09a.08.08,0,0,1-.1.06l-.34,0h-.34a.09.09,0,0,1,0-.18h0Z"/><path class="cls-4" d="M65.47,40.22s.16.09.3.19.28.23.28.23a.08.08,0,0,1-.1.12,3.2,3.2,0,0,0-.27-.22,3,3,0,0,0-.29-.18.08.08,0,0,1,0-.11.09.09,0,0,1,.11,0Z"/><path class="cls-4" d="M66.81,41.55a3.31,3.31,0,0,1,.18.31,3.12,3.12,0,0,1,.16.31.08.08,0,0,1,0,.1.08.08,0,0,1-.1,0l-.15-.31-.18-.29a.07.07,0,0,1,0-.1.08.08,0,0,1,.1,0Z"/><path class="cls-4" d="M67.49,43.31s0,.18,0,.35,0,.37,0,.37a.05.05,0,0,1-.07,0,.06.06,0,0,1-.06-.06s0-.18,0-.34,0-.36,0-.36,0-.06.06-.07a.08.08,0,0,1,.08.06Z"/><path class="cls-4" d="M67.23,45.18l-.13.33c-.08.16-.17.31-.17.31a.06.06,0,0,1-.08,0s0-.06,0-.09l.16-.31c.07-.15.13-.32.13-.32a.06.06,0,0,1,.08,0,.05.05,0,0,1,0,.08Z"/><path class="cls-4" d="M66.26,46.79l-.23.26-.24.26a0,0,0,0,1-.08,0s0-.06,0-.07L66,47a3.36,3.36,0,0,0,.23-.26s0,0,.07,0,0,.06,0,.08Z"/><path class="cls-4" d="M64.91,48.09l-.57.42a.05.05,0,0,1-.06-.09l.57-.42a.05.05,0,0,1,.07,0,.06.06,0,0,1,0,.07Z"/><path class="cls-4" d="M63.34,49.12l-.62.33a0,0,0,0,1-.06,0,0,0,0,0,1,0,0l.62-.33a0,0,0,0,1,.06,0s0,0,0,0Z"/><path class="cls-4" d="M61.64,49.92l-.65.24s0,0-.05,0,0,0,0,0l.66-.25a.05.05,0,0,1,.05,0s0,0,0,0Z"/><path class="cls-4" d="M59.86,50.5l-.68.16a0,0,0,0,1,0,0s0,0,0,0l.69-.16s0,0,0,0,0,0,0,0Z"/><path class="cls-4" d="M58,50.83l-.7.06s0,0,0,0,0,0,0,0l.69,0s0,0,0,0,0,0,0,0Z"/><path class="cls-4" d="M56.15,50.89l-.35,0-.35,0s0,0,0,0l0,0,.35,0,.35,0s0,0,0,0a0,0,0,0,1,0,0Z"/><path class="cls-4" d="M54.3,50.59l-.34-.1-.33-.11v0s0,0,0,0l.33.11.34.1s0,0,0,0,0,0,0,0Z"/><path class="cls-4" d="M52.57,49.88l-.3-.19L52,49.5v0h0a3.22,3.22,0,0,0,.29.2c.14.1.3.19.3.19v0Z"/><path class="cls-4" d="M51.12,48.71s-.12-.13-.23-.28-.21-.27-.21-.27h0l.21.28.23.27h0Z"/><path class="cls-4" d="M50.09,47.15,50,46.83c-.07-.16-.13-.33-.13-.33h0s.06.17.13.33.15.32.15.32Z"/><path class="cls-3" d="M67.94,36l-4-6.17a.39.39,0,0,0-.29-.18.35.35,0,0,0-.32.13L62,31.41l-1.25-.18-.08,1.53.26,0-1.05.68,1.37,1.45Z"/><path class="cls-4" d="M67.94,36.22h0l-6.67-1.06a.18.18,0,0,1-.13-.08l-1.37-1.43a.28.28,0,0,1-.07-.19.27.27,0,0,1,.11-.17l.7-.45a.29.29,0,0,1,0-.09l.08-1.55a.26.26,0,0,1,.09-.16A.3.3,0,0,1,60.8,31l1.12.18,1.18-1.54a.56.56,0,0,1,.51-.21.57.57,0,0,1,.47.29l4,6.16a.23.23,0,0,1,0,.25A.2.2,0,0,1,67.94,36.22Zm-6.56-1.51,6.07,1-3.76-5.74a.15.15,0,0,0-.11-.07.16.16,0,0,0-.11,0l-1.26,1.64a.24.24,0,0,1-.22.09l-1-.15-.06,1.07H61a.23.23,0,0,1,.19.19.23.23,0,0,1-.1.24l-.82.53Z"/><path class="cls-1" d="M68.08,36a.06.06,0,0,0,0-.09l-4.33-7.31a.37.37,0,0,0-.3-.18.37.37,0,0,0-.31.14l-3.43,4.32a.35.35,0,0,0-.07.34.39.39,0,0,0,.25.25L68,36.06A.08.08,0,0,0,68.08,36Z"/><path class="cls-4" d="M68,36.3h0l-.1,0-8.09-2.56a.56.56,0,0,1-.4-.4.63.63,0,0,1,.1-.56L63,28.44a.65.65,0,0,1,.52-.23.63.63,0,0,1,.48.3l4.33,7.31a.3.3,0,0,1,0,.35A.31.31,0,0,1,68,36.3Zm-4.57-7.62a.12.12,0,0,0-.12.06L59.9,33.06a.14.14,0,0,0,0,.13.14.14,0,0,0,.09.08l7.73,2.45-4.13-7a.16.16,0,0,0-.11-.07Z"/><path class="cls-1" d="M66.29,34.67l-5.56-3-.09-.76,1.2-.64,4.51,4.37s0,0,0,.06S66.31,34.68,66.29,34.67Z"/><path class="cls-4" d="M66.31,34.91a.27.27,0,0,1-.14,0l-5.55-3a.25.25,0,0,1-.12-.19l-.09-.75a.24.24,0,0,1,.12-.23l1.2-.65a.26.26,0,0,1,.28,0l4.49,4.37a.26.26,0,0,1,0,.37A.26.26,0,0,1,66.31,34.91ZM61,31.49l4.23,2.3L61.8,30.51l-.91.5Z"/><path class="cls-4" d="M26.8,34.3a.23.23,0,0,1-.16-.06l-.93-.93a.22.22,0,0,1,0-.33A.24.24,0,0,1,26,33l.93.93a.24.24,0,0,1,0,.33A.27.27,0,0,1,26.8,34.3Z"/><path class="cls-4" d="M25.87,34.3a.23.23,0,0,1-.16-.06.22.22,0,0,1,0-.33l.93-.93a.23.23,0,1,1,.33.33l-.93.93A.27.27,0,0,1,25.87,34.3Z"/><path class="cls-4" d="M58.6,48.77a.23.23,0,0,1-.16-.06l-.93-.94a.22.22,0,0,1,0-.32.22.22,0,0,1,.33,0l.93.92a.25.25,0,0,1,0,.34A.27.27,0,0,1,58.6,48.77Z"/><path class="cls-4" d="M57.67,48.77a.23.23,0,0,1-.16-.06.25.25,0,0,1,0-.34l.93-.92a.22.22,0,0,1,.33,0,.22.22,0,0,1,0,.32l-.93.94A.27.27,0,0,1,57.67,48.77Z"/><path class="cls-4" d="M55.84,20.55a.23.23,0,0,1-.17-.07l-.93-.93a.24.24,0,0,1,0-.33.26.26,0,0,1,.33,0l.93.94a.22.22,0,0,1,0,.32A.2.2,0,0,1,55.84,20.55Z"/><path class="cls-4" d="M54.9,20.55a.2.2,0,0,1-.16-.07.22.22,0,0,1,0-.32l.93-.94a.26.26,0,0,1,.33,0,.24.24,0,0,1,0,.33l-.93.93A.23.23,0,0,1,54.9,20.55Z"/></g></g></svg>