<?xml version="1.0"?>
<svg xmlns="http://www.w3.org/2000/svg" xmlns:xlink="http://www.w3.org/1999/xlink" version="1.1" id="Capa_1" x="0px" y="0px" viewBox="0 0 512 512" style="enable-background:new 0 0 512 512;" xml:space="preserve" width="512px" height="512px"><g><g>
	<g>
		<path d="M501.98,246h-43.998v-19.292c0-4.592-3.127-8.593-7.583-9.704l-29.612-7.377l-15.482-37.359l15.714-26.142    c2.366-3.935,1.747-8.976-1.5-12.222l-41.434-41.434c-3.248-3.247-8.289-3.865-12.223-1.5l-26.142,15.714l-37.36-15.482    l-7.377-29.612c-1.11-4.456-5.112-7.583-9.704-7.583H265.99V10.009c0-5.523-4.477-10-10-10s-10,4.477-10,10v43.998h-19.292    c-4.592,0-8.593,3.127-9.704,7.583l-7.377,29.612l-37.359,15.482l-26.142-15.714c-3.937-2.366-8.976-1.748-12.222,1.5    l-41.434,41.434c-3.247,3.247-3.865,8.288-1.5,12.222l15.714,26.142l-15.482,37.359l-29.612,7.377    c-4.456,1.11-7.583,5.112-7.583,9.704V246H10c-5.523,0-10,4.477-10,10c0,5.522,4.477,10,10,10h43.998v19.292    c0,4.592,3.127,8.594,7.583,9.703l29.612,7.378l15.482,37.359L90.96,365.874c-2.366,3.936-1.747,8.977,1.5,12.224l41.434,41.434    c3.247,3.246,8.288,3.864,12.224,1.499l26.141-15.714l37.36,15.482l7.377,29.611c1.11,4.456,5.112,7.583,9.704,7.583h19.291    v43.998c0,5.522,4.477,10,10,10s10-4.478,10-10v-43.998h19.292c4.592,0,8.593-3.127,9.704-7.583l7.377-29.611l37.36-15.482    l26.141,15.714c3.936,2.365,8.976,1.747,12.224-1.499l41.434-41.434c3.246-3.247,3.865-8.289,1.499-12.224l-15.714-26.142    l15.482-37.359l29.612-7.378c4.456-1.109,7.583-5.111,7.583-9.703V266h43.998c5.523,0,10-4.478,10-10    C511.98,250.477,507.503,246,501.98,246z M437.983,277.478l-26.921,6.708c-3.076,0.767-5.607,2.946-6.821,5.875l-19.342,46.674    c-1.214,2.929-0.966,6.261,0.668,8.98l14.286,23.766l-30.383,30.384l-23.766-14.286c-2.719-1.635-6.051-1.883-8.981-0.668    l-46.674,19.343c-2.929,1.214-5.108,3.744-5.875,6.821l-6.707,26.92h-42.956l-6.707-26.92c-0.767-3.077-2.946-5.607-5.875-6.821    l-46.674-19.343c-2.93-1.215-6.262-0.967-8.981,0.668l-23.766,14.286l-30.383-30.384l14.286-23.766    c1.634-2.719,1.881-6.051,0.667-8.98l-19.342-46.674c-1.214-2.929-3.745-5.108-6.821-5.875l-26.92-6.708v-42.956l26.921-6.707    c3.076-0.767,5.607-2.946,6.821-5.875l19.342-46.674c1.214-2.93,0.966-6.262-0.667-8.98l-14.286-23.766l30.383-30.383    l23.766,14.286c2.718,1.634,6.05,1.882,8.98,0.667l46.674-19.342c2.929-1.214,5.108-3.745,5.875-6.821l6.707-26.921h42.956    l6.707,26.921c0.767,3.076,2.946,5.607,5.875,6.821l46.674,19.342c2.931,1.214,6.262,0.966,8.98-0.667l23.766-14.286    l30.383,30.383l-14.286,23.766c-1.634,2.718-1.881,6.05-0.667,8.98l19.342,46.674c1.214,2.929,3.745,5.108,6.821,5.875    l26.921,6.707V277.478z" data-original="#000000" class="active-path" data-old_color="#000000" fill="#00BCD6"/>
	</g>
</g><g>
	<g>
		<path d="M300.089,135.808c-5.184-1.9-10.93,0.758-12.833,5.942c-1.903,5.185,0.758,10.93,5.942,12.833    c42.34,15.539,70.787,56.296,70.787,101.418c0,59.55-48.447,107.996-107.996,107.996S147.994,315.55,147.994,256    c0-42.696,25.228-81.47,64.27-98.78c5.049-2.238,7.327-8.146,5.088-13.194c-2.238-5.048-8.147-7.327-13.194-5.088    c-46.266,20.513-76.162,66.463-76.162,117.062c0,70.576,57.418,127.995,127.995,127.995S383.985,326.576,383.985,256    C383.985,202.526,350.269,154.224,300.089,135.808z" data-original="#000000" class="active-path" data-old_color="#000000" fill="#00BCD6"/>
	</g>
</g><g>
	<g>
		<path d="M256.52,128.006l-0.53-0.001c-5.523,0-10,4.477-10,10c0,5.523,4.477,10,10,10l0.471,0.001c0.01,0,0.02,0,0.03,0    c5.509,0,9.983-4.458,10-9.971C266.507,132.512,262.043,128.022,256.52,128.006z" data-original="#000000" class="active-path" data-old_color="#000000" fill="#00BCD6"/>
	</g>
</g><g>
	<g>
		<path d="M325.654,216.221c-5.523,0-10,4.477-10,10v58.285c0,5.522,4.477,10,10,10c5.523,0,10-4.478,10-10V226.22    C335.654,220.697,331.177,216.221,325.654,216.221z" data-original="#000000" class="active-path" data-old_color="#000000" fill="#00BCD6"/>
	</g>
</g><g>
	<g>
		<path d="M277.16,216.221h-20.602c-5.523,0-10,4.477-10,10v19.938V259.8v24.705c0,5.522,4.477,10,10,10c5.523,0,10-4.478,10-10    v-14.705h10.603c13.95,0,25.3-11.351,25.3-25.3v-2.979C302.46,227.57,291.111,216.221,277.16,216.221z M282.461,244.499    c0,2.923-2.378,5.301-5.301,5.301h-10.603v-3.642v-9.939h10.603c2.923,0,5.301,2.378,5.301,5.301V244.499z" data-original="#000000" class="active-path" data-old_color="#000000" fill="#00BCD6"/>
	</g>
</g><g>
	<g>
		<path d="M235.847,282.092l-25.666-59.814c-1.576-3.676-5.19-6.058-9.189-6.058s-7.613,2.382-9.19,6.057l-25.666,59.814    c-2.178,5.075,0.171,10.955,5.247,13.132c5.076,2.177,10.955-0.171,13.133-5.246l16.476-38.399l16.477,38.399    c1.626,3.79,5.316,6.06,9.194,6.06c1.315,0,2.653-0.262,3.938-0.813C235.676,293.047,238.025,287.167,235.847,282.092z" data-original="#000000" class="active-path" data-old_color="#000000" fill="#00BCD6"/>
	</g>
</g><g>
	<g>
		<path d="M478.001,0.01c-18.747,0-33.999,15.251-33.999,33.999c0,5.736,1.433,11.141,3.952,15.884l-38.259,38.258    c-3.905,3.905-3.905,10.237,0,14.142c1.953,1.952,4.513,2.928,7.072,2.928s5.119-0.976,7.071-2.929l38.251-38.251    c4.751,2.527,10.166,3.966,15.911,3.966c18.747,0,33.999-15.251,33.999-33.999S496.749,0.01,478.001,0.01z M478.001,48.008    c-7.72,0-13.999-6.28-13.999-13.999c0-7.72,6.28-13.999,13.999-13.999c7.72,0,13.999,6.28,13.999,13.999    C492.001,41.728,485.721,48.008,478.001,48.008z" data-original="#000000" class="active-path" data-old_color="#000000" fill="#00BCD6"/>
	</g>
</g><g>
	<g>
		<path d="M102.283,409.705c-3.905-3.903-10.237-3.903-14.141,0.001l-38.245,38.245c-4.748-2.523-10.158-3.959-15.898-3.959    C15.251,443.993,0,459.244,0,477.991s15.251,33.999,33.999,33.999s33.999-15.251,33.999-33.999c0-5.741-1.436-11.151-3.959-15.898    l38.245-38.246C106.188,419.943,106.188,413.611,102.283,409.705z M33.999,491.991c-7.72,0-13.999-6.28-13.999-13.999    c0-7.72,6.28-13.999,13.999-13.999c7.72,0,13.999,6.28,13.999,13.999C47.998,485.711,41.718,491.991,33.999,491.991z" data-original="#000000" class="active-path" data-old_color="#000000" fill="#00BCD6"/>
	</g>
</g><g>
	<g>
		<path d="M423.843,409.704c-1.87-1.86-4.45-2.93-7.08-2.93c-2.63,0-5.21,1.069-7.07,2.93c-1.86,1.859-2.93,4.439-2.93,7.07    c0,2.63,1.07,5.21,2.93,7.069c1.86,1.86,4.44,2.931,7.07,2.931c2.64,0,5.21-1.07,7.08-2.931c1.86-1.859,2.92-4.43,2.92-7.069    C426.763,414.143,425.703,411.563,423.843,409.704z" data-original="#000000" class="active-path" data-old_color="#000000" fill="#00BCD6"/>
	</g>
</g><g>
	<g>
		<path d="M478.001,443.993c-5.746,0-11.161,1.438-15.911,3.966l-16.894-16.894c-3.905-3.903-10.237-3.904-14.141,0    c-3.905,3.905-3.906,10.237,0,14.142l16.9,16.901c-2.518,4.745-3.952,10.15-3.952,15.884c0,18.747,15.251,33.999,33.999,33.999    S512,496.74,512,477.992S496.749,443.993,478.001,443.993z M478.001,491.991c-7.72,0-13.999-6.28-13.999-13.999    c0-7.72,6.28-13.999,13.999-13.999c7.72,0,13.999,6.28,13.999,13.999C492.001,485.711,485.721,491.991,478.001,491.991z" data-original="#000000" class="active-path" data-old_color="#000000" fill="#00BCD6"/>
	</g>
</g><g>
	<g>
		<path d="M102.283,88.151L64.039,49.907c2.523-4.748,3.959-10.158,3.959-15.898c0-18.747-15.251-33.999-33.999-33.999    S0,15.261,0,34.009s15.251,33.999,33.999,33.999c5.741,0,11.151-1.436,15.898-3.959l38.245,38.244    c1.953,1.953,4.512,2.929,7.071,2.929s5.119-0.976,7.071-2.929C106.188,98.388,106.188,92.056,102.283,88.151z M33.999,48.008    c-7.72,0-13.999-6.28-13.999-13.999c0-7.72,6.28-13.999,13.999-13.999c7.72,0,13.999,6.28,13.999,13.999    C47.998,41.728,41.718,48.008,33.999,48.008z" data-original="#000000" class="active-path" data-old_color="#000000" fill="#00BCD6"/>
	</g>
</g></g> </svg>
