<svg xmlns="http://www.w3.org/2000/svg" viewBox="0 0 83.07 69.56"><defs><style>.cls-1{fill:#f7f0e9;}.cls-2{fill:#00bcd6;}.cls-3{fill:#00a9b4;}.cls-4{fill:#f06934;}</style></defs><title>alfianjau-Asset 5</title><g id="Layer_2" data-name="Layer 2"><g id="Layer_1-2" data-name="Layer 1"><path class="cls-1" d="M60.72,39.66H76.91a4.3,4.3,0,0,0-3.06,1.28,4,4,0,0,0-1.28,2.92,4.23,4.23,0,0,0,4.34,4.22H60.72A4.22,4.22,0,0,0,63.79,47a4.17,4.17,0,0,0,1.27-3A4.29,4.29,0,0,0,60.72,39.66Z"/><path class="cls-1" d="M72.85,35.53A31.53,31.53,0,1,1,41.32,4,31.52,31.52,0,0,1,72.85,35.53Z"/><path class="cls-2" d="M41.32,62A26.43,26.43,0,1,1,67.74,35.53,26.46,26.46,0,0,1,41.32,62Zm0-51.92A25.5,25.5,0,1,0,66.81,35.53,25.52,25.52,0,0,0,41.32,10Z"/><path class="cls-1" d="M16.52,53.78H29.46a2.41,2.41,0,0,1,2.42,2.41h0a2.41,2.41,0,0,1-2.42,2.41H16.52a2.4,2.4,0,0,1-2.41-2.41h0A2.41,2.41,0,0,1,16.52,53.78Z"/><path class="cls-1" d="M13.4,63.27H32.58a1.57,1.57,0,0,1,1.57,1.57h0a1.57,1.57,0,0,1-1.57,1.57H13.4a1.56,1.56,0,0,1-1.56-1.57h0A1.56,1.56,0,0,1,13.4,63.27Z"/><path class="cls-1" d="M55.28,66.43h2.93A1.57,1.57,0,0,1,59.78,68h0a1.56,1.56,0,0,1-1.57,1.56H55.28A1.56,1.56,0,0,1,53.72,68h0A1.56,1.56,0,0,1,55.28,66.43Z"/><path class="cls-1" d="M53.83,57.17H68.08a2.56,2.56,0,0,1,2.56,2.57h0a2.56,2.56,0,0,1-2.56,2.57H53.83a2.57,2.57,0,0,1-2.57-2.57h0A2.57,2.57,0,0,1,53.83,57.17Z"/><path class="cls-1" d="M54.56,31H77.81a4.34,4.34,0,0,1,4.34,4.34h0a4.34,4.34,0,0,1-4.34,4.32H54.56a4.34,4.34,0,0,1-4.34-4.32h0A4.34,4.34,0,0,1,54.56,31Z"/><path class="cls-1" d="M18.75,58.6h9a2.42,2.42,0,0,0-1.71.73A2.2,2.2,0,0,0,25.35,61a2.34,2.34,0,0,0,2.42,2.32h-9A2.25,2.25,0,0,0,21.17,61,2.39,2.39,0,0,0,18.75,58.6Z"/><path class="cls-1" d="M45.82,48.09H80.26a2.81,2.81,0,0,1,2.81,2.82h0a2.81,2.81,0,0,1-2.81,2.82H45.82A2.81,2.81,0,0,1,43,50.91h0A2.81,2.81,0,0,1,45.82,48.09Z"/><path class="cls-1" d="M34.67,27.22H7.44a4.61,4.61,0,0,1-4.61-4.61h0A4.6,4.6,0,0,1,7.44,18H34.67a4.61,4.61,0,0,1,4.61,4.6h0A4.62,4.62,0,0,1,34.67,27.22Z"/><path class="cls-1" d="M46,53.89H6.66A6.66,6.66,0,0,1,0,47.23H0a6.66,6.66,0,0,1,6.66-6.66H46a6.66,6.66,0,0,1,6.65,6.66h0A6.66,6.66,0,0,1,46,53.89Z"/><path class="cls-1" d="M68.28,16.64H46.55A3.68,3.68,0,0,1,42.88,13h0a3.69,3.69,0,0,1,3.67-3.69H68.28A3.69,3.69,0,0,1,72,13h0A3.68,3.68,0,0,1,68.28,16.64Z"/><path class="cls-1" d="M42.57,10.65H14.66a3.33,3.33,0,0,1-3.33-3.32h0A3.33,3.33,0,0,1,14.66,4H42.57a3.32,3.32,0,0,1,3.32,3.33h0A3.32,3.32,0,0,1,42.57,10.65Z"/><path class="cls-1" d="M61.6,4H56.44a2,2,0,0,1-2-2h0a2,2,0,0,1,2-2H61.6a2,2,0,0,1,2,2h0A2,2,0,0,1,61.6,4Z"/><rect class="cls-1" x="43.26" y="20.34" width="11.7" height="9.47"/><path class="cls-3" d="M55,30.05H43.26a.24.24,0,0,1-.24-.24V20.34a.24.24,0,0,1,.24-.24H55a.24.24,0,0,1,.24.24v9.47A.24.24,0,0,1,55,30.05ZM43.5,29.58H54.73v-9H43.5Z"/><rect class="cls-2" x="44.32" y="21.45" width="9.65" height="7.23"/><path class="cls-3" d="M54,28.91H44.32a.23.23,0,0,1-.23-.23V21.45a.23.23,0,0,1,.23-.23H54a.23.23,0,0,1,.23.23v7.23A.23.23,0,0,1,54,28.91Zm-9.41-.46h9.17V21.68H44.56Z"/><path class="cls-3" d="M52.24,26.26l-.27.46-3.83-2.21-3.82,2V25.9L48,24a.28.28,0,0,1,.25,0Z"/><path class="cls-3" d="M54,25.07v.62l-1.78-1.15-1.11,1-.21.2-.35-.39.09-.08L52,24a.29.29,0,0,1,.32,0Z"/><path class="cls-4" d="M51,22.94A.92.92,0,1,1,50.1,22,.92.92,0,0,1,51,22.94Z"/><rect class="cls-3" x="10.06" y="52.26" width="3.16" height="0.94"/><rect class="cls-3" x="4.92" y="52.26" width="3.51" height="0.94"/><rect class="cls-3" x="74.36" y="52.26" width="3.51" height="0.94"/><rect class="cls-3" x="14.38" y="52.26" width="56.94" height="0.94"/><path class="cls-3" d="M13.42,49.38h-.48a.24.24,0,0,1-.23-.25.24.24,0,0,1,.23-.23h.48a.24.24,0,0,1,.23.23A.24.24,0,0,1,13.42,49.38Zm-1.41,0h-.47a.24.24,0,0,1-.23-.25.24.24,0,0,1,.23-.23H12a.23.23,0,0,1,.23.23A.24.24,0,0,1,12,49.38Zm-1.4,0h-.47a.24.24,0,0,1-.23-.25.23.23,0,0,1,.23-.23h.47a.24.24,0,0,1,.23.23A.24.24,0,0,1,10.61,49.38Zm-1.4,0H8.73a.24.24,0,0,1-.23-.25.24.24,0,0,1,.23-.23h.48a.24.24,0,0,1,.23.23A.24.24,0,0,1,9.21,49.38Zm-1.41,0H7.33a.24.24,0,0,1-.23-.25.24.24,0,0,1,.23-.23H7.8a.23.23,0,0,1,.23.23A.24.24,0,0,1,7.8,49.38Zm-1.4,0H6.16a.24.24,0,0,1-.23-.25.23.23,0,0,1,.23-.23H6.4a.23.23,0,0,1,.23.23A.24.24,0,0,1,6.4,49.38Z"/><path class="cls-3" d="M55.77,17.46H55.3a.24.24,0,0,1,0-.47h.47a.24.24,0,1,1,0,.47Zm-1.4,0H53.9a.24.24,0,0,1,0-.47h.47a.24.24,0,0,1,0,.47Zm-1.41,0H52.5a.24.24,0,1,1,0-.47H53a.24.24,0,1,1,0,.47Zm-1.4,0H51.1a.24.24,0,1,1,0-.47h.46a.24.24,0,1,1,0,.47Zm-1.4,0h-.47a.24.24,0,0,1,0-.47h.47a.24.24,0,0,1,0,.47Zm-1.4,0h-.23a.24.24,0,1,1,0-.47h.23a.24.24,0,0,1,0,.47Z"/><path class="cls-3" d="M37.51,27.09H37a.23.23,0,1,1,0-.46h.47a.23.23,0,1,1,0,.46Zm-1.4,0h-.47a.23.23,0,0,1,0-.46h.47a.23.23,0,1,1,0,.46Zm-1.4,0h-.48a.23.23,0,1,1,0-.46h.48a.23.23,0,0,1,0,.46Zm-1.41,0h-.47a.23.23,0,1,1,0-.46h.47a.23.23,0,1,1,0,.46Zm-1.4,0h-.47a.23.23,0,0,1,0-.46h.47a.23.23,0,1,1,0,.46Zm-1.4,0h-.24a.23.23,0,0,1,0-.46h.24a.23.23,0,0,1,0,.46Z"/><path class="cls-1" d="M63.63,21a4.8,4.8,0,0,0-2.08,3.49h-2.3A4.8,4.8,0,0,0,57.17,21l3.23-3.73Z"/><path class="cls-4" d="M60.57,20.52v-3l-.22-.31-.25.37v3a.72.72,0,0,0,.31,1.37.67.67,0,0,0,.66-.72A.57.57,0,0,0,60.57,20.52Z"/><path class="cls-3" d="M61.55,24.67h-2.3a.23.23,0,0,1-.23-.23,4.56,4.56,0,0,0-2-3.29.25.25,0,0,1-.1-.16A.26.26,0,0,1,57,20.8l3.23-3.74A.27.27,0,0,1,60.4,17h0a.29.29,0,0,1,.18.07L63.8,20.8a.22.22,0,0,1,.06.19.25.25,0,0,1-.11.16,4.59,4.59,0,0,0-2,3.29A.24.24,0,0,1,61.55,24.67Zm-2.07-.47h1.84a4.93,4.93,0,0,1,2-3.29L60.4,17.58l-2.89,3.34A4.85,4.85,0,0,1,59.48,24.2Z"/><path class="cls-4" d="M58.58,49.1v1.32a1.83,1.83,0,0,0,1.82,1.82h0a1.82,1.82,0,0,0,1.81-1.82V49.1Z"/><path class="cls-2" d="M61.63,29.51V24.46H59.17v5.05h0a.59.59,0,0,0-.59.59v19h3.63v-19A.59.59,0,0,0,61.63,29.51Z"/><path class="cls-3" d="M62.21,49.33H58.58a.24.24,0,0,1-.23-.23v-19a.82.82,0,0,1,.58-.78V24.46a.23.23,0,0,1,.24-.23h2.46a.23.23,0,0,1,.23.23v4.86a.81.81,0,0,1,.58.78v19A.23.23,0,0,1,62.21,49.33Zm-3.39-.47H62V30.1a.34.34,0,0,0-.35-.34.24.24,0,0,1-.23-.25V24.69h-2v4.82a.24.24,0,0,1-.23.25.35.35,0,0,0-.35.34Z"/><path class="cls-3" d="M60.4,52.47a2,2,0,0,1-2-2V49.1a.24.24,0,0,1,.23-.24h3.63a.23.23,0,0,1,.23.24v1.32A2,2,0,0,1,60.4,52.47Zm-1.58-3.14v1.09a1.58,1.58,0,0,0,3.16,0V49.33Z"/><path class="cls-3" d="M61.5,29.58h-.93a.24.24,0,1,1,0-.47h.93a.24.24,0,0,1,0,.47Z"/><path class="cls-4" d="M19.69,49.1v1.32a1.82,1.82,0,0,0,1.81,1.82h0a1.82,1.82,0,0,0,1.82-1.82V49.1Z"/><path class="cls-4" d="M19.69,49.1v1.32a1.82,1.82,0,0,0,1.81,1.82h0a1.82,1.82,0,0,0,1.82-1.82V49.1Z"/><path class="cls-3" d="M21.5,52.47a2,2,0,0,1-2.05-2V49.1a.24.24,0,0,1,.24-.24h3.63a.23.23,0,0,1,.23.24v1.32A2,2,0,0,1,21.5,52.47Zm-1.58-3.14v1.09a1.59,1.59,0,0,0,3.17,0V49.33Z"/><path class="cls-4" d="M22.74,34.5h0V32.09H20.27V34.5h0a.58.58,0,0,0-.58.58v14h3.63v-14A.58.58,0,0,0,22.74,34.5Z"/><path class="cls-3" d="M23.32,49.33H19.69a.24.24,0,0,1-.24-.23v-14A.83.83,0,0,1,20,34.3V32.09a.24.24,0,0,1,.24-.24h2.47a.24.24,0,0,1,.23.24V34.3a.82.82,0,0,1,.58.78v14A.23.23,0,0,1,23.32,49.33Zm-3.4-.47h3.17V35.08a.36.36,0,0,0-.35-.35.23.23,0,0,1-.24-.23V32.32h-2V34.5a.23.23,0,0,1-.24.23.36.36,0,0,0-.35.35Z"/><path class="cls-1" d="M21.51,17.18h0A1.77,1.77,0,0,0,19.74,19v2.77a.91.91,0,0,0,.91.91h0v7.82h1.7V22.63h0a.89.89,0,0,0,.89-.89v-2.8A1.76,1.76,0,0,0,21.51,17.18Z"/><path class="cls-3" d="M22.35,30.68h-1.7a.23.23,0,0,1-.23-.23V22.84a1.15,1.15,0,0,1-.91-1.12V19a2,2,0,1,1,4,0v2.8a1.12,1.12,0,0,1-.91,1.1v7.61A.23.23,0,0,1,22.35,30.68Zm-1.46-.47h1.23V22.63a.23.23,0,0,1,.23-.23h0a.65.65,0,0,0,.66-.66v-2.8A1.53,1.53,0,0,0,20,19v2.77a.67.67,0,0,0,.67.68.23.23,0,0,1,.24.23Z"/><path class="cls-1" d="M22.56,32.09H20.45a.91.91,0,0,1-.91-.91h0a.91.91,0,0,1,.91-.91h2.11a.91.91,0,0,1,.91.91h0A.91.91,0,0,1,22.56,32.09Z"/><path class="cls-3" d="M22.56,32.32H20.45a1.15,1.15,0,1,1,0-2.29h2.11a1.15,1.15,0,1,1,0,2.29ZM20.45,30.5a.68.68,0,0,0-.68.68.67.67,0,0,0,.68.67h2.11a.68.68,0,0,0,.68-.67.69.69,0,0,0-.68-.68Z"/><rect class="cls-3" x="21.52" y="34.26" width="1.17" height="0.46"/><path class="cls-4" d="M36.56,17.33H30.33a.79.79,0,0,0-.8.79v3.47a.79.79,0,0,0,.8.79h3.35v1.95l1.9-1.95h1a.79.79,0,0,0,.79-.79V18.12A.79.79,0,0,0,36.56,17.33Z"/><path class="cls-3" d="M33.68,24.56h-.1a.23.23,0,0,1-.14-.22V22.62H30.33a1,1,0,0,1-1-1V18.12a1,1,0,0,1,1-1h6.23a1,1,0,0,1,1,1v3.47a1,1,0,0,1-1,1h-.88L33.84,24.5A.25.25,0,0,1,33.68,24.56Zm-3.35-7a.56.56,0,0,0-.56.56v3.47a.56.56,0,0,0,.56.56h3.35a.23.23,0,0,1,.23.23v1.38l1.51-1.54a.2.2,0,0,1,.16-.07h1a.57.57,0,0,0,.56-.56V18.12a.57.57,0,0,0-.56-.56Z"/><path class="cls-3" d="M31.9,21a.25.25,0,0,1-.17-.08l-.9-.9a.36.36,0,0,1,0-.51l.88-.89a.24.24,0,0,1,.33,0l.19.19a.25.25,0,0,1,.06.17.27.27,0,0,1-.06.17l-.62.61.64.65a.24.24,0,0,1,.07.16.26.26,0,0,1-.07.17l-.19.18A.21.21,0,0,1,31.9,21Z"/><path class="cls-3" d="M35.09,21h0a.28.28,0,0,1-.17-.07l-.18-.19a.22.22,0,0,1,0-.33l.66-.67-.66-.65a.23.23,0,0,1-.07-.17.2.2,0,0,1,.07-.16l.18-.19a.22.22,0,0,1,.33,0l.93.92a.35.35,0,0,1,.1.25.38.38,0,0,1-.1.27l-.93.92A.24.24,0,0,1,35.09,21Z"/><path class="cls-3" d="M33,21.67l-.1,0-.24-.11a.23.23,0,0,1-.12-.31L33.94,18a.23.23,0,0,1,.31-.12l.24.11a.22.22,0,0,1,.12.13.25.25,0,0,1,0,.17l-1.43,3.21a.26.26,0,0,1-.13.14Z"/><path class="cls-4" d="M57.47,50.46v-19a1.9,1.9,0,0,0-1.86-1.92H26.67a1.9,1.9,0,0,0-1.86,1.92v19Z"/><path class="cls-4" d="M54.41,40.87h8.94A1.68,1.68,0,0,1,65,42.55h0a1.67,1.67,0,0,1-1.68,1.66H54.41a1.67,1.67,0,0,1-1.68-1.66h0A1.68,1.68,0,0,1,54.41,40.87Z"/><path class="cls-4" d="M55.23,34.3H60.1A1.68,1.68,0,0,1,61.77,36h0a1.67,1.67,0,0,1-1.67,1.67H55.23A1.67,1.67,0,0,1,53.56,36h0A1.68,1.68,0,0,1,55.23,34.3Z"/><path class="cls-4" d="M52.25,47.19H65.51a1.16,1.16,0,0,1,1.09,1.22h0a1.16,1.16,0,0,1-1.09,1.22H52.25a1.15,1.15,0,0,1-1.08-1.22h0A1.16,1.16,0,0,1,52.25,47.19Z"/><path class="cls-4" d="M61.92,31.2h4.81a1.08,1.08,0,0,1,1.07,1.09h0a1.08,1.08,0,0,1-1.07,1.08H61.92a1.09,1.09,0,0,1-1.08-1.08h0A1.09,1.09,0,0,1,61.92,31.2Z"/><path class="cls-4" d="M55.74,44.06h6.45a1.79,1.79,0,0,0-1.22.49,1.46,1.46,0,0,0-.51,1.11,1.64,1.64,0,0,0,1.73,1.59H55.74A1.74,1.74,0,0,0,57,46.83a1.55,1.55,0,0,0,.5-1.15A1.67,1.67,0,0,0,55.74,44.06Z"/><rect class="cls-1" x="26.25" y="31.24" width="29.77" height="17.74"/><rect class="cls-2" x="51.59" y="32.23" width="3.21" height="5.04"/><rect class="cls-2" x="27.48" y="32.23" width="23.1" height="5.04"/><rect class="cls-2" x="27.48" y="38.84" width="6.41" height="5.04"/><rect class="cls-2" x="35.07" y="41.77" width="19.73" height="2.12"/><rect class="cls-2" x="35.07" y="38.84" width="19.73" height="2.12"/><rect class="cls-2" x="27.48" y="44.87" width="27.32" height="3.1"/><rect class="cls-1" x="28.41" y="46.28" width="25.45" height="2.7"/><path class="cls-3" d="M53.86,49.21H28.41a.23.23,0,0,1-.23-.23v-2.7a.23.23,0,0,1,.23-.24H53.86a.23.23,0,0,1,.23.24V49A.23.23,0,0,1,53.86,49.21Zm-25.22-.47h25V46.51h-25Z"/><rect class="cls-3" x="29" y="46.19" width="0.47" height="1.63"/><rect class="cls-3" x="29.94" y="46.19" width="0.47" height="0.93"/><rect class="cls-3" x="30.64" y="46.19" width="0.47" height="1.63"/><rect class="cls-3" x="31.57" y="46.19" width="0.47" height="0.93"/><rect class="cls-3" x="32.51" y="46.19" width="0.47" height="1.63"/><rect class="cls-3" x="33.21" y="46.19" width="0.47" height="0.93"/><rect class="cls-3" x="34.15" y="46.19" width="0.47" height="1.63"/><rect class="cls-3" x="35.08" y="46.19" width="0.47" height="0.93"/><rect class="cls-3" x="35.78" y="46.19" width="0.47" height="1.63"/><rect class="cls-3" x="36.72" y="46.19" width="0.47" height="0.93"/><rect class="cls-3" x="37.42" y="46.19" width="0.47" height="1.63"/><rect class="cls-3" x="38.36" y="46.19" width="0.47" height="0.93"/><rect class="cls-3" x="39.29" y="46.19" width="0.47" height="1.63"/><rect class="cls-3" x="39.99" y="46.19" width="0.47" height="0.93"/><rect class="cls-3" x="40.93" y="46.19" width="0.47" height="1.63"/><rect class="cls-3" x="41.86" y="46.19" width="0.47" height="0.93"/><rect class="cls-3" x="42.56" y="46.19" width="0.47" height="1.63"/><rect class="cls-3" x="43.5" y="46.19" width="0.47" height="0.93"/><rect class="cls-3" x="44.43" y="46.19" width="0.47" height="1.63"/><rect class="cls-3" x="45.13" y="46.19" width="0.47" height="0.93"/><rect class="cls-3" x="46.07" y="46.19" width="0.47" height="1.63"/><rect class="cls-3" x="46.77" y="46.19" width="0.47" height="0.93"/><rect class="cls-3" x="47.7" y="46.19" width="0.47" height="1.63"/><rect class="cls-3" x="48.64" y="46.19" width="0.47" height="0.93"/><rect class="cls-3" x="49.34" y="46.19" width="0.47" height="1.63"/><rect class="cls-3" x="50.28" y="46.19" width="0.47" height="0.93"/><rect class="cls-3" x="51.21" y="46.19" width="0.47" height="1.63"/><rect class="cls-3" x="51.91" y="46.19" width="0.47" height="0.93"/><rect class="cls-3" x="52.85" y="46.19" width="0.47" height="1.63"/><path class="cls-3" d="M56,49.21H26.25A.23.23,0,0,1,26,49V31.24a.23.23,0,0,1,.23-.24H56a.24.24,0,0,1,.24.24V49A.24.24,0,0,1,56,49.21Zm-29.54-.47H55.79V31.47H26.48Z"/><path class="cls-1" d="M41.6,30.36a.49.49,0,0,1-1,0,.49.49,0,1,1,1,0Z"/><path class="cls-3" d="M42.14,30.36a.21.21,0,0,1-.21.22.22.22,0,1,1,0-.44A.21.21,0,0,1,42.14,30.36Z"/><path class="cls-1" d="M22.92,50.46v.9a.89.89,0,0,0,.89.9H58.47a.89.89,0,0,0,.88-.9v-.9Z"/><path class="cls-3" d="M58.47,52.5H23.81a1.14,1.14,0,0,1-1.12-1.14v-.9a.24.24,0,0,1,.23-.24H59.35a.24.24,0,0,1,.23.24v.9A1.13,1.13,0,0,1,58.47,52.5ZM23.16,50.69v.67a.66.66,0,0,0,.65.67H58.47a.66.66,0,0,0,.64-.67v-.67Z"/><path class="cls-3" d="M57.47,50.7H24.78a.23.23,0,0,1-.23-.23V31.34a1.92,1.92,0,0,1,1.94-2.06H55.78a1.89,1.89,0,0,1,1.92,2.06v2.55h2.4a1.91,1.91,0,0,1,0,3.82H57.7V40.6h5.65a1.88,1.88,0,0,1,1.9,1.85h0a1.94,1.94,0,0,1-1.9,2H62a1.1,1.1,0,0,0-.79.31,1.09,1.09,0,0,0-.42.86,1.31,1.31,0,0,0,1.44,1.3h3.32a1.5,1.5,0,0,1,0,3H57.7v.6A.23.23,0,0,1,57.47,50.7ZM25,50.24H57.23v-.6a.24.24,0,0,1,.24-.24h8c.48,0,.85-.56.85-1s-.37-1-.85-1H62.19a1.78,1.78,0,0,1-1.91-1.77,1.54,1.54,0,0,1,.56-1.19A1.48,1.48,0,0,1,62,44h1.39a1.46,1.46,0,0,0,1.43-1.48,1.4,1.4,0,0,0-1.43-1.4H57.47a.23.23,0,0,1-.24-.23V37.48a.24.24,0,0,1,.24-.24H60.1a1.44,1.44,0,1,0,0-2.88H57.47a.23.23,0,0,1-.24-.23V31.34a1.42,1.42,0,0,0-1.45-1.58H26.49A1.45,1.45,0,0,0,25,31.34Z"/><path class="cls-3" d="M66.73,33.53H61.92a1.31,1.31,0,0,1-1.33-1.22v-.1A1.33,1.33,0,0,1,61.92,31h4.81a1.29,1.29,0,1,1,0,2.57Zm-4.81-2.1a.87.87,0,0,0-.87.84.84.84,0,0,0,.87.79h4.81a.82.82,0,0,0,.84-.82.81.81,0,0,0-.84-.81Z"/><path class="cls-3" d="M67.11,39h-5a.24.24,0,1,1,0-.47h5a.24.24,0,0,1,0,.47Z"/><path class="cls-3" d="M68,45.25H66.27A.23.23,0,0,1,66,45a.23.23,0,0,1,.24-.23H68a.23.23,0,0,1,.23.23A.23.23,0,0,1,68,45.25Z"/><path class="cls-3" d="M67.11,36.26H65.43A.23.23,0,0,1,65.2,36a.22.22,0,0,1,.23-.23h1.68a.23.23,0,0,1,.23.23A.23.23,0,0,1,67.11,36.26Z"/><rect class="cls-4" x="33.52" y="36.03" width="15.24" height="8.17" rx="0.25"/><path class="cls-3" d="M46,44.42H36.29a3,3,0,0,1-3-3V38.8a3,3,0,0,1,3-3H46a3,3,0,0,1,3,3v2.61A3,3,0,0,1,46,44.42Zm-9.69-8.16a2.54,2.54,0,0,0-2.54,2.54v2.61A2.54,2.54,0,0,0,36.29,44H46a2.55,2.55,0,0,0,2.55-2.54V38.8A2.55,2.55,0,0,0,46,36.26Z"/><path class="cls-1" d="M38.51,40.61l.74.23a1.62,1.62,0,0,1-.57.92,1.57,1.57,0,0,1-1,.3,1.66,1.66,0,0,1-1.25-.51A2,2,0,0,1,36,40.14a2.06,2.06,0,0,1,.49-1.47,1.66,1.66,0,0,1,1.28-.53,1.56,1.56,0,0,1,1.13.42,1.51,1.51,0,0,1,.39.7l-.76.17A.78.78,0,0,0,38.2,39a.78.78,0,0,0-.52-.17.85.85,0,0,0-.68.3,2.05,2.05,0,0,0,0,2,.81.81,0,0,0,.67.31.79.79,0,0,0,.52-.19A1.18,1.18,0,0,0,38.51,40.61Z"/><path class="cls-1" d="M39.71,40.77l.75-.08a.85.85,0,0,0,.27.55.8.8,0,0,0,.56.18.88.88,0,0,0,.55-.16A.45.45,0,0,0,42,40.9a.34.34,0,0,0-.08-.23.62.62,0,0,0-.27-.16l-.62-.17A2.17,2.17,0,0,1,40.2,40a1,1,0,0,1-.18-1.3,1,1,0,0,1,.47-.39,1.85,1.85,0,0,1,.74-.13,1.62,1.62,0,0,1,1.08.32,1.08,1.08,0,0,1,.37.83l-.76,0a.62.62,0,0,0-.21-.41.74.74,0,0,0-.48-.13.84.84,0,0,0-.53.14.26.26,0,0,0-.12.23.29.29,0,0,0,.12.23,2,2,0,0,0,.7.25,3.46,3.46,0,0,1,.82.28,1,1,0,0,1,.42.38,1.21,1.21,0,0,1,0,1.22,1.18,1.18,0,0,1-.51.42,2.2,2.2,0,0,1-.82.13,1.73,1.73,0,0,1-1.11-.32A1.49,1.49,0,0,1,39.71,40.77Z"/><path class="cls-1" d="M43.24,40.77l.75-.08a.9.9,0,0,0,.27.55.84.84,0,0,0,.56.18.86.86,0,0,0,.55-.16.45.45,0,0,0,.19-.36.34.34,0,0,0-.08-.23.56.56,0,0,0-.28-.16l-.61-.17a2.17,2.17,0,0,1-.86-.38,1,1,0,0,1-.35-.76,1,1,0,0,1,.16-.54,1,1,0,0,1,.48-.39,1.83,1.83,0,0,1,.75-.13,1.59,1.59,0,0,1,1.07.32,1.09,1.09,0,0,1,.38.83l-.77,0a.62.62,0,0,0-.21-.41.74.74,0,0,0-.48-.13.8.8,0,0,0-.52.14.25.25,0,0,0-.13.23.31.31,0,0,0,.11.23,2.22,2.22,0,0,0,.71.25,3.57,3.57,0,0,1,.83.28,1.07,1.07,0,0,1,.41.38,1.14,1.14,0,0,1,.16.6,1.08,1.08,0,0,1-.19.62,1.18,1.18,0,0,1-.51.42,2.17,2.17,0,0,1-.82.13,1.73,1.73,0,0,1-1.11-.32A1.49,1.49,0,0,1,43.24,40.77Z"/><path class="cls-1" d="M24,52.26h0a1.32,1.32,0,0,0,1.32-1.32V43.73A1.32,1.32,0,0,0,24,42.42h0a1.33,1.33,0,0,0-1.33,1.31v7.21A1.33,1.33,0,0,0,24,52.26Z"/><path class="cls-3" d="M24,52.5a1.56,1.56,0,0,1-1.56-1.56V43.73a1.56,1.56,0,1,1,3.11,0v7.21A1.56,1.56,0,0,1,24,52.5Zm0-9.85a1.08,1.08,0,0,0-1.09,1.08v7.21a1.09,1.09,0,1,0,2.17,0V43.73A1.08,1.08,0,0,0,24,42.65Z"/><path class="cls-4" d="M23.51,51.08a.45.45,0,0,0,.45.45.44.44,0,0,0,.44-.45.43.43,0,0,0-.44-.44A.44.44,0,0,0,23.51,51.08Z"/><path class="cls-1" d="M24.62,52.08h0a1.31,1.31,0,0,0,.48-1.8L21.5,44a1.32,1.32,0,0,0-1.81-.49h0a1.32,1.32,0,0,0-.48,1.8l3.6,6.25A1.31,1.31,0,0,0,24.62,52.08Z"/><path class="cls-4" d="M22.21,50.55l-3-5.2a1.32,1.32,0,0,1,.48-1.8h0A1.32,1.32,0,0,1,21.5,44l3,5.18Z"/><path class="cls-3" d="M24,52.5h0a1.55,1.55,0,0,1-1.35-.78L19,45.47a1.56,1.56,0,0,1,1.35-2.33,1.58,1.58,0,0,1,1.35.78l3.61,6.24a1.59,1.59,0,0,1,.15,1.19,1.61,1.61,0,0,1-.72.94A1.66,1.66,0,0,1,24,52.5Zm-3.61-8.89a1.14,1.14,0,0,0-.54.14,1.19,1.19,0,0,0-.51.66,1,1,0,0,0,.11.83L23,51.49A1.09,1.09,0,0,0,24,52a1,1,0,0,0,.54-.15,1.1,1.1,0,0,0,.51-.65,1.17,1.17,0,0,0-.11-.84l-3.61-6.23A1.08,1.08,0,0,0,20.35,43.61Z"/><path class="cls-4" d="M23.64,51.29a.45.45,0,1,0,.77-.45.42.42,0,0,0-.6-.16A.44.44,0,0,0,23.64,51.29Z"/><path class="cls-1" d="M25.1,51.6h0a1.32,1.32,0,0,0-.48-1.81l-6.25-3.6a1.31,1.31,0,0,0-1.8.49h0a1.33,1.33,0,0,0,.48,1.81l6.25,3.59A1.3,1.3,0,0,0,25.1,51.6Z"/><path class="cls-2" d="M22.24,51.48l-5.19-3a1.33,1.33,0,0,1-.48-1.81h0a1.31,1.31,0,0,1,1.8-.49l5.19,3Z"/><path class="cls-3" d="M24,52.5h0a1.62,1.62,0,0,1-.77-.21l-6.25-3.61a1.56,1.56,0,0,1-.57-2.12,1.58,1.58,0,0,1,1.36-.78,1.62,1.62,0,0,1,.77.21l6.25,3.6A1.56,1.56,0,0,1,24,52.5Zm-6.23-6.25a1.12,1.12,0,0,0-.95.54,1.09,1.09,0,0,0,.4,1.49l6.24,3.6A1.08,1.08,0,0,0,24,52a1.12,1.12,0,0,0,.95-.54A1.09,1.09,0,0,0,24.5,50l-6.24-3.61A1.17,1.17,0,0,0,17.72,46.25Z"/><path class="cls-4" d="M23.85,51.4a.46.46,0,0,0,.62-.16.46.46,0,0,0-.17-.62.45.45,0,0,0-.61.17A.45.45,0,0,0,23.85,51.4Z"/><path class="cls-1" d="M25.28,50.94h0A1.32,1.32,0,0,0,24,49.62H16.75a1.32,1.32,0,0,0-1.32,1.32h0a1.32,1.32,0,0,0,1.32,1.32H24A1.32,1.32,0,0,0,25.28,50.94Z"/><path class="cls-4" d="M22.74,52.26h-6a1.32,1.32,0,0,1-1.32-1.32h0a1.32,1.32,0,0,1,1.32-1.32h6Z"/><path class="cls-4" d="M24.1,51.39a.45.45,0,0,0,.45-.45.45.45,0,1,0-.9,0A.45.45,0,0,0,24.1,51.39Z"/><path class="cls-3" d="M24,52.5H16.75a1.56,1.56,0,1,1,0-3.11H24a1.56,1.56,0,0,1,0,3.11Zm-7.21-2.64a1.09,1.09,0,1,0,0,2.17H24a1.09,1.09,0,0,0,0-2.17Z"/><path class="cls-3" d="M26.25,27.09a1,1,0,0,1-1-1,1,1,0,1,1,2,0A1,1,0,0,1,26.25,27.09Zm0-1.49a.52.52,0,1,0,.51.52A.51.51,0,0,0,26.25,25.6Z"/><path class="cls-3" d="M43.73,17.62a1,1,0,1,1,1-1A1,1,0,0,1,43.73,17.62Zm0-1.5a.52.52,0,1,0,.52.52A.51.51,0,0,0,43.73,16.12Z"/><path class="cls-3" d="M72,36.31a1,1,0,1,1,1-1A1,1,0,0,1,72,36.31Zm0-1.49a.51.51,0,1,0,0,1,.51.51,0,1,0,0-1Z"/><path class="cls-3" d="M13.22,45.17a1,1,0,1,1,1-1A1,1,0,0,1,13.22,45.17Zm0-1.49a.51.51,0,1,0,.51.51A.51.51,0,0,0,13.22,43.68Z"/><path class="cls-3" d="M40.69,26.82a.21.21,0,0,1-.17-.08l-.93-.92a.25.25,0,0,1,0-.34.24.24,0,0,1,.33,0l.93.93a.22.22,0,0,1,0,.33A.18.18,0,0,1,40.69,26.82Z"/><path class="cls-3" d="M39.76,26.82a.21.21,0,0,1-.17-.08.24.24,0,0,1,0-.33l.93-.93a.24.24,0,0,1,.33,0,.23.23,0,0,1,0,.34l-.93.92A.18.18,0,0,1,39.76,26.82Z"/><path class="cls-3" d="M71.11,50.79a.18.18,0,0,1-.16-.08L70,49.78a.24.24,0,0,1,0-.33.25.25,0,0,1,.34,0l.92.93a.22.22,0,0,1,0,.33A.18.18,0,0,1,71.11,50.79Z"/><path class="cls-3" d="M70.18,50.79a.21.21,0,0,1-.17-.08.24.24,0,0,1,0-.33l.94-.93a.22.22,0,0,1,.32,0,.22.22,0,0,1,0,.33l-.92.93A.21.21,0,0,1,70.18,50.79Z"/><path class="cls-3" d="M16.86,24.52a.21.21,0,0,1-.17-.08l-.93-.92a.25.25,0,0,1,0-.34.24.24,0,0,1,.33,0l.93.93a.24.24,0,0,1,0,.33A.18.18,0,0,1,16.86,24.52Z"/><path class="cls-3" d="M15.92,24.52a.19.19,0,0,1-.16-.08.24.24,0,0,1,0-.33l.93-.93a.24.24,0,0,1,.33,0,.25.25,0,0,1,0,.34l-.93.92A.19.19,0,0,1,15.92,24.52Z"/><path class="cls-3" d="M17.32,36.5a.2.2,0,0,1-.16-.07l-.93-.93a.23.23,0,0,1,0-.34.24.24,0,0,1,.33,0l.93.93a.25.25,0,0,1,0,.34A.23.23,0,0,1,17.32,36.5Z"/><path class="cls-3" d="M16.39,36.5a.2.2,0,0,1-.16-.07.23.23,0,0,1,0-.34l.93-.93a.24.24,0,0,1,.33,0,.25.25,0,0,1,0,.34l-.93.93A.23.23,0,0,1,16.39,36.5Z"/><path class="cls-3" d="M57.21,15.42a.2.2,0,0,1-.16-.07l-.93-.93a.22.22,0,0,1,0-.33.22.22,0,0,1,.32,0l.94.94a.22.22,0,0,1,0,.32A.23.23,0,0,1,57.21,15.42Z"/><path class="cls-3" d="M56.28,15.42a.2.2,0,0,1-.16-.07.21.21,0,0,1,0-.32l.93-.94a.23.23,0,1,1,.33.33l-.94.93A.2.2,0,0,1,56.28,15.42Z"/></g></g></svg>